<?xml version="1.0" encoding="utf-8"?>
<!-- Generator: Adobe Illustrator 26.0.0, SVG Export Plug-In . SVG Version: 6.00 Build 0)  -->
<svg version="1.1" id="Layer_1" xmlns="http://www.w3.org/2000/svg" xmlns:xlink="http://www.w3.org/1999/xlink" x="0px" y="0px"
	 viewBox="0 0 715.6 200" style="enable-background:new 0 0 715.6 200;" xml:space="preserve">
<style type="text/css">
	.st0{fill:#F85B34;}
	.st1{fill:#0C4888;}
	.st2{fill:#FB9E15;}
	.st3{fill:#2FCE7B;}
	.st4{fill:#7CACD3;}
	.st5{enable-background:new    ;}
</style>
<g id="chart-respondent-2" transform="translate(-770 -6958.001)">
	<g id="Group_292" transform="translate(0 492.002)">
		<path id="Path_16205" class="st0" d="M870,6466c36.5,0,70.1,19.9,87.6,51.8c17.6,32,16.3,71-3.2,101.8
			c-19.5,30.8-54.3,48.5-90.7,46.2l1.3-20c29.1,1.8,56.9-12.3,72.6-37c15.6-24.6,16.6-55.8,2.6-81.4c-14.1-25.6-40.9-41.5-70.1-41.5
			V6466z"/>
		<path id="Path_16206" class="st1" d="M863.7,6665.8c-38.7-2.4-72.4-27-86.7-63l18.6-7.4c11.4,28.8,38.4,48.4,69.4,50.4
			L863.7,6665.8z"/>
		<path id="Path_16207" class="st2" d="M777,6602.8c-8.6-21.6-9.3-45.6-2.1-67.7l19,6.2c-5.8,17.7-5.2,36.9,1.7,54.2L777,6602.8z"/>
		<path id="Path_16208" class="st3" d="M774.9,6535.1c5.2-16,14.4-30.5,26.7-42l13.7,14.6c-9.8,9.2-17.2,20.8-21.3,33.6
			L774.9,6535.1z"/>
		<path id="Path_16209" class="st4" d="M801.5,6493.1c18.5-17.4,43-27.1,68.5-27.1v20c-20.3,0-39.9,7.8-54.8,21.7L801.5,6493.1z"/>
	</g>
	<g class="st5">
		<path d="M1117.4,7128.2c0-3.8,2.6-6.2,5.9-6.2s5.5,2.3,5.5,5.9c0,3.8-2.2,6.4-5.8,6.4C1119.8,7134.3,1117.4,7132.1,1117.4,7128.2z
			 M1127.2,7128.2c0-3.3-1.7-5.3-4.1-5.3c-2.5,0-4.2,1.9-4.2,5.1c0,3.5,1.7,5.4,4.2,5.4C1125.5,7133.4,1127.2,7131.7,1127.2,7128.2z
			"/>
		<path d="M1131.2,7131.9v-4.3l-0.1-0.1h-1.1v-0.1l2.3-3.1h0.1v2.4h2.4v0.8h-2.4v3.4c0,1.8,0.3,2.4,1.3,2.4c0.5,0,0.8-0.1,1.2-0.2
			l0.2,0.4c-0.5,0.3-1.3,0.7-2.1,0.7C1131.8,7134.2,1131.2,7133.6,1131.2,7131.9z"/>
		<path d="M1144.5,7133.2v0.8h-3.7v-0.8h1.2l0.1-0.1v-3.4c0-1.5-0.3-2.1-1.7-2.1c-0.7,0-1.3,0.1-2,0.3v5.3l0.1,0.1h1.2v0.8h-3.7
			v-0.8h1.1l0.1-0.1v-10.3l-1.2-0.6v-0.1l2.4-1.1l0.1,0.1v6.4c1-0.7,1.9-1,2.6-1c1.6,0,2.3,0.8,2.3,2.1v4.6l0.1,0.1H1144.5z"/>
		<path d="M1152.1,7130h-5c0,2.4,1.2,3.2,2.9,3.2c0.7,0,1.3-0.2,1.9-0.5l0.2,0.4c-0.7,0.6-1.7,1-2.8,1c-2.2,0-3.5-1.7-3.5-3.7
			c0-2.6,1.9-4.1,3.5-4.1c1.5,0,2.8,0.9,2.8,3C1152.1,7129.6,1152.1,7129.8,1152.1,7130z M1147.2,7129.3h3.6c0-1.5-0.6-2.2-1.6-2.2
			C1148.3,7127.2,1147.4,7127.7,1147.2,7129.3z"/>
		<path d="M1158.6,7126.6v1.3c-0.3-0.1-0.6-0.1-0.9-0.1c-0.5,0-1.2,0.1-1.9,0.3v5.1l0.1,0.1h1.4v0.8h-3.9v-0.8h1.1l0.1-0.1v-4.9
			l-1.2-0.6v-0.1l2.2-1.1l0.1,0.1l0.2,1.2c0.8-0.6,1.8-1.3,2.4-1.3C1158.4,7126.4,1158.5,7126.5,1158.6,7126.6z"/>
	</g>
	<rect id="Rectangle_769" x="1116.5" y="7107" class="st4" width="36" height="8"/>
	<path id="_12_" d="M1051.1,7114.5v21.5h-4.6v-16.3c-0.3,0.2-0.6,0.5-0.9,0.6c-0.4,0.2-0.7,0.4-1.1,0.5c-0.4,0.2-0.8,0.3-1.2,0.4
		c-0.4,0.1-0.8,0.2-1.2,0.2v-3.9c1.2-0.3,2.3-0.8,3.4-1.3c1-0.5,2-1.1,2.9-1.8L1051.1,7114.5z M1062.5,7132.2h8.9v3.8h-14v-1.6
		c0-1,0.2-2,0.5-2.9c0.3-0.8,0.8-1.6,1.4-2.3c0.5-0.7,1.1-1.3,1.8-1.8c0.6-0.5,1.3-1,1.9-1.4c0.6-0.4,1.2-0.9,1.6-1.3
		c0.4-0.4,0.8-0.8,1.2-1.2c0.3-0.4,0.5-0.8,0.7-1.2c0.2-0.4,0.2-0.9,0.2-1.3c0.1-0.8-0.2-1.5-0.8-2c-0.7-0.5-1.5-0.8-2.3-0.7
		c-1.9,0.1-3.8,0.8-5.2,2.2v-4.1c1.8-1.2,4-1.8,6.2-1.8c1,0,1.9,0.1,2.9,0.4c0.8,0.2,1.5,0.7,2.1,1.2c0.6,0.5,1,1.2,1.3,1.9
		c0.3,0.8,0.5,1.6,0.5,2.5c0,0.9-0.1,1.8-0.4,2.6c-0.3,0.7-0.7,1.4-1.2,2.1c-0.5,0.6-1.1,1.2-1.7,1.7c-0.6,0.5-1.3,1-2,1.5
		c-0.5,0.3-0.9,0.7-1.4,1c-0.4,0.3-0.8,0.6-1.2,1c-0.3,0.3-0.6,0.6-0.8,0.9C1062.6,7131.6,1062.5,7131.9,1062.5,7132.2z
		 M1079.7,7125.6c-1.4,0.1-2.7-0.5-3.6-1.4c-0.9-1-1.4-2.4-1.4-3.8c-0.1-1.5,0.4-3,1.5-4.2c1-1,2.4-1.6,3.9-1.5
		c1.4-0.1,2.7,0.4,3.6,1.4c0.9,1.1,1.4,2.5,1.3,3.9c0.1,1.5-0.4,3-1.5,4.1C1082.6,7125.2,1081.2,7125.7,1079.7,7125.6L1079.7,7125.6
		z M1080,7117.3c-1.4,0-2.1,1-2.1,3c0,1.9,0.7,2.8,2,2.8c1.4,0,2.1-1,2.1-2.9C1082,7118.2,1081.3,7117.3,1080,7117.3z M1095.1,7115
		l-13.7,21h-3.6l13.7-21H1095.1z M1092.8,7136.3c-1.4,0.1-2.7-0.5-3.6-1.4c-0.9-1-1.4-2.4-1.4-3.8c-0.1-1.5,0.4-3,1.5-4.2
		c1-1,2.4-1.6,3.9-1.5c1.4-0.1,2.7,0.4,3.6,1.4c0.9,1.1,1.4,2.5,1.3,3.9c0.1,1.5-0.4,3-1.4,4.1
		C1095.7,7135.8,1094.2,7136.4,1092.8,7136.3z M1093,7127.9c-1.4,0-2.1,1-2.1,3c0,1.9,0.7,2.8,2.1,2.8c1.4,0,2.1-1,2.1-2.9
		c0-0.7-0.1-1.5-0.6-2.1C1094.2,7128.2,1093.6,7127.9,1093,7127.9z"/>
	<g class="st5">
		<path d="M1432.5,7069.3c0-4.1,2.9-6.2,6.1-6.2c1.3,0,2.3,0.2,3.2,0.6v3h-0.1l-0.9-1.7c-0.6-0.6-1.4-1-2.5-1
			c-2.5,0-4.1,2.2-4.1,5.2c0,3.5,1.9,5.3,4.2,5.3c1,0,1.9-0.3,2.6-0.9l1-2.3h0.1v3.2c-0.8,0.5-2.2,0.9-3.7,0.9
			C1435,7075.3,1432.5,7073,1432.5,7069.3z"/>
		<path d="M1450.4,7074.2v0.8h-2.4v-0.7c-0.8,0.6-1.6,0.9-2.4,0.9c-1.1,0-1.8-0.7-1.8-1.7c0-1.7,1.7-2.3,4.2-2.4v-0.6
			c0-1.4-0.3-2.1-1.6-2.1c-0.8,0-1.5,0.3-2.1,0.7l-0.2-0.4c0.8-0.8,1.7-1.2,2.8-1.2c1.5,0,2.4,0.8,2.4,2.4v4.3l0.1,0.1H1450.4z
			 M1447.9,7073.9v-2.3c-1.5,0.1-2.9,0.4-2.9,1.6c0,0.7,0.5,1,1.2,1C1446.8,7074.2,1447.4,7074.1,1447.9,7073.9z"/>
		<path d="M1460,7074.2v0.8h-3.7v-0.8h1.2l0.1-0.1v-3.4c0-1.5-0.3-2.1-1.7-2.1c-0.7,0-1.3,0.1-2,0.3v5.3l0.1,0.1h1.2v0.8h-3.7v-0.8
			h1.1l0.1-0.1v-4.9l-1.2-0.6v-0.1l2.2-1.1l0.1,0.1l0.1,1c1.1-0.7,1.9-1.1,2.6-1.1c1.6,0,2.3,0.8,2.3,2.1v4.6l0.1,0.1H1460z"/>
		<path d="M1467.8,7074.2v0.8h-2.4v-0.7c-0.8,0.6-1.6,0.9-2.4,0.9c-1.1,0-1.8-0.7-1.8-1.7c0-1.7,1.7-2.3,4.2-2.4v-0.6
			c0-1.4-0.3-2.1-1.6-2.1c-0.8,0-1.5,0.3-2.1,0.7l-0.2-0.4c0.8-0.8,1.7-1.2,2.8-1.2c1.5,0,2.4,0.8,2.4,2.4v4.3l0.1,0.1H1467.8z
			 M1465.3,7073.9v-2.3c-1.5,0.1-2.9,0.4-2.9,1.6c0,0.7,0.5,1,1.2,1C1464.2,7074.2,1464.8,7074.1,1465.3,7073.9z"/>
		<path d="M1477.2,7074.2v0.8h-2.5v-0.9c-0.9,0.5-1.8,1-2.8,1c-1.8,0-2.8-1.8-2.8-3.7c0-2.1,1.2-4.1,3.7-4.1c0.8,0,1.4,0.1,1.9,0.4
			v-4l-1.2-0.6v-0.1l2.4-1.1l0.1,0.1v12l0.1,0.1H1477.2z M1474.6,7073.8v-4.6c-0.3-0.7-1.1-1.1-2.1-1.1c-1.6,0-2.2,1.2-2.2,3
			c0,1.7,0.6,3,2.2,3C1473.3,7074.1,1474.2,7074,1474.6,7073.8z"/>
		<path d="M1484.9,7074.2v0.8h-2.4v-0.7c-0.8,0.6-1.6,0.9-2.4,0.9c-1.1,0-1.8-0.7-1.8-1.7c0-1.7,1.7-2.3,4.2-2.4v-0.6
			c0-1.4-0.3-2.1-1.6-2.1c-0.8,0-1.5,0.3-2.1,0.7l-0.2-0.4c0.8-0.8,1.7-1.2,2.8-1.2c1.5,0,2.4,0.8,2.4,2.4v4.3l0.1,0.1H1484.9z
			 M1482.5,7073.9v-2.3c-1.5,0.1-2.9,0.4-2.9,1.6c0,0.7,0.5,1,1.2,1C1481.3,7074.2,1482,7074.1,1482.5,7073.9z"/>
	</g>
	<rect id="Rectangle_770" x="1431.6" y="7044.4" class="st3" width="36" height="8"/>
	<path id="_8_" d="M1373.5,7065.3c0-0.6,0.1-1.1,0.3-1.7c0.2-0.5,0.4-1.1,0.8-1.5c0.4-0.5,0.8-0.9,1.3-1.2c0.6-0.4,1.2-0.7,1.8-0.9
		c-1-0.5-1.8-1.2-2.5-2c-0.6-0.8-0.9-1.8-0.9-2.7c0-0.8,0.2-1.5,0.5-2.2c0.3-0.7,0.8-1.3,1.4-1.8c0.6-0.5,1.4-0.9,2.1-1.2
		c0.9-0.3,1.8-0.4,2.7-0.4c0.9,0,1.9,0.1,2.7,0.4c0.8,0.3,1.5,0.6,2.1,1.2c0.6,0.5,1.1,1.1,1.4,1.8c0.3,0.7,0.5,1.4,0.5,2.2
		c0,1-0.3,1.9-0.9,2.7c-0.7,0.9-1.6,1.6-2.6,2c0.6,0.2,1.2,0.5,1.8,0.9c0.5,0.3,0.9,0.8,1.3,1.3c0.3,0.5,0.6,1,0.8,1.5
		c0.2,0.6,0.3,1.1,0.3,1.7c0,0.8-0.2,1.7-0.5,2.5c-0.4,0.7-0.9,1.4-1.5,1.9c-0.7,0.6-1.5,1-2.4,1.2c-1,0.3-2,0.4-3,0.4
		c-1,0-2-0.1-3-0.4c-0.9-0.3-1.7-0.7-2.4-1.2c-0.6-0.5-1.2-1.2-1.5-1.9C1373.7,7067,1373.5,7066.2,1373.5,7065.3z M1377.9,7064.9
		c0,0.4,0.1,0.9,0.2,1.3c0.1,0.4,0.4,0.7,0.6,1c0.3,0.3,0.6,0.5,1,0.6c0.4,0.1,0.8,0.2,1.3,0.2c0.4,0,0.8-0.1,1.2-0.2
		c0.4-0.1,0.7-0.3,1-0.6c0.3-0.3,0.5-0.6,0.6-1c0.2-0.4,0.2-0.8,0.2-1.3c0-0.4-0.1-0.8-0.2-1.2c-0.1-0.4-0.4-0.7-0.6-1
		c-0.3-0.3-0.6-0.5-1-0.7c-0.4-0.2-0.8-0.3-1.3-0.2c-0.4,0-0.8,0.1-1.2,0.2c-0.4,0.1-0.7,0.4-1,0.6c-0.3,0.3-0.5,0.6-0.6,1
		C1378,7064.1,1377.9,7064.5,1377.9,7064.9L1377.9,7064.9z M1378.6,7055.6c0,0.4,0.1,0.7,0.2,1c0.1,0.3,0.3,0.6,0.5,0.9
		c0.2,0.2,0.5,0.4,0.8,0.6c0.3,0.1,0.6,0.2,1,0.2c0.3,0,0.7-0.1,1-0.2c0.3-0.1,0.6-0.3,0.8-0.6c0.2-0.2,0.4-0.5,0.5-0.9
		c0.1-0.3,0.2-0.7,0.2-1c0-0.4-0.1-0.7-0.2-1.1c-0.1-0.3-0.3-0.6-0.5-0.9c-0.2-0.2-0.5-0.4-0.8-0.6c-0.3-0.1-0.6-0.2-1-0.2
		c-0.4,0-0.7,0.1-1,0.2c-0.3,0.1-0.6,0.3-0.8,0.6c-0.2,0.2-0.4,0.5-0.5,0.9C1378.6,7054.9,1378.6,7055.3,1378.6,7055.6
		L1378.6,7055.6z M1395.9,7060.6c-1.4,0.1-2.7-0.5-3.6-1.4c-0.9-1-1.4-2.4-1.4-3.8c-0.1-1.5,0.4-3,1.5-4.2c1-1,2.4-1.6,3.9-1.5
		c1.4-0.1,2.7,0.4,3.6,1.4c0.9,1.1,1.4,2.5,1.3,3.9c0.1,1.5-0.4,3-1.4,4.1C1398.8,7060.2,1397.4,7060.7,1395.9,7060.6L1395.9,7060.6
		z M1396.2,7052.3c-1.4,0-2.1,1-2.1,3c0,1.9,0.7,2.8,2,2.8c1.4,0,2.1-1,2.1-2.9C1398.2,7053.2,1397.5,7052.3,1396.2,7052.3
		L1396.2,7052.3z M1411.2,7050l-13.7,21h-3.6l13.7-21L1411.2,7050z M1409,7071.3c-1.4,0.1-2.7-0.5-3.6-1.4c-0.9-1-1.4-2.4-1.4-3.8
		c-0.1-1.5,0.4-3,1.5-4.2c1-1,2.4-1.6,3.9-1.5c1.4-0.1,2.7,0.4,3.6,1.4c0.9,1.1,1.4,2.5,1.3,3.9c0.1,1.5-0.4,3-1.4,4.1
		C1411.8,7070.8,1410.4,7071.4,1409,7071.3z M1409.2,7062.9c-1.4,0-2.1,1-2.1,3c0,1.9,0.7,2.8,2.1,2.8c1.4,0,2.1-1,2.1-2.9
		c0-0.7-0.1-1.5-0.6-2.1C1410.4,7063.2,1409.8,7062.9,1409.2,7062.9z"/>
	<g class="st5">
		<path d="M1125.6,7072l-0.2,3h-8.4v-0.8h1.4l0.1-0.1v-9.7l-1.5-0.9v-0.2h8.1v3h-0.1l-1.2-2.2h-3.9v4.3h3l0.1-0.1v-1.4h0.8v3.7h-0.8
			v-1.4l-0.1-0.1h-3v5h4.1L1125.6,7072L1125.6,7072z"/>
		<path d="M1135.3,7074.2v0.8h-2.4v-0.9c-1,0.6-1.8,1-2.5,1c-1.6,0-2.3-0.8-2.3-2.1v-3.8l-1.2-0.6v-0.1l2.4-1.1l0.1,0.1v4.4
			c0,1.5,0.3,2.1,1.6,2.1c0.6,0,1.3-0.1,1.9-0.3v-4.5l-1.2-0.6v-0.1l2.4-1.1l0.1,0.1v6.6l0.1,0.1H1135.3z"/>
		<path d="M1141.7,7067.6v1.3c-0.3-0.1-0.6-0.1-0.9-0.1c-0.5,0-1.2,0.1-1.9,0.3v5.1l0.1,0.1h1.3v0.8h-3.9v-0.8h1.1l0.1-0.1v-4.9
			l-1.2-0.6v-0.1l2.2-1.1l0.1,0.1l0.2,1.2c0.8-0.6,1.8-1.3,2.4-1.3C1141.4,7067.4,1141.5,7067.5,1141.7,7067.6z"/>
		<path d="M1142.4,7071.5c0-2.1,1.4-4,3.8-4c2,0,3.6,1.4,3.6,3.7c0,2.1-1.4,4-3.8,4C1144,7075.2,1142.4,7073.8,1142.4,7071.5z
			 M1148.4,7071.6c0-2-1.1-3.5-2.5-3.5c-1.2,0-2.1,0.9-2.1,2.8c0,1.9,1,3.5,2.5,3.5C1147.5,7074.5,1148.4,7073.5,1148.4,7071.6z"/>
		<path d="M1159.1,7071.1c0,2.1-1.4,4.1-3.7,4.1c-0.8,0-1.4-0.2-1.8-0.4v3.5l0.1,0.1h1.4v0.8h-3.9v-0.8h1.1l0.1-0.1v-9l-1.2-0.6
			v-0.1l2.2-1.1l0.1,0.1l0.2,1c0.9-0.6,1.7-1.1,2.7-1.1C1158,7067.4,1159.1,7069.2,1159.1,7071.1z M1157.7,7071.5c0-1.7-0.6-3-2.2-3
			c-0.7,0-1.5,0.2-2,0.3v4.5c0.3,0.7,1.1,1.1,2,1.1C1156.9,7074.5,1157.7,7073.3,1157.7,7071.5z"/>
		<path d="M1166.9,7071h-5c0,2.4,1.2,3.2,2.9,3.2c0.7,0,1.3-0.2,1.9-0.5l0.2,0.4c-0.7,0.6-1.7,1-2.8,1c-2.2,0-3.5-1.7-3.5-3.7
			c0-2.6,1.9-4.1,3.5-4.1c1.5,0,2.8,0.9,2.8,3C1166.9,7070.6,1166.9,7070.8,1166.9,7071z M1162,7070.3h3.6c0-1.5-0.6-2.2-1.6-2.2
			C1163.1,7068.2,1162.1,7068.7,1162,7070.3z"/>
	</g>
	<rect id="Rectangle_760" x="1116" y="7048" class="st1" width="36" height="8"/>
	<g class="st5">
		<path d="M1118.3,7009.3v-5.9l-1.5-0.9v-0.2h4.6v0.2l-1.6,0.9v5.8c0,2.8,0.9,4.2,3.2,4.2c2.4,0,3.3-1.4,3.3-4.2v-5.8l-1.6-0.9v-0.2
			h4.1v0.2l-1.5,0.9v5.9c0,3.2-1.5,5-4.4,5C1119.6,7014.3,1118.3,7012.9,1118.3,7009.3z"/>
		<path d="M1137.9,7013.2v0.8h-3.7v-0.8h1.2l0.1-0.1v-3.4c0-1.5-0.3-2.1-1.7-2.1c-0.7,0-1.3,0.1-2,0.3v5.3l0.1,0.1h1.2v0.8h-3.7
			v-0.8h1.1l0.1-0.1v-4.9l-1.2-0.6v-0.1l2.2-1.1l0.1,0.1l0.1,1c1.1-0.7,1.9-1.1,2.6-1.1c1.6,0,2.3,0.8,2.3,2.1v4.6l0.1,0.1H1137.9z"
			/>
		<path d="M1139,7013.2h1.1l0.1-0.1v-4.9l-1.2-0.6v-0.1l2.4-1.1l0.1,0.1v6.6l0.1,0.1h1.1v0.8h-3.6V7013.2z M1139.7,7003.6
			c0-0.5,0.5-1,1-1c0.5,0,1,0.5,1,1c0,0.5-0.5,1-1,1C1140.2,7004.6,1139.7,7004.1,1139.7,7003.6z"/>
		<path d="M1144.6,7011.9v-4.3l-0.1-0.1h-1.1v-0.1l2.3-3.1h0.1v2.4h2.4v0.8h-2.4v3.4c0,1.8,0.3,2.4,1.3,2.4c0.4,0,0.8-0.1,1.2-0.2
			l0.2,0.4c-0.5,0.3-1.3,0.7-2.1,0.7C1145.2,7014.2,1144.6,7013.6,1144.6,7011.9z"/>
		<path d="M1155.8,7010h-5c0,2.4,1.2,3.2,2.9,3.2c0.7,0,1.4-0.2,1.9-0.5l0.2,0.4c-0.7,0.6-1.7,1-2.8,1c-2.2,0-3.5-1.7-3.5-3.7
			c0-2.6,1.9-4.1,3.5-4.1c1.5,0,2.8,0.9,2.8,3C1155.9,7009.6,1155.9,7009.8,1155.8,7010z M1150.9,7009.3h3.6c0-1.5-0.6-2.2-1.6-2.2
			C1152,7007.2,1151.1,7007.7,1150.9,7009.3z"/>
		<path d="M1165.4,7013.2v0.8h-2.5v-0.9c-0.9,0.5-1.8,1-2.8,1c-1.8,0-2.8-1.8-2.8-3.7c0-2.1,1.2-4.1,3.7-4.1c0.8,0,1.4,0.1,1.9,0.4
			v-4l-1.2-0.6v-0.1l2.4-1.1l0.1,0.1v12l0.1,0.1H1165.4z M1162.8,7012.8v-4.6c-0.3-0.7-1.1-1.1-2.1-1.1c-1.6,0-2.2,1.2-2.2,3
			c0,1.7,0.6,3,2.2,3C1161.5,7013.1,1162.4,7013,1162.8,7012.8z"/>
		<path d="M1170.9,7013.3v-2.7h0.1l1,1.7c0.7,0.7,1.5,1,2.4,1c1.2,0,2.1-0.7,2.1-1.9c0-1.2-0.7-1.9-2.5-2.8c-1.7-0.9-3-1.7-3-3.6
			c0-1.7,1.4-3.1,3.4-3.1c1.3,0,2.1,0.3,2.9,0.8v2.6h-0.1l-1-1.7c-0.5-0.5-1.1-0.8-1.9-0.8c-1.1,0-2,0.7-2,1.8
			c0,2.2,3.1,2.6,4.6,4.2c0.5,0.6,0.9,1.3,0.9,2.2c0,1.8-1.5,3.1-3.5,3.1C1173.1,7014.3,1171.9,7013.9,1170.9,7013.3z"/>
		<path d="M1180.1,7011.9v-4.3l-0.1-0.1h-1.1v-0.1l2.3-3.1h0.1v2.4h2.4v0.8h-2.4v3.4c0,1.8,0.3,2.4,1.3,2.4c0.4,0,0.8-0.1,1.2-0.2
			l0.2,0.4c-0.5,0.3-1.3,0.7-2.1,0.7C1180.7,7014.2,1180.1,7013.6,1180.1,7011.9z"/>
		<path d="M1191.5,7013.2v0.8h-2.4v-0.7c-0.8,0.6-1.6,0.9-2.4,0.9c-1.1,0-1.8-0.7-1.8-1.7c0-1.7,1.7-2.3,4.2-2.4v-0.6
			c0-1.4-0.3-2.1-1.6-2.1c-0.8,0-1.5,0.3-2.1,0.7l-0.2-0.4c0.8-0.8,1.7-1.2,2.8-1.2c1.5,0,2.4,0.8,2.4,2.4v4.3l0.1,0.1H1191.5z
			 M1189.1,7012.9v-2.3c-1.5,0.1-2.9,0.4-2.9,1.6c0,0.7,0.5,1,1.2,1C1187.9,7013.2,1188.6,7013.1,1189.1,7012.9z"/>
		<path d="M1193.5,7011.9v-4.3l-0.1-0.1h-1.1v-0.1l2.3-3.1h0.1v2.4h2.4v0.8h-2.4v3.4c0,1.8,0.3,2.4,1.3,2.4c0.5,0,0.8-0.1,1.2-0.2
			l0.2,0.4c-0.5,0.3-1.3,0.7-2.1,0.7C1194.1,7014.2,1193.5,7013.6,1193.5,7011.9z"/>
		<path d="M1204.7,7010h-5c0,2.4,1.2,3.2,2.9,3.2c0.7,0,1.4-0.2,1.9-0.5l0.2,0.4c-0.7,0.6-1.7,1-2.8,1c-2.2,0-3.5-1.7-3.5-3.7
			c0-2.6,1.9-4.1,3.5-4.1c1.5,0,2.8,0.9,2.8,3C1204.8,7009.6,1204.7,7009.8,1204.7,7010z M1199.8,7009.3h3.6c0-1.5-0.6-2.2-1.6-2.2
			C1200.9,7007.2,1200,7007.7,1199.8,7009.3z"/>
		<path d="M1206.2,7013.7v-1.9h0.1l0.9,1c0.4,0.4,0.9,0.6,1.4,0.6c0.7,0,1.2-0.4,1.2-1c0-0.9-0.9-1.2-1.8-1.7
			c-1.1-0.6-1.8-1.2-1.8-2.3c0-1.2,1-2.1,2.6-2.1c0.7,0,1.4,0.1,1.9,0.3v1.8h-0.1l-0.9-1c-0.3-0.3-0.7-0.5-1.2-0.5
			c-0.7,0-1.2,0.4-1.2,1c0,0.8,0.8,1.2,1.7,1.7c0.9,0.5,1.9,1,1.9,2.3c0,1.3-1.1,2.1-2.5,2.1
			C1207.6,7014.2,1206.9,7014,1206.2,7013.7z"/>
	</g>
	<rect id="Rectangle_759" x="1116" y="6987" class="st0" width="36" height="8"/>
	<path id="_51_" d="M1042.5,7009.5v-4c1.4,0.9,3,1.3,4.6,1.3c1,0.1,2-0.2,2.9-0.9c0.7-0.6,1.1-1.5,1-2.4c0-2.1-1.5-3.1-4.4-3.1
		c-1.3,0-2.5,0.1-3.8,0.2l0.8-11.7h11.1v3.8h-7.6l-0.3,4.2c0.8-0.1,1.4-0.1,1.9-0.1c1.8-0.1,3.7,0.5,5.1,1.7
		c1.2,1.2,1.9,2.9,1.8,4.6c0.1,2-0.7,3.9-2.2,5.2c-1.6,1.4-3.8,2.1-5.9,2C1045.9,7010.4,1044.1,7010.1,1042.5,7009.5z
		 M1069.9,6988.5v21.5h-4.6v-16.3c-0.3,0.2-0.6,0.5-0.9,0.6c-0.4,0.2-0.7,0.4-1.1,0.5c-0.4,0.2-0.8,0.3-1.2,0.4
		c-0.4,0.1-0.8,0.2-1.2,0.2v-3.9c1.2-0.3,2.3-0.8,3.4-1.3c1-0.5,2-1.1,2.9-1.8L1069.9,6988.5z M1081.3,6999.6
		c-1.4,0.1-2.7-0.5-3.6-1.4c-0.9-1-1.4-2.4-1.4-3.8c-0.1-1.5,0.4-3,1.5-4.2c1-1,2.4-1.6,3.9-1.5c1.4-0.1,2.7,0.4,3.6,1.4
		c0.9,1.1,1.4,2.5,1.3,3.9c0.1,1.5-0.4,3-1.5,4.1C1084.1,6999.2,1082.7,6999.7,1081.3,6999.6z M1081.5,6991.3c-1.4,0-2.1,1-2.1,3
		c0,1.9,0.7,2.8,2,2.8c1.4,0,2.1-1,2.1-2.9C1083.5,6992.2,1082.9,6991.3,1081.5,6991.3L1081.5,6991.3z M1096.6,6989l-13.7,21h-3.6
		l13.7-21L1096.6,6989z M1094.3,7010.3c-1.4,0.1-2.7-0.5-3.6-1.4c-0.9-1-1.4-2.4-1.4-3.8c-0.1-1.5,0.4-3,1.5-4.2
		c1-1,2.4-1.6,3.9-1.5c1.4-0.1,2.7,0.4,3.6,1.4c0.9,1.1,1.4,2.5,1.3,3.9c0.1,1.5-0.4,3-1.4,4.1
		C1097.2,7009.8,1095.8,7010.4,1094.3,7010.3z M1094.6,7001.9c-1.4,0-2.1,1-2.1,3c0,1.9,0.7,2.8,2.1,2.8c1.4,0,2.1-1,2.1-2.9
		c0-0.7-0.1-1.5-0.6-2.1C1095.7,7002.2,1095.2,7001.9,1094.6,7001.9z"/>
	<path id="_18_" d="M1051.1,7049.5v21.5h-4.6v-16.3c-0.3,0.2-0.6,0.5-0.9,0.6c-0.4,0.2-0.7,0.4-1.1,0.5c-0.4,0.2-0.8,0.3-1.2,0.4
		c-0.4,0.1-0.8,0.2-1.2,0.2v-3.9c1.2-0.3,2.3-0.8,3.4-1.3c1-0.5,2-1.1,2.9-1.8L1051.1,7049.5z M1057.3,7065.3c0-0.6,0.1-1.1,0.3-1.7
		c0.2-0.5,0.4-1.1,0.8-1.5c0.4-0.5,0.8-0.9,1.3-1.2c0.6-0.4,1.2-0.7,1.8-0.9c-1-0.5-1.8-1.2-2.5-2c-0.6-0.8-0.9-1.8-0.9-2.7
		c0-0.8,0.2-1.5,0.5-2.2c0.3-0.7,0.8-1.3,1.4-1.8c0.6-0.5,1.4-0.9,2.1-1.2c0.9-0.3,1.8-0.4,2.7-0.4c0.9,0,1.9,0.1,2.7,0.4
		c0.8,0.3,1.5,0.6,2.1,1.2c0.6,0.5,1.1,1.1,1.4,1.8c0.3,0.7,0.5,1.4,0.5,2.2c0,1-0.3,1.9-0.9,2.7c-0.7,0.9-1.6,1.6-2.6,2
		c0.6,0.2,1.2,0.5,1.8,0.9c0.5,0.3,0.9,0.8,1.3,1.3c0.3,0.5,0.6,1,0.8,1.5c0.2,0.6,0.3,1.1,0.3,1.7c0,0.8-0.2,1.7-0.5,2.5
		c-0.4,0.7-0.9,1.4-1.5,1.9c-0.7,0.6-1.5,1-2.4,1.2c-1,0.3-2,0.5-3,0.4c-1,0-2-0.1-3-0.4c-0.9-0.3-1.7-0.7-2.4-1.2
		c-0.6-0.5-1.2-1.2-1.5-1.9C1057.5,7067,1057.3,7066.2,1057.3,7065.3L1057.3,7065.3z M1061.7,7064.9c0,0.4,0.1,0.9,0.2,1.3
		c0.1,0.4,0.4,0.7,0.6,1c0.3,0.3,0.6,0.5,1,0.6c0.4,0.1,0.8,0.2,1.3,0.2c0.4,0,0.8-0.1,1.2-0.2c0.4-0.1,0.7-0.3,1-0.6
		c0.3-0.3,0.5-0.6,0.6-1c0.2-0.4,0.2-0.8,0.2-1.3c0-0.4-0.1-0.8-0.2-1.2c-0.1-0.4-0.4-0.7-0.6-1c-0.3-0.3-0.6-0.5-1-0.7
		c-0.4-0.2-0.8-0.3-1.3-0.2c-0.4,0-0.8,0.1-1.2,0.2c-0.4,0.1-0.7,0.4-1,0.6c-0.3,0.3-0.5,0.6-0.6,1
		C1061.8,7064.1,1061.7,7064.5,1061.7,7064.9L1061.7,7064.9z M1062.4,7055.6c0,0.4,0.1,0.7,0.2,1c0.1,0.3,0.3,0.6,0.5,0.9
		c0.2,0.2,0.5,0.4,0.8,0.6c0.3,0.1,0.6,0.2,1,0.2c0.3,0,0.7-0.1,1-0.2c0.3-0.1,0.6-0.3,0.8-0.6c0.2-0.2,0.4-0.5,0.5-0.9
		c0.1-0.3,0.2-0.7,0.2-1c0-0.4-0.1-0.7-0.2-1.1c-0.1-0.3-0.3-0.6-0.5-0.9c-0.2-0.2-0.5-0.4-0.8-0.6c-0.3-0.1-0.6-0.2-1-0.2
		c-0.4,0-0.7,0.1-1,0.2c-0.3,0.1-0.6,0.3-0.8,0.6c-0.2,0.2-0.4,0.5-0.5,0.9C1062.4,7054.9,1062.4,7055.3,1062.4,7055.6
		L1062.4,7055.6z M1079.7,7060.6c-1.4,0.1-2.7-0.5-3.6-1.4c-0.9-1-1.4-2.4-1.4-3.8c-0.1-1.5,0.4-3,1.5-4.2c1-1,2.4-1.6,3.9-1.5
		c1.4-0.1,2.7,0.4,3.6,1.4c0.9,1.1,1.4,2.5,1.3,3.9c0.1,1.5-0.4,3-1.5,4.1C1082.6,7060.2,1081.2,7060.7,1079.7,7060.6L1079.7,7060.6
		z M1080,7052.3c-1.4,0-2.1,1-2.1,3c0,1.9,0.7,2.8,2,2.8c1.4,0,2.1-1,2.1-2.9C1082,7053.2,1081.3,7052.3,1080,7052.3L1080,7052.3z
		 M1095.1,7050l-13.7,21h-3.6l13.7-21L1095.1,7050z M1092.8,7071.3c-1.4,0.1-2.7-0.5-3.6-1.4c-0.9-1-1.4-2.4-1.4-3.8
		c-0.1-1.5,0.4-3,1.5-4.2c1-1,2.4-1.6,3.9-1.5c1.4-0.1,2.7,0.4,3.6,1.4c0.9,1.1,1.4,2.5,1.3,3.9c0.1,1.5-0.4,3-1.4,4.1
		C1095.7,7070.8,1094.2,7071.4,1092.8,7071.3z M1093,7062.9c-1.4,0-2.1,1-2.1,3c0,1.9,0.7,2.8,2.1,2.8c1.4,0,2.1-1,2.1-2.9
		c0-0.7-0.1-1.5-0.6-2.1C1094.2,7063.2,1093.6,7062.9,1093,7062.9z"/>
	<g class="st5">
		<path d="M1445.6,7013.2v0.8h-3.6v-0.8h0.9l0.1-0.1l-1.1-3.2h-3.9l-1.2,3.2l0.1,0.1h1.3v0.8h-3.7v-0.8h1.2l0.1-0.1l4.1-10.9h0.7
			l3.9,10.9l0.1,0.1H1445.6z M1441.6,7009.1l-1.6-4.8h0l-1.7,4.8H1441.6z"/>
		<path d="M1450,7009.4v3.7l0.1,0.1h1.7v0.8h-4.7v-0.8h1.3l0.1-0.1v-9.7l-1.5-0.9v-0.2h4.3c2.7,0,4.3,1.1,4.3,3.2
			c0,2.5-2.1,3.9-4.8,3.9H1450z M1450,7003.1v5.4h0.9c1.9,0,3.2-1,3.2-2.9c0-1.9-1.4-2.5-3-2.5H1450z"/>
		<path d="M1466.6,7013.2v0.8h-3.6v-0.8h0.9l0.1-0.1l-1.1-3.2h-3.9l-1.2,3.2l0.1,0.1h1.3v0.8h-3.7v-0.8h1.2l0.1-0.1l4.1-10.9h0.7
			l3.9,10.9l0.1,0.1H1466.6z M1462.5,7009.1l-1.6-4.8h0l-1.7,4.8H1462.5z"/>
		<path d="M1467.6,7008.3c0-4.1,2.9-6.2,6.1-6.2c1.3,0,2.3,0.2,3.2,0.6v3h-0.1l-0.9-1.7c-0.6-0.6-1.4-1-2.5-1
			c-2.5,0-4.1,2.2-4.1,5.2c0,3.5,1.9,5.3,4.2,5.3c1,0,1.9-0.3,2.6-0.9l1-2.3h0.1v3.2c-0.8,0.5-2.2,0.9-3.7,0.9
			C1470.1,7014.3,1467.6,7012,1467.6,7008.3z"/>
	</g>
	<rect id="Rectangle_762" x="1434" y="6987" class="st2" width="36" height="8"/>
	<path id="_11_" d="M1372.3,6988.5v21.5h-4.6v-16.3c-0.3,0.2-0.6,0.5-0.9,0.6c-0.4,0.2-0.7,0.4-1.1,0.5c-0.4,0.2-0.8,0.3-1.2,0.4
		c-0.4,0.1-0.8,0.2-1.2,0.2v-3.9c1.2-0.3,2.3-0.8,3.4-1.3c1-0.5,2-1.1,2.9-1.8L1372.3,6988.5z M1389.6,6988.5v21.5h-4.6v-16.3
		c-0.3,0.2-0.6,0.5-0.9,0.6c-0.4,0.2-0.7,0.4-1.1,0.5c-0.4,0.2-0.8,0.3-1.2,0.4c-0.4,0.1-0.8,0.2-1.2,0.2v-3.9
		c1.2-0.3,2.3-0.8,3.4-1.3c1-0.5,2-1.1,2.9-1.8L1389.6,6988.5z M1401,6999.6c-1.4,0.1-2.7-0.5-3.6-1.4c-0.9-1-1.4-2.4-1.4-3.8
		c-0.1-1.5,0.4-3,1.5-4.2c1-1,2.4-1.6,3.9-1.5c1.4-0.1,2.7,0.4,3.6,1.4c0.9,1.1,1.4,2.5,1.3,3.9c0.1,1.5-0.4,3-1.5,4.1
		C1403.8,6999.2,1402.4,6999.7,1401,6999.6z M1401.2,6991.3c-1.4,0-2.1,1-2.1,3c0,1.9,0.7,2.8,2,2.8c1.4,0,2.1-1,2.1-2.9
		C1403.2,6992.2,1402.6,6991.3,1401.2,6991.3L1401.2,6991.3z M1416.3,6989l-13.7,21h-3.6l13.7-21L1416.3,6989z M1414,7010.3
		c-1.4,0.1-2.7-0.5-3.6-1.4c-0.9-1-1.4-2.4-1.4-3.8c-0.1-1.5,0.4-3,1.5-4.2c1-1,2.4-1.6,3.9-1.5c1.4-0.1,2.7,0.4,3.6,1.4
		c0.9,1.1,1.4,2.5,1.3,3.9c0.1,1.5-0.4,3-1.4,4.1C1416.9,7009.8,1415.5,7010.4,1414,7010.3z M1414.3,7001.9c-1.4,0-2.1,1-2.1,3
		c0,1.9,0.7,2.8,2.1,2.8c1.4,0,2.1-1,2.1-2.9c0-0.7-0.1-1.5-0.6-2.1C1415.4,7002.2,1414.9,7001.9,1414.3,7001.9z"/>
	<g class="st5">
		<path d="M831.8,7061.9c0,3.6-3.5,6.1-8.9,6.1h-6.8l0.2-1.3h2.1l0.2-0.2l2.9-16.2l-2.5-1.4l0.1-0.4h7c3.4,0,5.9,1.2,5.9,3.9
			c0,2.3-1.8,4.1-4.2,4.9C830.1,7058,831.8,7059.5,831.8,7061.9z M829.1,7061.6c0-2.6-1.9-3.4-4.8-3.4h-1.7l-1.5,8.4h1.7
			C827,7066.7,829.1,7064.6,829.1,7061.6z M824.1,7049.9l-1.2,7h1.9c2.9,0,4.6-1.6,4.6-4c0-2.2-1.6-3-4.1-3H824.1z"/>
		<path d="M845.2,7055.9L845.2,7055.9c-1.8,5.5-3.8,9.1-7.6,12.9l-4.9,6.4l-2.2-1.9l6-4.4l-1.7-10.4l-1.8-0.9l0.1-0.3l3.6-1.9
			l0.1,0.1l1.4,11.3c2.5-3.1,4.1-6.7,4.6-9.2l-1.6-1.6l0-0.1H845.2z"/>
		<path d="M867.4,7066.7l-0.2,1.3h-4.1l-4-8.5h-2l-1.2,7l0.1,0.2h3l-0.2,1.3h-7.8l0.2-1.3h2.1l0.2-0.2l2.9-16.2l-2.5-1.4l0.1-0.4
			h6.5c4.6,0,6.9,1.7,6.9,4.5c0,2.6-1.8,5.1-5.6,6.1l3.4,7.4l0.2,0.2H867.4z M858,7058.2c4.6,0,6.5-2.8,6.5-5.1c0-2.3-1.9-3.2-5-3.2
			h-0.8l-1.5,8.3C857.5,7058.2,857.7,7058.2,858,7058.2z"/>
		<path d="M876.9,7065.7l0.1,0.4c-1.5,1.4-3.2,2.2-4.8,2.2c-2.1,0-3.5-1.4-3.5-4.3c0-4.5,2.7-8.6,6.4-8.6c1.6,0,2.7,1,2.7,2.4
			c0,1.8-1.5,3.6-6.8,5v0.5c0,2.4,0.8,3.3,2.4,3.3C874.5,7066.6,875.9,7066.2,876.9,7065.7z M871.1,7061.7c3.3-0.9,4.5-2.3,4.5-4
			c0-0.8-0.4-1.3-1.1-1.3C873.2,7056.5,871.5,7058.5,871.1,7061.7z"/>
		<path d="M891.2,7057.9l-2.5-0.5c0.2,0.4,0.3,1,0.3,1.6c0,3.1-2.3,5.7-5.7,5.7h0c-0.9,0.2-1.6,0.6-1.6,1.2c0,0.5,0.6,0.8,1.6,1.1
			l1.9,0.7c2.2,0.8,3.3,1.5,3.3,2.8c0,2.5-3.2,4.4-7.2,4.4c-2.9,0-4.9-0.9-4.9-2.8c0-1.8,1.8-3.2,4.2-3.9c-0.5-0.3-0.8-0.8-0.8-1.4
			c0-1,1-1.9,2.4-2.3c-1.6-0.4-2.6-1.6-2.6-3.6c0-3,2.2-5.6,5.8-5.6c1.3,0,2.4,0.4,3,1.2l3.3-1.4L891.2,7057.9z M881.9,7069
			c-0.3-0.1-0.7-0.3-1-0.4c-1.8,0.8-2.6,1.9-2.6,3.1c0,1.4,1.3,2.1,3,2.1c2.5,0,5-0.9,5-2.3c0-0.8-0.9-1.1-3-1.9L881.9,7069z
			 M886.5,7059c0-1.1-0.4-2.5-1.8-2.5c-1.7,0-3,2-3,4.4c0,1.5,0.4,2.7,1.7,2.7C885.4,7063.6,886.5,7061.1,886.5,7059z"/>
		<path d="M892.5,7066.3c0-0.5,0.1-1.1,0.2-1.9l1.1-6l-1.8-0.9l0-0.3l4.2-1.9l0.1,0.1l-1.6,8.6c-0.1,0.4-0.1,0.8-0.1,1.2
			c0,0.9,0.4,1.3,1.3,1.3c0.4,0,0.9-0.1,1.4-0.3l0.1,0.4c-0.8,0.8-2.2,1.6-3.4,1.6C893,7068.3,892.5,7067.7,892.5,7066.3z
			 M894.4,7050.7c0.1-0.9,0.8-1.7,1.7-1.7c0.8,0,1.5,0.8,1.4,1.7c-0.1,0.9-0.8,1.6-1.6,1.6C895,7052.3,894.4,7051.5,894.4,7050.7z"
			/>
		<path d="M898.8,7063.6c0-4.3,2.8-8.2,6.5-8.2c2.3,0,4.1,1.7,4.1,4.7c0,4.2-2.8,8.2-6.5,8.2
			C900.6,7068.3,898.8,7066.6,898.8,7063.6z M907.1,7060.1c0-2.5-0.8-3.7-2.1-3.7c-2.1,0-3.9,3-3.9,7.1c0,2.5,0.8,3.7,2.1,3.7
			C905.4,7067.2,907.1,7064.2,907.1,7060.1z"/>
		<path d="M924,7066.7c-0.9,0.8-2.2,1.6-3.4,1.6c-1.1,0-1.8-0.6-1.8-2c0-0.5,0.1-1.1,0.2-1.9l1-4.8c0.3-1.5,0.2-2.5-1.1-2.5
			c-1.1,0-2.4,0.7-3.6,1.8l-1.6,9.1h-2.1l1.7-9.6l-1.8-0.9l0.1-0.3l4.1-1.9l0.1,0.1l-0.4,2.7c1.5-1.7,3.1-2.8,4.6-2.8
			c1.6,0,2.7,1.2,2.2,3.5l-1.1,5.3c-0.4,1.8,0.2,2.3,1.3,2.3c0.4,0,0.9-0.1,1.4-0.3L924,7066.7z"/>
	</g>
</g>
</svg>
