<svg xmlns="http://www.w3.org/2000/svg" width="708" height="199.998" viewBox="0 0 708 199.998">
  <g id="chart-respondent-3" transform="translate(-770 -7239)">
    <text id="By_ARR" data-name="By ARR" transform="translate(825.345 7350)" font-size="30" font-family="Bely-Italic, Bely" font-style="italic"><tspan x="0" y="0">By ARR</tspan></text>
    <g id="Group_298" data-name="Group 298" transform="translate(81 134)">
      <path id="Path_16216" data-name="Path 16216" d="M0-120A100,100,0,0,1,71.268-90.148,100,100,0,0,1,99.987-18.413l-20-.317A80,80,0,0,0,57.016-76.118,80,80,0,0,0,0-100Z" transform="translate(789 7225)" fill="#ff5b34"/>
      <path id="Path_16217" data-name="Path 16217" d="M106.4,1.84A100,100,0,0,1,46.508,91.865L38.489,73.543A80,80,0,0,0,86.4,1.523Z" transform="translate(782.585 7204.746)" fill="#004888"/>
      <path id="Path_16218" data-name="Path 16218" d="M36.933,106.269A100,100,0,0,1-18.96,113.4l3.16-19.749a80,80,0,0,0,44.715-5.706Z" transform="translate(792.16 7190.342)" fill="#ff9e15"/>
      <path id="Path_16219" data-name="Path 16219" d="M-33.121,106.744A100,100,0,0,1-103.923,58L-86.6,48A80,80,0,0,0-29.961,87Z" transform="translate(806.32 7197)" fill="#01ce7b"/>
      <path id="Path_16220" data-name="Path 16220" d="M-106.6,49.048A100,100,0,0,1-119.887-5.71l19.977.952A80,80,0,0,0-89.282,39.048Z" transform="translate(809 7205.952)" fill="#7cacd3"/>
      <path id="Path_16221" data-name="Path 16221" d="M-119.864-11.9a100,100,0,0,1,6.472-30.93l18.683,7.138a80,80,0,0,0-5.178,24.744Z" transform="translate(808.977 7212.138)" fill="#909c9c"/>
      <path id="Path_16222" data-name="Path 16222" d="M-112.1-51.01A100,100,0,0,1-82.962-91.925L-70.106-76.6A80,80,0,0,0-93.415-43.872Z" transform="translate(807.683 7220.321)" fill="#67e3e3"/>
      <path id="Path_16223" data-name="Path 16223" d="M-77.135-95.172A100,100,0,0,1-50.022-111.4l7.433,18.567a80,80,0,0,0-21.69,12.986Z" transform="translate(801.856 7223.567)" fill="#7d7aed"/>
      <path id="Path_16224" data-name="Path 16224" d="M-44.6-112.475a100,100,0,0,1,18.241-5.356l3.785,19.639a80,80,0,0,0-14.593,4.285Z" transform="translate(796.433 7224.639)" fill="#538dfa"/>
      <path id="Path_16225" data-name="Path 16225" d="M-22.71-118.153a100,100,0,0,1,12.583-1.606L-8.859-99.8a80,80,0,0,0-10.066,1.285Z" transform="translate(792.785 7224.96)" fill="#ac4bb4"/>
      <path id="Path_16226" data-name="Path 16226" d="M-7.611-119.8q3.167-.2,6.342-.2v20q-2.539,0-5.074.161Z" transform="translate(790.268 7225)" fill="#f5da0d"/>
    </g>
    <g id="Group_296" data-name="Group 296" transform="translate(17955 21422)">
      <text id="_20-30M" data-name="$20-30M" transform="translate(-16839 -14041)" font-size="18" font-family="Bely-Regular, Bely"><tspan x="0" y="0">$20-30M</tspan></text>
      <text id="_30-50M" data-name="$30-50M" transform="translate(-16699 -14041)" font-size="18" font-family="Bely-Regular, Bely"><tspan x="0" y="0">$30-50M</tspan></text>
      <text id="_50-75M" data-name="$50-75M" transform="translate(-16540 -14041)" font-size="18" font-family="Bely-Regular, Bely"><tspan x="0" y="0">$50-75M</tspan></text>
      <rect id="Rectangle_762" data-name="Rectangle 762" width="36" height="8" transform="translate(-16839 -14068)" fill="#fb9e15"/>
      <rect id="Rectangle_775" data-name="Rectangle 775" width="36" height="8" transform="translate(-16699 -14068)" fill="#fb9e15"/>
      <rect id="Rectangle_780" data-name="Rectangle 780" width="36" height="8" transform="translate(-16540 -14068)" fill="#fb9e15"/>
      <text id="_5-10M" data-name="$5-10M" transform="translate(-16839 -14092)" font-size="18" font-family="Bely-Regular, Bely"><tspan x="0" y="0">$5-10M</tspan></text>
      <text id="_10-15M" data-name="$10-15M" transform="translate(-16699 -14092)" font-size="18" font-family="Bely-Regular, Bely"><tspan x="0" y="0">$10-15M</tspan></text>
      <text id="_15-20M" data-name="$15-20M" transform="translate(-16540 -14092)" font-size="18" font-family="Bely-Regular, Bely"><tspan x="0" y="0">$15-20M</tspan></text>
      <rect id="Rectangle_760" data-name="Rectangle 760" width="36" height="8" transform="translate(-16839 -14119)" fill="#0c4888"/>
      <rect id="Rectangle_776" data-name="Rectangle 776" width="36" height="8" transform="translate(-16699 -14119)" fill="#0c4888"/>
      <rect id="Rectangle_781" data-name="Rectangle 781" width="36" height="8" transform="translate(-16540 -14119)" fill="#0c4888"/>
      <text id="_1M" data-name="&lt;$1M" transform="translate(-16839 -14143)" font-size="18" font-family="Bely-Regular, Bely"><tspan x="0" y="0">&lt;$1M</tspan></text>
      <text id="_1-2.5M" data-name="$1-2.5M" transform="translate(-16699 -14143)" font-size="18" font-family="Bely-Regular, Bely"><tspan x="0" y="0">$1-2.5M</tspan></text>
      <text id="_2.5-5M" data-name="$2.5-5M" transform="translate(-16540 -14143)" font-size="18" font-family="Bely-Regular, Bely"><tspan x="0" y="0">$2.5-5M</tspan></text>
      <text id="_75-100M" data-name="$75-100M" transform="translate(-16839 -13990)" font-size="18" font-family="Bely-Regular, Bely"><tspan x="0" y="0">$75-100M</tspan></text>
      <text id="_100-150M" data-name="$100-150M" transform="translate(-16699 -13990)" font-size="18" font-family="Bely-Regular, Bely"><tspan x="0" y="0">$100-150M</tspan></text>
      <text id="_150M" data-name="&gt;$150M" transform="translate(-16540 -13990)" font-size="18" font-family="Bely-Regular, Bely"><tspan x="0" y="0">&gt;$150M</tspan></text>
      <rect id="Rectangle_759" data-name="Rectangle 759" width="36" height="8" transform="translate(-16839 -14170)" fill="#f85b34"/>
      <rect id="Rectangle_777" data-name="Rectangle 777" width="36" height="8" transform="translate(-16699 -14170)" fill="#f85b34"/>
      <rect id="Rectangle_783" data-name="Rectangle 783" width="36" height="8" transform="translate(-16540 -14170)" fill="#f85b34"/>
      <rect id="Rectangle_772" data-name="Rectangle 772" width="36" height="8" transform="translate(-16839 -14017)" fill="#f85b34"/>
      <rect id="Rectangle_778" data-name="Rectangle 778" width="36" height="8" transform="translate(-16699 -14017)" fill="#f85b34"/>
      <rect id="Rectangle_782" data-name="Rectangle 782" width="36" height="8" transform="translate(-16540 -14017)" fill="#f85b34"/>
      <path id="_25_" data-name="25%" d="M6.284-3.838H15.19V0H1.216V-1.582a7.364,7.364,0,0,1,.542-2.893,9.6,9.6,0,0,1,1.362-2.3,11.817,11.817,0,0,1,1.794-1.8Q5.889-9.36,6.768-9.99q.923-.659,1.619-1.26a9.224,9.224,0,0,0,1.172-1.194,4.539,4.539,0,0,0,.71-1.2,3.572,3.572,0,0,0,.234-1.3,2.605,2.605,0,0,0-.762-2.036,3.386,3.386,0,0,0-2.329-.688,7.823,7.823,0,0,0-5.186,2.153v-4.072a11.131,11.131,0,0,1,6.182-1.772,9.129,9.129,0,0,1,2.864.417,6.059,6.059,0,0,1,2.146,1.194,5.092,5.092,0,0,1,1.34,1.882A6.352,6.352,0,0,1,15.22-15.4a6.96,6.96,0,0,1-.447,2.578,7.922,7.922,0,0,1-1.187,2.051A10.763,10.763,0,0,1,11.88-9.075q-.967.769-2.007,1.487-.7.5-1.355.989a12.846,12.846,0,0,0-1.15.967,5.248,5.248,0,0,0-.791.93A1.606,1.606,0,0,0,6.284-3.838Zm13.052,3.3V-4.5a8.635,8.635,0,0,0,4.585,1.318,4.307,4.307,0,0,0,2.864-.872,2.934,2.934,0,0,0,1.033-2.366q0-3.12-4.409-3.12a32.649,32.649,0,0,0-3.75.249l.791-11.719H31.567v3.779H23.979l-.293,4.2q1.128-.088,1.948-.088a7.164,7.164,0,0,1,5.068,1.7,5.934,5.934,0,0,1,1.831,4.57,6.746,6.746,0,0,1-2.183,5.193A8.386,8.386,0,0,1,24.434.366,12.663,12.663,0,0,1,19.336-.542Zm21.475-9.814A4.786,4.786,0,0,1,37.2-11.777,5.277,5.277,0,0,1,35.83-15.6a5.8,5.8,0,0,1,1.458-4.16A5.106,5.106,0,0,1,41.177-21.3a4.759,4.759,0,0,1,3.64,1.392A5.482,5.482,0,0,1,46.128-16a5.723,5.723,0,0,1-1.45,4.116A5.089,5.089,0,0,1,40.811-10.356Zm.278-8.364q-2.139,0-2.139,2.974,0,2.813,2.036,2.813,2.08,0,2.08-2.93Q43.066-18.721,41.089-18.721Zm15.059-2.285L42.466,0H38.892L52.544-21.006ZM53.892.293a4.786,4.786,0,0,1-3.611-1.421,5.277,5.277,0,0,1-1.37-3.823,5.8,5.8,0,0,1,1.458-4.16,5.106,5.106,0,0,1,3.889-1.538,4.781,4.781,0,0,1,3.647,1.377,5.447,5.447,0,0,1,1.3,3.9,5.776,5.776,0,0,1-1.45,4.131A5.064,5.064,0,0,1,53.892.293Zm.234-8.364Q52-8.071,52-5.1q0,2.813,2.065,2.813t2.08-2.93a3.475,3.475,0,0,0-.557-2.109A1.741,1.741,0,0,0,54.126-8.071Z" transform="translate(-16918.27 -14147)"/>
      <path id="_18_" data-name="18%" d="M12.188-21.475V0H7.573V-16.26a5.526,5.526,0,0,1-.9.637,9.3,9.3,0,0,1-1.106.542,9.875,9.875,0,0,1-1.216.41,8.88,8.88,0,0,1-1.245.242v-3.9a19.248,19.248,0,0,0,3.4-1.348,19.34,19.34,0,0,0,2.886-1.8Zm6.24,15.82a5.593,5.593,0,0,1,.256-1.692,5.127,5.127,0,0,1,.769-1.509A5.661,5.661,0,0,1,20.735-10.1a6.884,6.884,0,0,1,1.809-.9,6.488,6.488,0,0,1-2.476-2.029,4.636,4.636,0,0,1-.879-2.747A4.967,4.967,0,0,1,19.695-18a5.4,5.4,0,0,1,1.4-1.772,6.544,6.544,0,0,1,2.131-1.165,8.409,8.409,0,0,1,2.7-.417,8.574,8.574,0,0,1,2.739.417,6.7,6.7,0,0,1,2.146,1.157,5.249,5.249,0,0,1,1.4,1.75,4.9,4.9,0,0,1,.5,2.2,4.36,4.36,0,0,1-.937,2.717A6.979,6.979,0,0,1,29.18-11.1a7.067,7.067,0,0,1,1.8.9,5.8,5.8,0,0,1,1.3,1.252,5.131,5.131,0,0,1,.791,1.531A5.636,5.636,0,0,1,33.34-5.7,5.5,5.5,0,0,1,32.8-3.245a5.585,5.585,0,0,1-1.531,1.9A7.224,7.224,0,0,1,28.909-.1a9.862,9.862,0,0,1-3.025.439,9.913,9.913,0,0,1-3-.432A7.2,7.2,0,0,1,20.53-1.318a5.673,5.673,0,0,1-1.545-1.9A5.347,5.347,0,0,1,18.428-5.654Zm4.38-.4a3.569,3.569,0,0,0,.22,1.289,2.637,2.637,0,0,0,.63.967,2.813,2.813,0,0,0,.974.608,3.574,3.574,0,0,0,1.267.212,3.382,3.382,0,0,0,1.238-.22,2.9,2.9,0,0,0,.974-.615,2.8,2.8,0,0,0,.645-.967,3.329,3.329,0,0,0,.234-1.274,3.317,3.317,0,0,0-.22-1.2,2.855,2.855,0,0,0-.63-.989,3.111,3.111,0,0,0-.974-.667A3.1,3.1,0,0,0,25.9-9.155a3.3,3.3,0,0,0-1.23.227,2.814,2.814,0,0,0-.981.645,3.04,3.04,0,0,0-.645.989A3.249,3.249,0,0,0,22.808-6.05Zm.645-9.3a2.775,2.775,0,0,0,.2,1.047,2.7,2.7,0,0,0,.535.85,2.444,2.444,0,0,0,.8.564,2.372,2.372,0,0,0,.974.205,2.357,2.357,0,0,0,.981-.205,2.5,2.5,0,0,0,.8-.571,2.745,2.745,0,0,0,.542-.85,2.72,2.72,0,0,0,.2-1.04,2.91,2.91,0,0,0-.19-1.062,2.539,2.539,0,0,0-.535-.85,2.527,2.527,0,0,0-.806-.564,2.407,2.407,0,0,0-.989-.205,2.406,2.406,0,0,0-1.018.212,2.454,2.454,0,0,0-.791.571,2.567,2.567,0,0,0-.513.85A2.972,2.972,0,0,0,23.452-15.352Zm17.358,5A4.786,4.786,0,0,1,37.2-11.777,5.277,5.277,0,0,1,35.83-15.6a5.8,5.8,0,0,1,1.458-4.16A5.106,5.106,0,0,1,41.177-21.3a4.759,4.759,0,0,1,3.64,1.392A5.482,5.482,0,0,1,46.128-16a5.723,5.723,0,0,1-1.45,4.116A5.089,5.089,0,0,1,40.811-10.356Zm.278-8.364q-2.139,0-2.139,2.974,0,2.813,2.036,2.813,2.08,0,2.08-2.93Q43.066-18.721,41.089-18.721Zm15.059-2.285L42.466,0H38.892L52.544-21.006ZM53.892.293a4.786,4.786,0,0,1-3.611-1.421,5.277,5.277,0,0,1-1.37-3.823,5.8,5.8,0,0,1,1.458-4.16,5.106,5.106,0,0,1,3.889-1.538,4.781,4.781,0,0,1,3.647,1.377,5.447,5.447,0,0,1,1.3,3.9,5.776,5.776,0,0,1-1.45,4.131A5.064,5.064,0,0,1,53.892.293Zm.234-8.364Q52-8.071,52-5.1q0,2.813,2.065,2.813t2.08-2.93a3.475,3.475,0,0,0-.557-2.109A1.741,1.741,0,0,0,54.126-8.071Z" transform="translate(-16775.09 -14147)"/>
      <path id="_9_" data-name="9%" d="M15.923-11.514a18.633,18.633,0,0,1-.615,5,10.731,10.731,0,0,1-1.794,3.728A7.925,7.925,0,0,1,10.635-.447,8.818,8.818,0,0,1,6.782.366a10.947,10.947,0,0,1-4.438-.82V-4.263A7.111,7.111,0,0,0,6.328-3.179,4.587,4.587,0,0,0,10.063-4.8a7.254,7.254,0,0,0,1.362-4.7l-.088-.029A4.756,4.756,0,0,1,7.1-7.471a5.811,5.811,0,0,1-2.38-.483,5.719,5.719,0,0,1-1.89-1.34,6.126,6.126,0,0,1-1.245-2.043,7.345,7.345,0,0,1-.447-2.607,8.1,8.1,0,0,1,.542-3.018A6.908,6.908,0,0,1,3.2-19.307a6.69,6.69,0,0,1,2.336-1.516,8.194,8.194,0,0,1,3.018-.535,6.908,6.908,0,0,1,3.076.667,6.464,6.464,0,0,1,2.322,1.926,8.993,8.993,0,0,1,1.465,3.091A15.661,15.661,0,0,1,15.923-11.514ZM11.25-13.975a5.443,5.443,0,0,0-.205-1.516,3.99,3.99,0,0,0-.571-1.223,2.781,2.781,0,0,0-.894-.813,2.3,2.3,0,0,0-1.157-.3,2.355,2.355,0,0,0-1.106.264,2.7,2.7,0,0,0-.872.725,3.434,3.434,0,0,0-.571,1.106,4.566,4.566,0,0,0-.205,1.392,4.755,4.755,0,0,0,.205,1.458,3.112,3.112,0,0,0,.579,1.077,2.427,2.427,0,0,0,.9.667,2.934,2.934,0,0,0,1.172.227,2.516,2.516,0,0,0,1.113-.242,2.682,2.682,0,0,0,.857-.652,2.95,2.95,0,0,0,.557-.967A3.563,3.563,0,0,0,11.25-13.975Zm12.3,3.618a4.786,4.786,0,0,1-3.611-1.421,5.277,5.277,0,0,1-1.37-3.823,5.8,5.8,0,0,1,1.458-4.16A5.106,5.106,0,0,1,23.921-21.3a4.759,4.759,0,0,1,3.64,1.392A5.482,5.482,0,0,1,28.872-16a5.723,5.723,0,0,1-1.45,4.116A5.089,5.089,0,0,1,23.555-10.356Zm.278-8.364q-2.139,0-2.139,2.974,0,2.813,2.036,2.813,2.08,0,2.08-2.93Q25.811-18.721,23.833-18.721Zm15.059-2.285L25.21,0H21.636L35.288-21.006ZM36.636.293a4.786,4.786,0,0,1-3.611-1.421,5.277,5.277,0,0,1-1.37-3.823,5.8,5.8,0,0,1,1.458-4.16A5.106,5.106,0,0,1,37-10.649a4.781,4.781,0,0,1,3.647,1.377,5.447,5.447,0,0,1,1.3,3.9A5.776,5.776,0,0,1,40.5-1.245,5.064,5.064,0,0,1,36.636.293Zm.234-8.364q-2.124,0-2.124,2.974,0,2.813,2.065,2.813t2.08-2.93a3.475,3.475,0,0,0-.557-2.109A1.741,1.741,0,0,0,36.87-8.071Z" transform="translate(-16601.029 -14147)"/>
      <path id="_2_" data-name="2%" d="M6.284-3.838H15.19V0H1.216V-1.582a7.364,7.364,0,0,1,.542-2.893,9.6,9.6,0,0,1,1.362-2.3,11.817,11.817,0,0,1,1.794-1.8Q5.889-9.36,6.768-9.99q.923-.659,1.619-1.26a9.224,9.224,0,0,0,1.172-1.194,4.539,4.539,0,0,0,.71-1.2,3.572,3.572,0,0,0,.234-1.3,2.605,2.605,0,0,0-.762-2.036,3.386,3.386,0,0,0-2.329-.688,7.823,7.823,0,0,0-5.186,2.153v-4.072a11.131,11.131,0,0,1,6.182-1.772,9.129,9.129,0,0,1,2.864.417,6.059,6.059,0,0,1,2.146,1.194,5.092,5.092,0,0,1,1.34,1.882A6.352,6.352,0,0,1,15.22-15.4a6.96,6.96,0,0,1-.447,2.578,7.922,7.922,0,0,1-1.187,2.051A10.763,10.763,0,0,1,11.88-9.075q-.967.769-2.007,1.487-.7.5-1.355.989a12.846,12.846,0,0,0-1.15.967,5.248,5.248,0,0,0-.791.93A1.606,1.606,0,0,0,6.284-3.838Zm17.271-6.519a4.786,4.786,0,0,1-3.611-1.421,5.277,5.277,0,0,1-1.37-3.823,5.8,5.8,0,0,1,1.458-4.16A5.106,5.106,0,0,1,23.921-21.3a4.759,4.759,0,0,1,3.64,1.392A5.482,5.482,0,0,1,28.872-16a5.723,5.723,0,0,1-1.45,4.116A5.089,5.089,0,0,1,23.555-10.356Zm.278-8.364q-2.139,0-2.139,2.974,0,2.813,2.036,2.813,2.08,0,2.08-2.93Q25.811-18.721,23.833-18.721Zm15.059-2.285L25.21,0H21.636L35.288-21.006ZM36.636.293a4.786,4.786,0,0,1-3.611-1.421,5.277,5.277,0,0,1-1.37-3.823,5.8,5.8,0,0,1,1.458-4.16A5.106,5.106,0,0,1,37-10.649a4.781,4.781,0,0,1,3.647,1.377,5.447,5.447,0,0,1,1.3,3.9A5.776,5.776,0,0,1,40.5-1.245,5.064,5.064,0,0,1,36.636.293Zm.234-8.364q-2.124,0-2.124,2.974,0,2.813,2.065,2.813t2.08-2.93a3.475,3.475,0,0,0-.557-2.109A1.741,1.741,0,0,0,36.87-8.071Z" transform="translate(-16898.77 -13994)"/>
      <path id="_1_" data-name="1%" d="M12.188-21.475V0H7.573V-16.26a5.526,5.526,0,0,1-.9.637,9.3,9.3,0,0,1-1.106.542,9.875,9.875,0,0,1-1.216.41,8.88,8.88,0,0,1-1.245.242v-3.9a19.248,19.248,0,0,0,3.4-1.348,19.34,19.34,0,0,0,2.886-1.8ZM23.555-10.356a4.786,4.786,0,0,1-3.611-1.421,5.277,5.277,0,0,1-1.37-3.823,5.8,5.8,0,0,1,1.458-4.16A5.106,5.106,0,0,1,23.921-21.3a4.759,4.759,0,0,1,3.64,1.392A5.482,5.482,0,0,1,28.872-16a5.723,5.723,0,0,1-1.45,4.116A5.089,5.089,0,0,1,23.555-10.356Zm.278-8.364q-2.139,0-2.139,2.974,0,2.813,2.036,2.813,2.08,0,2.08-2.93Q25.811-18.721,23.833-18.721Zm15.059-2.285L25.21,0H21.636L35.288-21.006ZM36.636.293a4.786,4.786,0,0,1-3.611-1.421,5.277,5.277,0,0,1-1.37-3.823,5.8,5.8,0,0,1,1.458-4.16A5.106,5.106,0,0,1,37-10.649a4.781,4.781,0,0,1,3.647,1.377,5.447,5.447,0,0,1,1.3,3.9A5.776,5.776,0,0,1,40.5-1.245,5.064,5.064,0,0,1,36.636.293Zm.234-8.364q-2.124,0-2.124,2.974,0,2.813,2.065,2.813t2.08-2.93a3.475,3.475,0,0,0-.557-2.109A1.741,1.741,0,0,0,36.87-8.071Z" transform="translate(-16755.051 -13994)"/>
      <path id="_1_2" data-name="1%" d="M12.188-21.475V0H7.573V-16.26a5.526,5.526,0,0,1-.9.637,9.3,9.3,0,0,1-1.106.542,9.875,9.875,0,0,1-1.216.41,8.88,8.88,0,0,1-1.245.242v-3.9a19.248,19.248,0,0,0,3.4-1.348,19.34,19.34,0,0,0,2.886-1.8ZM23.555-10.356a4.786,4.786,0,0,1-3.611-1.421,5.277,5.277,0,0,1-1.37-3.823,5.8,5.8,0,0,1,1.458-4.16A5.106,5.106,0,0,1,23.921-21.3a4.759,4.759,0,0,1,3.64,1.392A5.482,5.482,0,0,1,28.872-16a5.723,5.723,0,0,1-1.45,4.116A5.089,5.089,0,0,1,23.555-10.356Zm.278-8.364q-2.139,0-2.139,2.974,0,2.813,2.036,2.813,2.08,0,2.08-2.93Q25.811-18.721,23.833-18.721Zm15.059-2.285L25.21,0H21.636L35.288-21.006ZM36.636.293a4.786,4.786,0,0,1-3.611-1.421,5.277,5.277,0,0,1-1.37-3.823,5.8,5.8,0,0,1,1.458-4.16A5.106,5.106,0,0,1,37-10.649a4.781,4.781,0,0,1,3.647,1.377,5.447,5.447,0,0,1,1.3,3.9A5.776,5.776,0,0,1,40.5-1.245,5.064,5.064,0,0,1,36.636.293Zm.234-8.364q-2.124,0-2.124,2.974,0,2.813,2.065,2.813t2.08-2.93a3.475,3.475,0,0,0-.557-2.109A1.741,1.741,0,0,0,36.87-8.071Z" transform="translate(-16596.051 -13994)"/>
      <path id="_18_2" data-name="18%" d="M12.188-21.475V0H7.573V-16.26a5.526,5.526,0,0,1-.9.637,9.3,9.3,0,0,1-1.106.542,9.875,9.875,0,0,1-1.216.41,8.88,8.88,0,0,1-1.245.242v-3.9a19.248,19.248,0,0,0,3.4-1.348,19.34,19.34,0,0,0,2.886-1.8Zm6.24,15.82a5.593,5.593,0,0,1,.256-1.692,5.127,5.127,0,0,1,.769-1.509A5.661,5.661,0,0,1,20.735-10.1a6.884,6.884,0,0,1,1.809-.9,6.488,6.488,0,0,1-2.476-2.029,4.636,4.636,0,0,1-.879-2.747A4.967,4.967,0,0,1,19.695-18a5.4,5.4,0,0,1,1.4-1.772,6.544,6.544,0,0,1,2.131-1.165,8.409,8.409,0,0,1,2.7-.417,8.574,8.574,0,0,1,2.739.417,6.7,6.7,0,0,1,2.146,1.157,5.249,5.249,0,0,1,1.4,1.75,4.9,4.9,0,0,1,.5,2.2,4.36,4.36,0,0,1-.937,2.717A6.979,6.979,0,0,1,29.18-11.1a7.067,7.067,0,0,1,1.8.9,5.8,5.8,0,0,1,1.3,1.252,5.131,5.131,0,0,1,.791,1.531A5.636,5.636,0,0,1,33.34-5.7,5.5,5.5,0,0,1,32.8-3.245a5.585,5.585,0,0,1-1.531,1.9A7.224,7.224,0,0,1,28.909-.1a9.862,9.862,0,0,1-3.025.439,9.913,9.913,0,0,1-3-.432A7.2,7.2,0,0,1,20.53-1.318a5.673,5.673,0,0,1-1.545-1.9A5.347,5.347,0,0,1,18.428-5.654Zm4.38-.4a3.569,3.569,0,0,0,.22,1.289,2.637,2.637,0,0,0,.63.967,2.813,2.813,0,0,0,.974.608,3.574,3.574,0,0,0,1.267.212,3.382,3.382,0,0,0,1.238-.22,2.9,2.9,0,0,0,.974-.615,2.8,2.8,0,0,0,.645-.967,3.329,3.329,0,0,0,.234-1.274,3.317,3.317,0,0,0-.22-1.2,2.855,2.855,0,0,0-.63-.989,3.111,3.111,0,0,0-.974-.667A3.1,3.1,0,0,0,25.9-9.155a3.3,3.3,0,0,0-1.23.227,2.814,2.814,0,0,0-.981.645,3.04,3.04,0,0,0-.645.989A3.249,3.249,0,0,0,22.808-6.05Zm.645-9.3a2.775,2.775,0,0,0,.2,1.047,2.7,2.7,0,0,0,.535.85,2.444,2.444,0,0,0,.8.564,2.372,2.372,0,0,0,.974.205,2.357,2.357,0,0,0,.981-.205,2.5,2.5,0,0,0,.8-.571,2.745,2.745,0,0,0,.542-.85,2.72,2.72,0,0,0,.2-1.04,2.91,2.91,0,0,0-.19-1.062,2.539,2.539,0,0,0-.535-.85,2.527,2.527,0,0,0-.806-.564,2.407,2.407,0,0,0-.989-.205,2.406,2.406,0,0,0-1.018.212,2.454,2.454,0,0,0-.791.571,2.567,2.567,0,0,0-.513.85A2.972,2.972,0,0,0,23.452-15.352Zm17.358,5A4.786,4.786,0,0,1,37.2-11.777,5.277,5.277,0,0,1,35.83-15.6a5.8,5.8,0,0,1,1.458-4.16A5.106,5.106,0,0,1,41.177-21.3a4.759,4.759,0,0,1,3.64,1.392A5.482,5.482,0,0,1,46.128-16a5.723,5.723,0,0,1-1.45,4.116A5.089,5.089,0,0,1,40.811-10.356Zm.278-8.364q-2.139,0-2.139,2.974,0,2.813,2.036,2.813,2.08,0,2.08-2.93Q43.066-18.721,41.089-18.721Zm15.059-2.285L42.466,0H38.892L52.544-21.006ZM53.892.293a4.786,4.786,0,0,1-3.611-1.421,5.277,5.277,0,0,1-1.37-3.823,5.8,5.8,0,0,1,1.458-4.16,5.106,5.106,0,0,1,3.889-1.538,4.781,4.781,0,0,1,3.647,1.377,5.447,5.447,0,0,1,1.3,3.9,5.776,5.776,0,0,1-1.45,4.131A5.064,5.064,0,0,1,53.892.293Zm.234-8.364Q52-8.071,52-5.1q0,2.813,2.065,2.813t2.08-2.93a3.475,3.475,0,0,0-.557-2.109A1.741,1.741,0,0,0,54.126-8.071Z" transform="translate(-16916.09 -14096)"/>
      <path id="_9_2" data-name="9%" d="M15.923-11.514a18.633,18.633,0,0,1-.615,5,10.731,10.731,0,0,1-1.794,3.728A7.925,7.925,0,0,1,10.635-.447,8.818,8.818,0,0,1,6.782.366a10.947,10.947,0,0,1-4.438-.82V-4.263A7.111,7.111,0,0,0,6.328-3.179,4.587,4.587,0,0,0,10.063-4.8a7.254,7.254,0,0,0,1.362-4.7l-.088-.029A4.756,4.756,0,0,1,7.1-7.471a5.811,5.811,0,0,1-2.38-.483,5.719,5.719,0,0,1-1.89-1.34,6.126,6.126,0,0,1-1.245-2.043,7.345,7.345,0,0,1-.447-2.607,8.1,8.1,0,0,1,.542-3.018A6.908,6.908,0,0,1,3.2-19.307a6.69,6.69,0,0,1,2.336-1.516,8.194,8.194,0,0,1,3.018-.535,6.908,6.908,0,0,1,3.076.667,6.464,6.464,0,0,1,2.322,1.926,8.993,8.993,0,0,1,1.465,3.091A15.661,15.661,0,0,1,15.923-11.514ZM11.25-13.975a5.443,5.443,0,0,0-.205-1.516,3.99,3.99,0,0,0-.571-1.223,2.781,2.781,0,0,0-.894-.813,2.3,2.3,0,0,0-1.157-.3,2.355,2.355,0,0,0-1.106.264,2.7,2.7,0,0,0-.872.725,3.434,3.434,0,0,0-.571,1.106,4.566,4.566,0,0,0-.205,1.392,4.755,4.755,0,0,0,.205,1.458,3.112,3.112,0,0,0,.579,1.077,2.427,2.427,0,0,0,.9.667,2.934,2.934,0,0,0,1.172.227,2.516,2.516,0,0,0,1.113-.242,2.682,2.682,0,0,0,.857-.652,2.95,2.95,0,0,0,.557-.967A3.563,3.563,0,0,0,11.25-13.975Zm12.3,3.618a4.786,4.786,0,0,1-3.611-1.421,5.277,5.277,0,0,1-1.37-3.823,5.8,5.8,0,0,1,1.458-4.16A5.106,5.106,0,0,1,23.921-21.3a4.759,4.759,0,0,1,3.64,1.392A5.482,5.482,0,0,1,28.872-16a5.723,5.723,0,0,1-1.45,4.116A5.089,5.089,0,0,1,23.555-10.356Zm.278-8.364q-2.139,0-2.139,2.974,0,2.813,2.036,2.813,2.08,0,2.08-2.93Q25.811-18.721,23.833-18.721Zm15.059-2.285L25.21,0H21.636L35.288-21.006ZM36.636.293a4.786,4.786,0,0,1-3.611-1.421,5.277,5.277,0,0,1-1.37-3.823,5.8,5.8,0,0,1,1.458-4.16A5.106,5.106,0,0,1,37-10.649a4.781,4.781,0,0,1,3.647,1.377,5.447,5.447,0,0,1,1.3,3.9A5.776,5.776,0,0,1,40.5-1.245,5.064,5.064,0,0,1,36.636.293Zm.234-8.364q-2.124,0-2.124,2.974,0,2.813,2.065,2.813t2.08-2.93a3.475,3.475,0,0,0-.557-2.109A1.741,1.741,0,0,0,36.87-8.071Z" transform="translate(-16761.029 -14096)"/>
      <path id="_5_" data-name="5%" d="M2.08-.542V-4.5A8.635,8.635,0,0,0,6.665-3.179,4.307,4.307,0,0,0,9.529-4.05a2.934,2.934,0,0,0,1.033-2.366q0-3.12-4.409-3.12a32.649,32.649,0,0,0-3.75.249l.791-11.719H14.312v3.779H6.724l-.293,4.2q1.128-.088,1.948-.088a7.164,7.164,0,0,1,5.068,1.7,5.934,5.934,0,0,1,1.831,4.57A6.746,6.746,0,0,1,13.1-1.648,8.386,8.386,0,0,1,7.178.366,12.663,12.663,0,0,1,2.08-.542Zm21.475-9.814a4.786,4.786,0,0,1-3.611-1.421,5.277,5.277,0,0,1-1.37-3.823,5.8,5.8,0,0,1,1.458-4.16A5.106,5.106,0,0,1,23.921-21.3a4.759,4.759,0,0,1,3.64,1.392A5.482,5.482,0,0,1,28.872-16a5.723,5.723,0,0,1-1.45,4.116A5.089,5.089,0,0,1,23.555-10.356Zm.278-8.364q-2.139,0-2.139,2.974,0,2.813,2.036,2.813,2.08,0,2.08-2.93Q25.811-18.721,23.833-18.721Zm15.059-2.285L25.21,0H21.636L35.288-21.006ZM36.636.293a4.786,4.786,0,0,1-3.611-1.421,5.277,5.277,0,0,1-1.37-3.823,5.8,5.8,0,0,1,1.458-4.16A5.106,5.106,0,0,1,37-10.649a4.781,4.781,0,0,1,3.647,1.377,5.447,5.447,0,0,1,1.3,3.9A5.776,5.776,0,0,1,40.5-1.245,5.064,5.064,0,0,1,36.636.293Zm.234-8.364q-2.124,0-2.124,2.974,0,2.813,2.065,2.813t2.08-2.93a3.475,3.475,0,0,0-.557-2.109A1.741,1.741,0,0,0,36.87-8.071Z" transform="translate(-16599.75 -14096)"/>
      <path id="_8_" data-name="8%" d="M1.172-5.654a5.593,5.593,0,0,1,.256-1.692A5.127,5.127,0,0,1,2.2-8.855,5.661,5.661,0,0,1,3.479-10.1,6.884,6.884,0,0,1,5.288-11,6.488,6.488,0,0,1,2.813-13.03a4.636,4.636,0,0,1-.879-2.747A4.967,4.967,0,0,1,2.439-18a5.4,5.4,0,0,1,1.4-1.772A6.544,6.544,0,0,1,5.969-20.94a8.409,8.409,0,0,1,2.7-.417,8.574,8.574,0,0,1,2.739.417,6.7,6.7,0,0,1,2.146,1.157,5.249,5.249,0,0,1,1.4,1.75,4.9,4.9,0,0,1,.5,2.2,4.36,4.36,0,0,1-.937,2.717A6.979,6.979,0,0,1,11.924-11.1a7.067,7.067,0,0,1,1.8.9,5.8,5.8,0,0,1,1.3,1.252,5.131,5.131,0,0,1,.791,1.531A5.636,5.636,0,0,1,16.084-5.7a5.5,5.5,0,0,1-.542,2.454,5.585,5.585,0,0,1-1.531,1.9A7.224,7.224,0,0,1,11.653-.1,9.862,9.862,0,0,1,8.628.337a9.913,9.913,0,0,1-3-.432A7.2,7.2,0,0,1,3.274-1.318a5.673,5.673,0,0,1-1.545-1.9A5.347,5.347,0,0,1,1.172-5.654Zm4.38-.4a3.569,3.569,0,0,0,.22,1.289,2.637,2.637,0,0,0,.63.967,2.813,2.813,0,0,0,.974.608,3.573,3.573,0,0,0,1.267.212,3.382,3.382,0,0,0,1.238-.22,2.9,2.9,0,0,0,.974-.615,2.8,2.8,0,0,0,.645-.967,3.329,3.329,0,0,0,.234-1.274,3.317,3.317,0,0,0-.22-1.2,2.855,2.855,0,0,0-.63-.989,3.111,3.111,0,0,0-.974-.667,3.1,3.1,0,0,0-1.267-.249,3.3,3.3,0,0,0-1.23.227,2.814,2.814,0,0,0-.981.645,3.04,3.04,0,0,0-.645.989A3.249,3.249,0,0,0,5.552-6.05Zm.645-9.3a2.775,2.775,0,0,0,.2,1.047,2.7,2.7,0,0,0,.535.85,2.444,2.444,0,0,0,.8.564,2.372,2.372,0,0,0,.974.205,2.357,2.357,0,0,0,.981-.205,2.5,2.5,0,0,0,.8-.571,2.746,2.746,0,0,0,.542-.85,2.72,2.72,0,0,0,.2-1.04,2.91,2.91,0,0,0-.19-1.062,2.539,2.539,0,0,0-.535-.85,2.527,2.527,0,0,0-.806-.564,2.407,2.407,0,0,0-.989-.205,2.406,2.406,0,0,0-1.018.212,2.454,2.454,0,0,0-.791.571,2.567,2.567,0,0,0-.513.85A2.972,2.972,0,0,0,6.2-15.352Zm17.358,5a4.786,4.786,0,0,1-3.611-1.421,5.277,5.277,0,0,1-1.37-3.823,5.8,5.8,0,0,1,1.458-4.16A5.106,5.106,0,0,1,23.921-21.3a4.759,4.759,0,0,1,3.64,1.392A5.482,5.482,0,0,1,28.872-16a5.723,5.723,0,0,1-1.45,4.116A5.089,5.089,0,0,1,23.555-10.356Zm.278-8.364q-2.139,0-2.139,2.974,0,2.813,2.036,2.813,2.08,0,2.08-2.93Q25.811-18.721,23.833-18.721Zm15.059-2.285L25.21,0H21.636L35.288-21.006ZM36.636.293a4.786,4.786,0,0,1-3.611-1.421,5.277,5.277,0,0,1-1.37-3.823,5.8,5.8,0,0,1,1.458-4.16A5.106,5.106,0,0,1,37-10.649a4.781,4.781,0,0,1,3.647,1.377,5.447,5.447,0,0,1,1.3,3.9A5.776,5.776,0,0,1,40.5-1.245,5.064,5.064,0,0,1,36.636.293Zm.234-8.364q-2.124,0-2.124,2.974,0,2.813,2.065,2.813t2.08-2.93a3.475,3.475,0,0,0-.557-2.109A1.741,1.741,0,0,0,36.87-8.071Z" transform="translate(-16899.289 -14045)"/>
      <path id="_5_2" data-name="5%" d="M2.08-.542V-4.5A8.635,8.635,0,0,0,6.665-3.179,4.307,4.307,0,0,0,9.529-4.05a2.934,2.934,0,0,0,1.033-2.366q0-3.12-4.409-3.12a32.649,32.649,0,0,0-3.75.249l.791-11.719H14.312v3.779H6.724l-.293,4.2q1.128-.088,1.948-.088a7.164,7.164,0,0,1,5.068,1.7,5.934,5.934,0,0,1,1.831,4.57A6.746,6.746,0,0,1,13.1-1.648,8.386,8.386,0,0,1,7.178.366,12.663,12.663,0,0,1,2.08-.542Zm21.475-9.814a4.786,4.786,0,0,1-3.611-1.421,5.277,5.277,0,0,1-1.37-3.823,5.8,5.8,0,0,1,1.458-4.16A5.106,5.106,0,0,1,23.921-21.3a4.759,4.759,0,0,1,3.64,1.392A5.482,5.482,0,0,1,28.872-16a5.723,5.723,0,0,1-1.45,4.116A5.089,5.089,0,0,1,23.555-10.356Zm.278-8.364q-2.139,0-2.139,2.974,0,2.813,2.036,2.813,2.08,0,2.08-2.93Q25.811-18.721,23.833-18.721Zm15.059-2.285L25.21,0H21.636L35.288-21.006ZM36.636.293a4.786,4.786,0,0,1-3.611-1.421,5.277,5.277,0,0,1-1.37-3.823,5.8,5.8,0,0,1,1.458-4.16A5.106,5.106,0,0,1,37-10.649a4.781,4.781,0,0,1,3.647,1.377,5.447,5.447,0,0,1,1.3,3.9A5.776,5.776,0,0,1,40.5-1.245,5.064,5.064,0,0,1,36.636.293Zm.234-8.364q-2.124,0-2.124,2.974,0,2.813,2.065,2.813t2.08-2.93a3.475,3.475,0,0,0-.557-2.109A1.741,1.741,0,0,0,36.87-8.071Z" transform="translate(-16758.75 -14045)"/>
      <path id="_3_" data-name="3%" d="M1.714-.688V-4.717A8.131,8.131,0,0,0,6.636-3.179,4.431,4.431,0,0,0,9.4-3.94a2.529,2.529,0,0,0,.989-2.124A2.414,2.414,0,0,0,9.163-8.232,6.337,6.337,0,0,0,5.8-8.994H3.853v-3.545h1.8q4.1,0,4.1-2.725,0-2.563-3.149-2.563a7.18,7.18,0,0,0-4.1,1.362v-3.779a11.328,11.328,0,0,1,5.156-1.113,7.781,7.781,0,0,1,5.017,1.45,4.615,4.615,0,0,1,1.794,3.765q0,4.116-4.175,5.156v.073a5.676,5.676,0,0,1,3.516,1.619A4.564,4.564,0,0,1,15.1-6.006a5.636,5.636,0,0,1-2.153,4.658A9.31,9.31,0,0,1,7,.366,11.494,11.494,0,0,1,1.714-.688Zm21.841-9.668a4.786,4.786,0,0,1-3.611-1.421,5.277,5.277,0,0,1-1.37-3.823,5.8,5.8,0,0,1,1.458-4.16A5.106,5.106,0,0,1,23.921-21.3a4.759,4.759,0,0,1,3.64,1.392A5.482,5.482,0,0,1,28.872-16a5.723,5.723,0,0,1-1.45,4.116A5.089,5.089,0,0,1,23.555-10.356Zm.278-8.364q-2.139,0-2.139,2.974,0,2.813,2.036,2.813,2.08,0,2.08-2.93Q25.811-18.721,23.833-18.721Zm15.059-2.285L25.21,0H21.636L35.288-21.006ZM36.636.293a4.786,4.786,0,0,1-3.611-1.421,5.277,5.277,0,0,1-1.37-3.823,5.8,5.8,0,0,1,1.458-4.16A5.106,5.106,0,0,1,37-10.649a4.781,4.781,0,0,1,3.647,1.377,5.447,5.447,0,0,1,1.3,3.9A5.776,5.776,0,0,1,40.5-1.245,5.064,5.064,0,0,1,36.636.293Zm.234-8.364q-2.124,0-2.124,2.974,0,2.813,2.065,2.813t2.08-2.93a3.475,3.475,0,0,0-.557-2.109A1.741,1.741,0,0,0,36.87-8.071Z" transform="translate(-16600.949 -14045)"/>
    </g>
  </g>
</svg>
