<svg xmlns="http://www.w3.org/2000/svg" width="692" height="389" viewBox="0 0 692 389">
  <g id="chart-trading" transform="translate(-805 -13227)">
    <path id="Path_16375" data-name="Path 16375" d="M-18376.494-9179.639l2.486-8.03,2.156,26.482,2.693-34.776,1.809-11.754,7.236,10.122,2.273-5.4h2.85l3.275,3.336.912,6.433,10.148-9.769,1.047-11.895,4.037,1.353,1.145-7.989,7.693,7.989,3.994,40.55,2.666-21.7,2.031,10.525,7.963-22.669,1.244-28.848,2.529,3.627,4.342-31.405,6.168-4.234,2.922-14.795,3.783-1.033,4.586-10.685,8.924,9.315,1.842,11.953,3.32-1.949,1.719-11.3,9.494,59.339,2.525-7.764,2,38.651,8.32-32.609,3.766,22.637,4.186,73.55,2.279,5.952,6.994,35.971,2.426-41.923,2.064,8.059,3.4-38.976,2.045,15.3,6.67-9.146,2.875,10.045,1.949-2.034,1.605,39.526,2.352-9.959,7.354-14.439,2.674,3.008,1.723,35.326,2.846,6.053,2.334-7.161,6.625,17.106,2.824-3.259,4.5-45.039,9.332,2.787,1.662-11.155,3.3,11.155,2.6-21.915,9.266-2.034,1.756-20.483,2.549,13.337,2.578-18.245,9.041,27.426,2.35,12.106,1.965-8.459,2.6-4.547,1.256-8.281,8.477-24.458,2.7,4.092,2.205-7.52,2.551,24.99,8.711,25.17,2.367,23.189,2.543,9.059,1.957,22.084,2.26-10.789,7.545,18.466,2.451-15.727,1.648,29.207,2.65,18.312,2.064-25.285,7.334,4.938,2.35-9.68,2.941-2.895,2.338-19.973,2.324-1.48,9.094-9.254,2.35-8.008,2.42,4.3,2.574-4.3,10.367,4.3,3.3,19.817,1.914-14.034,7.141-12,2.525-5.809,2.867,4.132,3.361-29.4,7.434-14.342,2.342,8.338,3.189-8.338,1.277-27.569,2.395-12.5,6.789,4.559,2.008-12.144,5.365-9.417,2.416,2.712,5.893-10.077,4.959-3.233v18.315l4.176,1.7,11.215-24.4,2.633,6.586,1.826,11.113,2.572-10.077,9.055,11.013,2.115,15.294,2.771,14.24,9.1-6.607,1.951-19.781,7.123-27.705,8.4,5.108,1.041,14.275,2.379-9.07,1.775-1.722,4.137,3.919,7.1-1.285,5.615-27.38,1.738,8.215,7.676-2.84,1.848,14.977,3.295,8.313,1.8-11.029,3.318-1.481,6.133,13.547,3.285.974,1.33-3.295,3.346,1.285,9.076-24.782,1.568-11.42,2.66-5.549,1.848,5.549,2.965-16.162,7.748-9.172,1.4,10.218,2.275-8.921,3.023-2.951,1.963-19.792,9.822,10.12,1.307,15.025,2.938-1.033,2.109,8.635,7.2,8.484,3.008-2.969,1.146-5.516" transform="translate(19275 22567)" fill="none" stroke="#ff5b34" stroke-width="3"/>
    <text id="_20_10_0_-10_-20_" data-name="20%
10%
0%
-10%
-20%" transform="translate(886 13242)" font-size="16" font-family="Bely-Regular, Bely"><tspan x="-25.04" y="0">20%</tspan><tspan x="-24.752" y="75">10%</tspan><tspan x="-18.08" y="150">0%</tspan><tspan x="-29.952" y="225">-10%</tspan><tspan x="-30.24" y="300">-20%</tspan></text>
    <text id="_Change" data-name="% Change" transform="translate(819 13384) rotate(-90)" font-size="16" font-family="OV-Bold, OV" font-weight="700"><tspan x="-43.592" y="0">% Change</tspan></text>
    <text id="Trading_Date" data-name="Trading Date" transform="translate(1196 13611)" font-size="16" font-family="OV-Bold, OV" font-weight="700"><tspan x="-56.056" y="0">Trading Date</tspan></text>
    <rect id="Rectangle_880" data-name="Rectangle 880" width="594" height="1" transform="translate(899 13238)"/>
    <rect id="Rectangle_880-2" data-name="Rectangle 880" width="594" height="1" transform="translate(899 13313)"/>
    <rect id="Rectangle_880-3" data-name="Rectangle 880" width="594" height="1" transform="translate(899 13388)"/>
    <rect id="Rectangle_880-4" data-name="Rectangle 880" width="594" height="1" transform="translate(899 13463)"/>
    <rect id="Rectangle_880-5" data-name="Rectangle 880" width="594" height="1" transform="translate(899 13538)"/>
    <text id="_01-Mar-21" data-name="01-Mar-21" transform="translate(1028 13561)" font-size="18" font-family="Bely-Regular, Bely"><tspan x="-37.35" y="0">01-Mar-21</tspan></text>
    <text id="_01-Sep-21" data-name="01-Sep-21" transform="translate(1461 13561)" font-size="18" font-family="Bely-Regular, Bely"><tspan x="-35.226" y="0">01-Sep-21</tspan></text>
    <text id="_01-May-21" data-name="01-May-21" transform="translate(1172 13561)" font-size="18" font-family="Bely-Regular, Bely"><tspan x="-38.286" y="0">01-May-21</tspan></text>
    <text id="_01-Jul-21" data-name="01-Jul-21" transform="translate(1316 13561)" font-size="18" font-family="Bely-Regular, Bely"><tspan x="-32.328" y="0">01-Jul-21</tspan></text>
    <rect id="Rectangle_897" data-name="Rectangle 897" width="1" height="300" transform="translate(1028 13239)"/>
    <rect id="Rectangle_898" data-name="Rectangle 898" width="1" height="300" transform="translate(1172 13239)"/>
    <rect id="Rectangle_899" data-name="Rectangle 899" width="1" height="300" transform="translate(1316 13239)"/>
    <rect id="Rectangle_900" data-name="Rectangle 900" width="1" height="300" transform="translate(1460 13239)"/>
  </g>
</svg>
