<svg xmlns="http://www.w3.org/2000/svg" width="719" height="393" viewBox="0 0 719 393">
  <g id="chart-revenue" transform="translate(-760 -8840)">
    <g id="Group_371" data-name="Group 371" transform="translate(-30 574)">
      <g id="Ellipse_1178" data-name="Ellipse 1178" transform="translate(840 8568)" stroke="#fff" stroke-width="1">
        <circle cx="5.5" cy="5.5" r="5.5" stroke="none"/>
        <circle cx="5.5" cy="5.5" r="5" fill="none"/>
      </g>
      <g id="Ellipse_1179" data-name="Ellipse 1179" transform="translate(904 8579)" stroke="#fff" stroke-width="1">
        <circle cx="5.5" cy="5.5" r="5.5" stroke="none"/>
        <circle cx="5.5" cy="5.5" r="5" fill="none"/>
      </g>
      <g id="Ellipse_1180" data-name="Ellipse 1180" transform="translate(919 8577)" stroke="#fff" stroke-width="1">
        <circle cx="5.5" cy="5.5" r="5.5" stroke="none"/>
        <circle cx="5.5" cy="5.5" r="5" fill="none"/>
      </g>
      <g id="Ellipse_1181" data-name="Ellipse 1181" transform="translate(944 8558)" stroke="#fff" stroke-width="1">
        <circle cx="5.5" cy="5.5" r="5.5" stroke="none"/>
        <circle cx="5.5" cy="5.5" r="5" fill="none"/>
      </g>
      <g id="Ellipse_1182" data-name="Ellipse 1182" transform="translate(939 8540)" stroke="#fff" stroke-width="1">
        <circle cx="5.5" cy="5.5" r="5.5" stroke="none"/>
        <circle cx="5.5" cy="5.5" r="5" fill="none"/>
      </g>
      <g id="Ellipse_1183" data-name="Ellipse 1183" transform="translate(986 8564)" stroke="#fff" stroke-width="1">
        <circle cx="5.5" cy="5.5" r="5.5" stroke="none"/>
        <circle cx="5.5" cy="5.5" r="5" fill="none"/>
      </g>
      <g id="Ellipse_1184" data-name="Ellipse 1184" transform="translate(989 8550)" stroke="#fff" stroke-width="1">
        <circle cx="5.5" cy="5.5" r="5.5" stroke="none"/>
        <circle cx="5.5" cy="5.5" r="5" fill="none"/>
      </g>
      <g id="Ellipse_1185" data-name="Ellipse 1185" transform="translate(997 8577)" stroke="#fff" stroke-width="1">
        <circle cx="5.5" cy="5.5" r="5.5" stroke="none"/>
        <circle cx="5.5" cy="5.5" r="5" fill="none"/>
      </g>
      <g id="Ellipse_1186" data-name="Ellipse 1186" transform="translate(1004 8572)" stroke="#fff" stroke-width="1">
        <circle cx="5.5" cy="5.5" r="5.5" stroke="none"/>
        <circle cx="5.5" cy="5.5" r="5" fill="none"/>
      </g>
      <g id="Ellipse_1187" data-name="Ellipse 1187" transform="translate(1019 8570)" stroke="#fff" stroke-width="1">
        <circle cx="5.5" cy="5.5" r="5.5" stroke="none"/>
        <circle cx="5.5" cy="5.5" r="5" fill="none"/>
      </g>
      <g id="Ellipse_1188" data-name="Ellipse 1188" transform="translate(1019 8563)" stroke="#fff" stroke-width="1">
        <circle cx="5.5" cy="5.5" r="5.5" stroke="none"/>
        <circle cx="5.5" cy="5.5" r="5" fill="none"/>
      </g>
      <g id="Ellipse_1189" data-name="Ellipse 1189" transform="translate(1026 8561)" stroke="#fff" stroke-width="1">
        <circle cx="5.5" cy="5.5" r="5.5" stroke="none"/>
        <circle cx="5.5" cy="5.5" r="5" fill="none"/>
      </g>
      <g id="Ellipse_1195" data-name="Ellipse 1195" transform="translate(1041 8570)" stroke="#fff" stroke-width="1">
        <circle cx="5.5" cy="5.5" r="5.5" stroke="none"/>
        <circle cx="5.5" cy="5.5" r="5" fill="none"/>
      </g>
      <g id="Ellipse_1196" data-name="Ellipse 1196" transform="translate(1048 8565)" stroke="#fff" stroke-width="1">
        <circle cx="5.5" cy="5.5" r="5.5" stroke="none"/>
        <circle cx="5.5" cy="5.5" r="5" fill="none"/>
      </g>
      <g id="Ellipse_1197" data-name="Ellipse 1197" transform="translate(1054 8565)" stroke="#fff" stroke-width="1">
        <circle cx="5.5" cy="5.5" r="5.5" stroke="none"/>
        <circle cx="5.5" cy="5.5" r="5" fill="none"/>
      </g>
      <g id="Ellipse_1198" data-name="Ellipse 1198" transform="translate(1062 8561)" stroke="#fff" stroke-width="1">
        <circle cx="5.5" cy="5.5" r="5.5" stroke="none"/>
        <circle cx="5.5" cy="5.5" r="5" fill="none"/>
      </g>
      <g id="Ellipse_1199" data-name="Ellipse 1199" transform="translate(1063 8567)" stroke="#fff" stroke-width="1">
        <circle cx="5.5" cy="5.5" r="5.5" stroke="none"/>
        <circle cx="5.5" cy="5.5" r="5" fill="none"/>
      </g>
      <g id="Ellipse_1200" data-name="Ellipse 1200" transform="translate(1054 8558)" stroke="#fff" stroke-width="1">
        <circle cx="5.5" cy="5.5" r="5.5" stroke="none"/>
        <circle cx="5.5" cy="5.5" r="5" fill="none"/>
      </g>
      <g id="Ellipse_1201" data-name="Ellipse 1201" transform="translate(1054 8551)" stroke="#fff" stroke-width="1">
        <circle cx="5.5" cy="5.5" r="5.5" stroke="none"/>
        <circle cx="5.5" cy="5.5" r="5" fill="none"/>
      </g>
      <g id="Ellipse_1202" data-name="Ellipse 1202" transform="translate(1066 8550)" stroke="#fff" stroke-width="1">
        <circle cx="5.5" cy="5.5" r="5.5" stroke="none"/>
        <circle cx="5.5" cy="5.5" r="5" fill="none"/>
      </g>
      <g id="Ellipse_1203" data-name="Ellipse 1203" transform="translate(1072 8560)" stroke="#fff" stroke-width="1">
        <circle cx="5.5" cy="5.5" r="5.5" stroke="none"/>
        <circle cx="5.5" cy="5.5" r="5" fill="none"/>
      </g>
      <g id="Ellipse_1204" data-name="Ellipse 1204" transform="translate(1082 8554)" stroke="#fff" stroke-width="1">
        <circle cx="5.5" cy="5.5" r="5.5" stroke="none"/>
        <circle cx="5.5" cy="5.5" r="5" fill="none"/>
      </g>
      <g id="Ellipse_1205" data-name="Ellipse 1205" transform="translate(1095 8574)" stroke="#fff" stroke-width="1">
        <circle cx="5.5" cy="5.5" r="5.5" stroke="none"/>
        <circle cx="5.5" cy="5.5" r="5" fill="none"/>
      </g>
      <g id="Ellipse_1206" data-name="Ellipse 1206" transform="translate(1057 8535)" stroke="#fff" stroke-width="1">
        <circle cx="5.5" cy="5.5" r="5.5" stroke="none"/>
        <circle cx="5.5" cy="5.5" r="5" fill="none"/>
      </g>
      <g id="Ellipse_1207" data-name="Ellipse 1207" transform="translate(1046 8510)" stroke="#fff" stroke-width="1">
        <circle cx="5.5" cy="5.5" r="5.5" stroke="none"/>
        <circle cx="5.5" cy="5.5" r="5" fill="none"/>
      </g>
      <g id="Ellipse_1208" data-name="Ellipse 1208" transform="translate(1061 8505)" stroke="#fff" stroke-width="1">
        <circle cx="5.5" cy="5.5" r="5.5" stroke="none"/>
        <circle cx="5.5" cy="5.5" r="5" fill="none"/>
      </g>
      <g id="Ellipse_1209" data-name="Ellipse 1209" transform="translate(1071 8527)" stroke="#fff" stroke-width="1">
        <circle cx="5.5" cy="5.5" r="5.5" stroke="none"/>
        <circle cx="5.5" cy="5.5" r="5" fill="none"/>
      </g>
      <g id="Ellipse_1210" data-name="Ellipse 1210" transform="translate(1077 8533)" stroke="#fff" stroke-width="1">
        <circle cx="5.5" cy="5.5" r="5.5" stroke="none"/>
        <circle cx="5.5" cy="5.5" r="5" fill="none"/>
      </g>
      <g id="Ellipse_1211" data-name="Ellipse 1211" transform="translate(1080 8525)" stroke="#fff" stroke-width="1">
        <circle cx="5.5" cy="5.5" r="5.5" stroke="none"/>
        <circle cx="5.5" cy="5.5" r="5" fill="none"/>
      </g>
      <g id="Ellipse_1212" data-name="Ellipse 1212" transform="translate(1082 8514)" stroke="#fff" stroke-width="1">
        <circle cx="5.5" cy="5.5" r="5.5" stroke="none"/>
        <circle cx="5.5" cy="5.5" r="5" fill="none"/>
      </g>
      <g id="Ellipse_1213" data-name="Ellipse 1213" transform="translate(1095 8520)" stroke="#fff" stroke-width="1">
        <circle cx="5.5" cy="5.5" r="5.5" stroke="none"/>
        <circle cx="5.5" cy="5.5" r="5" fill="none"/>
      </g>
      <g id="Ellipse_1214" data-name="Ellipse 1214" transform="translate(1095 8536)" stroke="#fff" stroke-width="1">
        <circle cx="5.5" cy="5.5" r="5.5" stroke="none"/>
        <circle cx="5.5" cy="5.5" r="5" fill="none"/>
      </g>
      <g id="Ellipse_1215" data-name="Ellipse 1215" transform="translate(1096 8543)" stroke="#fff" stroke-width="1">
        <circle cx="5.5" cy="5.5" r="5.5" stroke="none"/>
        <circle cx="5.5" cy="5.5" r="5" fill="none"/>
      </g>
      <g id="Ellipse_1216" data-name="Ellipse 1216" transform="translate(1106 8545)" stroke="#fff" stroke-width="1">
        <circle cx="5.5" cy="5.5" r="5.5" stroke="none"/>
        <circle cx="5.5" cy="5.5" r="5" fill="none"/>
      </g>
      <g id="Ellipse_1217" data-name="Ellipse 1217" transform="translate(1125 8536)" stroke="#fff" stroke-width="1">
        <circle cx="5.5" cy="5.5" r="5.5" stroke="none"/>
        <circle cx="5.5" cy="5.5" r="5" fill="none"/>
      </g>
      <g id="Ellipse_1218" data-name="Ellipse 1218" transform="translate(1125 8530)" stroke="#fff" stroke-width="1">
        <circle cx="5.5" cy="5.5" r="5.5" stroke="none"/>
        <circle cx="5.5" cy="5.5" r="5" fill="none"/>
      </g>
      <g id="Ellipse_1219" data-name="Ellipse 1219" transform="translate(1133 8537)" stroke="#fff" stroke-width="1">
        <circle cx="5.5" cy="5.5" r="5.5" stroke="none"/>
        <circle cx="5.5" cy="5.5" r="5" fill="none"/>
      </g>
      <g id="Ellipse_1221" data-name="Ellipse 1221" transform="translate(1114 8519)" stroke="#fff" stroke-width="1">
        <circle cx="5.5" cy="5.5" r="5.5" stroke="none"/>
        <circle cx="5.5" cy="5.5" r="5" fill="none"/>
      </g>
      <g id="Ellipse_1222" data-name="Ellipse 1222" transform="translate(1096 8501)" stroke="#fff" stroke-width="1">
        <circle cx="5.5" cy="5.5" r="5.5" stroke="none"/>
        <circle cx="5.5" cy="5.5" r="5" fill="none"/>
      </g>
      <g id="Ellipse_1223" data-name="Ellipse 1223" transform="translate(1122 8503)" stroke="#fff" stroke-width="1">
        <circle cx="5.5" cy="5.5" r="5.5" stroke="none"/>
        <circle cx="5.5" cy="5.5" r="5" fill="none"/>
      </g>
      <g id="Ellipse_1224" data-name="Ellipse 1224" transform="translate(1128 8492)" stroke="#fff" stroke-width="1">
        <circle cx="5.5" cy="5.5" r="5.5" stroke="none"/>
        <circle cx="5.5" cy="5.5" r="5" fill="none"/>
      </g>
      <g id="Ellipse_1229" data-name="Ellipse 1229" transform="translate(1146 8494)" stroke="#fff" stroke-width="1">
        <circle cx="5.5" cy="5.5" r="5.5" stroke="none"/>
        <circle cx="5.5" cy="5.5" r="5" fill="none"/>
      </g>
      <g id="Ellipse_1230" data-name="Ellipse 1230" transform="translate(1142 8498)" stroke="#fff" stroke-width="1">
        <circle cx="5.5" cy="5.5" r="5.5" stroke="none"/>
        <circle cx="5.5" cy="5.5" r="5" fill="none"/>
      </g>
      <g id="Ellipse_1231" data-name="Ellipse 1231" transform="translate(1149 8500)" stroke="#fff" stroke-width="1">
        <circle cx="5.5" cy="5.5" r="5.5" stroke="none"/>
        <circle cx="5.5" cy="5.5" r="5" fill="none"/>
      </g>
      <g id="Ellipse_1232" data-name="Ellipse 1232" transform="translate(1152 8519)" stroke="#fff" stroke-width="1">
        <circle cx="5.5" cy="5.5" r="5.5" stroke="none"/>
        <circle cx="5.5" cy="5.5" r="5" fill="none"/>
      </g>
      <g id="Ellipse_1233" data-name="Ellipse 1233" transform="translate(1166 8493)" stroke="#fff" stroke-width="1">
        <circle cx="5.5" cy="5.5" r="5.5" stroke="none"/>
        <circle cx="5.5" cy="5.5" r="5" fill="none"/>
      </g>
      <g id="Ellipse_1234" data-name="Ellipse 1234" transform="translate(1178 8496)" stroke="#fff" stroke-width="1">
        <circle cx="5.5" cy="5.5" r="5.5" stroke="none"/>
        <circle cx="5.5" cy="5.5" r="5" fill="none"/>
      </g>
      <g id="Ellipse_1235" data-name="Ellipse 1235" transform="translate(1170 8504)" stroke="#fff" stroke-width="1">
        <circle cx="5.5" cy="5.5" r="5.5" stroke="none"/>
        <circle cx="5.5" cy="5.5" r="5" fill="none"/>
      </g>
      <g id="Ellipse_1236" data-name="Ellipse 1236" transform="translate(1173 8515)" stroke="#fff" stroke-width="1">
        <circle cx="5.5" cy="5.5" r="5.5" stroke="none"/>
        <circle cx="5.5" cy="5.5" r="5" fill="none"/>
      </g>
      <g id="Ellipse_1237" data-name="Ellipse 1237" transform="translate(1182 8525)" stroke="#fff" stroke-width="1">
        <circle cx="5.5" cy="5.5" r="5.5" stroke="none"/>
        <circle cx="5.5" cy="5.5" r="5" fill="none"/>
      </g>
      <g id="Ellipse_1238" data-name="Ellipse 1238" transform="translate(1172 8536)" stroke="#fff" stroke-width="1">
        <circle cx="5.5" cy="5.5" r="5.5" stroke="none"/>
        <circle cx="5.5" cy="5.5" r="5" fill="none"/>
      </g>
      <g id="Ellipse_1239" data-name="Ellipse 1239" transform="translate(1226 8561)" stroke="#fff" stroke-width="1">
        <circle cx="5.5" cy="5.5" r="5.5" stroke="none"/>
        <circle cx="5.5" cy="5.5" r="5" fill="none"/>
      </g>
      <g id="Ellipse_1240" data-name="Ellipse 1240" transform="translate(1207 8506)" stroke="#fff" stroke-width="1">
        <circle cx="5.5" cy="5.5" r="5.5" stroke="none"/>
        <circle cx="5.5" cy="5.5" r="5" fill="none"/>
      </g>
      <g id="Ellipse_1241" data-name="Ellipse 1241" transform="translate(1179 8477)" stroke="#fff" stroke-width="1">
        <circle cx="5.5" cy="5.5" r="5.5" stroke="none"/>
        <circle cx="5.5" cy="5.5" r="5" fill="none"/>
      </g>
      <g id="Ellipse_1242" data-name="Ellipse 1242" transform="translate(1195 8449)" stroke="#fff" stroke-width="1">
        <circle cx="5.5" cy="5.5" r="5.5" stroke="none"/>
        <circle cx="5.5" cy="5.5" r="5" fill="none"/>
      </g>
      <g id="Ellipse_1243" data-name="Ellipse 1243" transform="translate(1201 8447)" stroke="#fff" stroke-width="1">
        <circle cx="5.5" cy="5.5" r="5.5" stroke="none"/>
        <circle cx="5.5" cy="5.5" r="5" fill="none"/>
      </g>
      <g id="Ellipse_1245" data-name="Ellipse 1245" transform="translate(1223 8452)" stroke="#fff" stroke-width="1">
        <circle cx="5.5" cy="5.5" r="5.5" stroke="none"/>
        <circle cx="5.5" cy="5.5" r="5" fill="none"/>
      </g>
      <g id="Ellipse_1246" data-name="Ellipse 1246" transform="translate(1242 8476)" stroke="#fff" stroke-width="1">
        <circle cx="5.5" cy="5.5" r="5.5" stroke="none"/>
        <circle cx="5.5" cy="5.5" r="5" fill="none"/>
      </g>
      <g id="Ellipse_1247" data-name="Ellipse 1247" transform="translate(1258 8438)" stroke="#fff" stroke-width="1">
        <circle cx="5.5" cy="5.5" r="5.5" stroke="none"/>
        <circle cx="5.5" cy="5.5" r="5" fill="none"/>
      </g>
      <g id="Ellipse_1248" data-name="Ellipse 1248" transform="translate(1272 8424)" stroke="#fff" stroke-width="1">
        <circle cx="5.5" cy="5.5" r="5.5" stroke="none"/>
        <circle cx="5.5" cy="5.5" r="5" fill="none"/>
      </g>
      <g id="Ellipse_1249" data-name="Ellipse 1249" transform="translate(1291 8474)" stroke="#fff" stroke-width="1">
        <circle cx="5.5" cy="5.5" r="5.5" stroke="none"/>
        <circle cx="5.5" cy="5.5" r="5" fill="none"/>
      </g>
      <g id="Ellipse_1250" data-name="Ellipse 1250" transform="translate(1300 8490)" stroke="#fff" stroke-width="1">
        <circle cx="5.5" cy="5.5" r="5.5" stroke="none"/>
        <circle cx="5.5" cy="5.5" r="5" fill="none"/>
      </g>
      <g id="Ellipse_1251" data-name="Ellipse 1251" transform="translate(1372 8478)" stroke="#fff" stroke-width="1">
        <circle cx="5.5" cy="5.5" r="5.5" stroke="none"/>
        <circle cx="5.5" cy="5.5" r="5" fill="none"/>
      </g>
      <g id="Ellipse_1252" data-name="Ellipse 1252" transform="translate(1342 8411)" stroke="#fff" stroke-width="1">
        <circle cx="5.5" cy="5.5" r="5.5" stroke="none"/>
        <circle cx="5.5" cy="5.5" r="5" fill="none"/>
      </g>
      <g id="Ellipse_1253" data-name="Ellipse 1253" transform="translate(1328 8383)" stroke="#fff" stroke-width="1">
        <circle cx="5.5" cy="5.5" r="5.5" stroke="none"/>
        <circle cx="5.5" cy="5.5" r="5" fill="none"/>
      </g>
      <g id="Ellipse_1254" data-name="Ellipse 1254" transform="translate(1323 8381)" stroke="#fff" stroke-width="1">
        <circle cx="5.5" cy="5.5" r="5.5" stroke="none"/>
        <circle cx="5.5" cy="5.5" r="5" fill="none"/>
      </g>
      <g id="Ellipse_1255" data-name="Ellipse 1255" transform="translate(1309 8372)" stroke="#fff" stroke-width="1">
        <circle cx="5.5" cy="5.5" r="5.5" stroke="none"/>
        <circle cx="5.5" cy="5.5" r="5" fill="none"/>
      </g>
      <g id="Ellipse_1256" data-name="Ellipse 1256" transform="translate(1278 8378)" stroke="#fff" stroke-width="1">
        <circle cx="5.5" cy="5.5" r="5.5" stroke="none"/>
        <circle cx="5.5" cy="5.5" r="5" fill="none"/>
      </g>
      <g id="Ellipse_1257" data-name="Ellipse 1257" transform="translate(1261 8311)" stroke="#fff" stroke-width="1">
        <circle cx="5.5" cy="5.5" r="5.5" stroke="none"/>
        <circle cx="5.5" cy="5.5" r="5" fill="none"/>
      </g>
      <g id="Ellipse_1244" data-name="Ellipse 1244" transform="translate(1171 8441)" stroke="#fff" stroke-width="1">
        <circle cx="5.5" cy="5.5" r="5.5" stroke="none"/>
        <circle cx="5.5" cy="5.5" r="5" fill="none"/>
      </g>
      <g id="Ellipse_1225" data-name="Ellipse 1225" transform="translate(1128 8474)" stroke="#fff" stroke-width="1">
        <circle cx="5.5" cy="5.5" r="5.5" stroke="none"/>
        <circle cx="5.5" cy="5.5" r="5" fill="none"/>
      </g>
      <g id="Ellipse_1226" data-name="Ellipse 1226" transform="translate(1111 8470)" stroke="#fff" stroke-width="1">
        <circle cx="5.5" cy="5.5" r="5.5" stroke="none"/>
        <circle cx="5.5" cy="5.5" r="5" fill="none"/>
      </g>
      <g id="Ellipse_1227" data-name="Ellipse 1227" transform="translate(1104 8469)" stroke="#fff" stroke-width="1">
        <circle cx="5.5" cy="5.5" r="5.5" stroke="none"/>
        <circle cx="5.5" cy="5.5" r="5" fill="none"/>
      </g>
      <g id="Ellipse_1228" data-name="Ellipse 1228" transform="translate(1104 8425)" stroke="#fff" stroke-width="1">
        <circle cx="5.5" cy="5.5" r="5.5" stroke="none"/>
        <circle cx="5.5" cy="5.5" r="5" fill="none"/>
      </g>
      <g id="Ellipse_1220" data-name="Ellipse 1220" transform="translate(1135 8547)" stroke="#fff" stroke-width="1">
        <circle cx="5.5" cy="5.5" r="5.5" stroke="none"/>
        <circle cx="5.5" cy="5.5" r="5" fill="none"/>
      </g>
      <g id="Ellipse_1190" data-name="Ellipse 1190" transform="translate(1012 8559)" stroke="#fff" stroke-width="1">
        <circle cx="5.5" cy="5.5" r="5.5" stroke="none"/>
        <circle cx="5.5" cy="5.5" r="5" fill="none"/>
      </g>
      <g id="Ellipse_1191" data-name="Ellipse 1191" transform="translate(1025 8546)" stroke="#fff" stroke-width="1">
        <circle cx="5.5" cy="5.5" r="5.5" stroke="none"/>
        <circle cx="5.5" cy="5.5" r="5" fill="none"/>
      </g>
      <g id="Ellipse_1192" data-name="Ellipse 1192" transform="translate(1037 8546)" stroke="#fff" stroke-width="1">
        <circle cx="5.5" cy="5.5" r="5.5" stroke="none"/>
        <circle cx="5.5" cy="5.5" r="5" fill="none"/>
      </g>
      <g id="Ellipse_1193" data-name="Ellipse 1193" transform="translate(1036 8535)" stroke="#fff" stroke-width="1">
        <circle cx="5.5" cy="5.5" r="5.5" stroke="none"/>
        <circle cx="5.5" cy="5.5" r="5" fill="none"/>
      </g>
      <g id="Ellipse_1194" data-name="Ellipse 1194" transform="translate(1012 8521)" stroke="#fff" stroke-width="1">
        <circle cx="5.5" cy="5.5" r="5.5" stroke="none"/>
        <circle cx="5.5" cy="5.5" r="5" fill="none"/>
      </g>
      <path id="Path_16358" data-name="Path 16358" d="M-18333.928-12431l430.189-174.859" transform="translate(19276 21021)" fill="none" stroke="#000" stroke-linecap="round" stroke-width="2" stroke-dasharray="0 6"/>
      <g id="Ellipse_1259" data-name="Ellipse 1259" transform="translate(1015 8567)" stroke="#fff" stroke-width="1">
        <circle cx="5.5" cy="5.5" r="5.5" stroke="none"/>
        <circle cx="5.5" cy="5.5" r="5" fill="none"/>
      </g>
    </g>
    <text id="_80x_70x_60x_50x_40x_30x_20x_10x_0x" data-name="80x
70x
60x
50x
40x
30x
20x
10x
0x" transform="translate(871 8857)" font-size="18" font-family="Bely-Regular, Bely"><tspan x="-27.864" y="0">80x</tspan><tspan x="-26.784" y="39">70x</tspan><tspan x="-27.81" y="78">60x</tspan><tspan x="-26.82" y="117">50x</tspan><tspan x="-28.188" y="156">40x</tspan><tspan x="-26.784" y="195">30x</tspan><tspan x="-26.748" y="234">20x</tspan><tspan x="-26.424" y="273">10x</tspan><tspan x="-18.918" y="312">0x</tspan></text>
    <text id="_-20_" data-name="-20%" transform="translate(788 9190)" font-size="18" font-family="Bely-Regular, Bely"><tspan x="-17.01" y="0">-20%</tspan></text>
    <text id="TTM_Revenue_Multiple" data-name="TTM Revenue Multiple" transform="translate(774 9002) rotate(-90)" font-size="16" font-family="OV-Bold, OV" font-weight="700"><tspan x="-94.336" y="0">TTM Revenue Multiple</tspan></text>
    <text id="_2021E_Revenue_Growth_Rate" data-name="2021E Revenue Growth Rate" transform="translate(1120 9229)" font-size="16" font-family="OV-Bold, OV" font-weight="700"><tspan x="-123.208" y="0">2021E Revenue Growth Rate</tspan></text>
    <text id="R2_0.5937" data-name="R2 = 0.5937" transform="translate(1418 8926)" font-size="16" font-family="OV"><tspan x="-45.795" y="0">R</tspan><tspan y="0" font-size="9.333" baseline-shift="5.33279994943018">2</tspan><tspan y="0" xml:space="preserve"> = 0.5937</tspan></text>
    <text id="_0_" data-name="0%" transform="translate(920 9190)" font-size="18" font-family="Bely-Regular, Bely"><tspan x="-10.17" y="0">0%</tspan></text>
    <text id="_20_" data-name="20%" transform="translate(1056 9190)" font-size="18" font-family="Bely-Regular, Bely"><tspan x="-14.085" y="0">20%</tspan></text>
    <text id="_40_" data-name="40%" transform="translate(1190 9190)" font-size="18" font-family="Bely-Regular, Bely"><tspan x="-14.805" y="0">40%</tspan></text>
    <text id="_60_" data-name="60%" transform="translate(1327 9190)" font-size="18" font-family="Bely-Regular, Bely"><tspan x="-14.616" y="0">60%</tspan></text>
    <text id="_80_" data-name="80%" transform="translate(1464 9190)" font-size="18" font-family="Bely-Regular, Bely"><tspan x="-14.643" y="0">80%</tspan></text>
    <rect id="Rectangle_843" data-name="Rectangle 843" width="672" height="1" transform="translate(787 9164)"/>
    <rect id="Rectangle_844" data-name="Rectangle 844" width="1" height="314" transform="translate(921 8850)"/>
  </g>
</svg>
