<svg xmlns="http://www.w3.org/2000/svg" width="770.996" height="200" viewBox="0 0 770.996 200">
  <g id="chart-respondent-1" transform="translate(-770.004 -6677)">
    <text id="By_Role" data-name="By Role" transform="translate(828.72 6787)" font-size="30" font-family="Bely-Italic, Bely" font-style="italic"><tspan x="0" y="0">By Role</tspan></text>
    <g id="Group_291" data-name="Group 291" transform="translate(0 460)">
      <path id="Path_16210" data-name="Path 16210" d="M0-120A100,100,0,0,1,100-20,100,100,0,0,1,0,80V60A80,80,0,0,0,80-20,80,80,0,0,0,0-100Z" transform="translate(870 6337)" fill="#f85b34"/>
      <path id="Path_16211" data-name="Path 16211" d="M-20,93.82A100,100,0,0,1-100.9,52.6,100,100,0,0,1-115.1-37.08l19.021,6.18A80,80,0,0,0-84.721,40.843,80,80,0,0,0-20,73.82Z" transform="translate(890 6323.18)" fill="#0c4888"/>
      <path id="Path_16212" data-name="Path 16212" d="M-114.127-44.593A100,100,0,0,1-91.918-82.146l14.579,13.691A80,80,0,0,0-95.106-38.412Z" transform="translate(889.021 6330.691)" fill="#fb9e15"/>
      <path id="Path_16213" data-name="Path 16213" d="M-87.476-86.551a100,100,0,0,1,30.319-22.028l8.516,18.1A80,80,0,0,0-72.9-72.86Z" transform="translate(884.579 6335.097)" fill="#2fce7b"/>
      <path id="Path_16214" data-name="Path 16214" d="M-51.094-110.325a100,100,0,0,1,30.045-8.729l2.507,19.842a80,80,0,0,0-24.036,6.983Z" transform="translate(878.516 6336.842)" fill="#7cacd3"/>
      <path id="Path_16215" data-name="Path 16215" d="M-15.04-119.211A100,100,0,0,1-2.507-120v20a79.993,79.993,0,0,0-10.024.631Z" transform="translate(872.507 6337)" fill="#909c9c"/>
    </g>
    <text id="COO_VP_-_Operations" data-name="COO/VP - Operations" transform="translate(1116 6854)" font-size="18" font-family="Bely-Regular, Bely"><tspan x="0" y="0">COO/VP - Operations</tspan></text>
    <rect id="Rectangle_762" data-name="Rectangle 762" width="36" height="8" transform="translate(1116 6827)" fill="#fb9e15"/>
    <text id="CFO_VP_-_Finance" data-name="CFO/VP - Finance" transform="translate(1116 6793)" font-size="18" font-family="Bely-Regular, Bely"><tspan x="0" y="0">CFO/VP - Finance</tspan></text>
    <rect id="Rectangle_760" data-name="Rectangle 760" width="36" height="8" transform="translate(1116 6766)" fill="#0c4888"/>
    <text id="CEO_Founder" data-name="CEO/Founder" transform="translate(1116 6732)" font-size="18" font-family="Bely-Regular, Bely"><tspan x="0" y="0">CEO/Founder</tspan></text>
    <rect id="Rectangle_759" data-name="Rectangle 759" width="36" height="8" transform="translate(1116 6705)" fill="#f85b34"/>
    <path id="_50_" data-name="50%" d="M2.08-.542V-4.5A8.635,8.635,0,0,0,6.665-3.179,4.307,4.307,0,0,0,9.529-4.05a2.934,2.934,0,0,0,1.033-2.366q0-3.12-4.409-3.12a32.649,32.649,0,0,0-3.75.249l.791-11.719H14.312v3.779H6.724l-.293,4.2q1.128-.088,1.948-.088a7.164,7.164,0,0,1,5.068,1.7,5.934,5.934,0,0,1,1.831,4.57A6.746,6.746,0,0,1,13.1-1.648,8.386,8.386,0,0,1,7.178.366,12.663,12.663,0,0,1,2.08-.542ZM25.767.366q-7.5,0-7.5-10.532,0-5.464,2.029-8.328a6.76,6.76,0,0,1,5.881-2.864q7.324,0,7.324,10.708,0,5.332-2,8.174A6.587,6.587,0,0,1,25.767.366Zm.205-18.193q-3,0-3,7.544,0,7.1,2.944,7.1,2.871,0,2.871-7.324T25.972-17.827Zm14.839,7.471A4.786,4.786,0,0,1,37.2-11.777,5.277,5.277,0,0,1,35.83-15.6a5.8,5.8,0,0,1,1.458-4.16A5.106,5.106,0,0,1,41.177-21.3a4.759,4.759,0,0,1,3.64,1.392A5.482,5.482,0,0,1,46.128-16a5.723,5.723,0,0,1-1.45,4.116A5.089,5.089,0,0,1,40.811-10.356Zm.278-8.364q-2.139,0-2.139,2.974,0,2.813,2.036,2.813,2.08,0,2.08-2.93Q43.066-18.721,41.089-18.721Zm15.059-2.285L42.466,0H38.892L52.544-21.006ZM53.892.293a4.786,4.786,0,0,1-3.611-1.421,5.277,5.277,0,0,1-1.37-3.823,5.8,5.8,0,0,1,1.458-4.16,5.106,5.106,0,0,1,3.889-1.538,4.781,4.781,0,0,1,3.647,1.377,5.447,5.447,0,0,1,1.3,3.9,5.776,5.776,0,0,1-1.45,4.131A5.064,5.064,0,0,1,53.892.293Zm.234-8.364Q52-8.071,52-5.1q0,2.813,2.065,2.813t2.08-2.93a3.475,3.475,0,0,0-.557-2.109A1.741,1.741,0,0,0,54.126-8.071Z" transform="translate(1035.11 6728)"/>
    <path id="_30_" data-name="30%" d="M1.714-.688V-4.717A8.131,8.131,0,0,0,6.636-3.179,4.431,4.431,0,0,0,9.4-3.94a2.529,2.529,0,0,0,.989-2.124A2.414,2.414,0,0,0,9.163-8.232,6.337,6.337,0,0,0,5.8-8.994H3.853v-3.545h1.8q4.1,0,4.1-2.725,0-2.563-3.149-2.563a7.18,7.18,0,0,0-4.1,1.362v-3.779a11.328,11.328,0,0,1,5.156-1.113,7.781,7.781,0,0,1,5.017,1.45,4.615,4.615,0,0,1,1.794,3.765q0,4.116-4.175,5.156v.073a5.676,5.676,0,0,1,3.516,1.619A4.564,4.564,0,0,1,15.1-6.006a5.636,5.636,0,0,1-2.153,4.658A9.31,9.31,0,0,1,7,.366,11.494,11.494,0,0,1,1.714-.688ZM25.767.366q-7.5,0-7.5-10.532,0-5.464,2.029-8.328a6.76,6.76,0,0,1,5.881-2.864q7.324,0,7.324,10.708,0,5.332-2,8.174A6.587,6.587,0,0,1,25.767.366Zm.205-18.193q-3,0-3,7.544,0,7.1,2.944,7.1,2.871,0,2.871-7.324T25.972-17.827Zm14.839,7.471A4.786,4.786,0,0,1,37.2-11.777,5.277,5.277,0,0,1,35.83-15.6a5.8,5.8,0,0,1,1.458-4.16A5.106,5.106,0,0,1,41.177-21.3a4.759,4.759,0,0,1,3.64,1.392A5.482,5.482,0,0,1,46.128-16a5.723,5.723,0,0,1-1.45,4.116A5.089,5.089,0,0,1,40.811-10.356Zm.278-8.364q-2.139,0-2.139,2.974,0,2.813,2.036,2.813,2.08,0,2.08-2.93Q43.066-18.721,41.089-18.721Zm15.059-2.285L42.466,0H38.892L52.544-21.006ZM53.892.293a4.786,4.786,0,0,1-3.611-1.421,5.277,5.277,0,0,1-1.37-3.823,5.8,5.8,0,0,1,1.458-4.16,5.106,5.106,0,0,1,3.889-1.538,4.781,4.781,0,0,1,3.647,1.377,5.447,5.447,0,0,1,1.3,3.9,5.776,5.776,0,0,1-1.45,4.131A5.064,5.064,0,0,1,53.892.293Zm.234-8.364Q52-8.071,52-5.1q0,2.813,2.065,2.813t2.08-2.93a3.475,3.475,0,0,0-.557-2.109A1.741,1.741,0,0,0,54.126-8.071Z" transform="translate(1032.91 6789)"/>
    <path id="_7_" data-name="7%" d="M16.025-18.34q-1.406,2.534-2.52,4.753t-1.963,4.38a41.305,41.305,0,0,0-1.45,4.395A42.447,42.447,0,0,0,9.111,0H4.277A39.552,39.552,0,0,1,5.361-4.717a44.235,44.235,0,0,1,1.56-4.4q.886-2.131,1.963-4.153t2.278-3.955H1.406v-3.779H16.025Zm7.529,7.983a4.786,4.786,0,0,1-3.611-1.421,5.277,5.277,0,0,1-1.37-3.823,5.8,5.8,0,0,1,1.458-4.16A5.106,5.106,0,0,1,23.921-21.3a4.759,4.759,0,0,1,3.64,1.392A5.482,5.482,0,0,1,28.872-16a5.723,5.723,0,0,1-1.45,4.116A5.089,5.089,0,0,1,23.555-10.356Zm.278-8.364q-2.139,0-2.139,2.974,0,2.813,2.036,2.813,2.08,0,2.08-2.93Q25.811-18.721,23.833-18.721Zm15.059-2.285L25.21,0H21.636L35.288-21.006ZM36.636.293a4.786,4.786,0,0,1-3.611-1.421,5.277,5.277,0,0,1-1.37-3.823,5.8,5.8,0,0,1,1.458-4.16A5.106,5.106,0,0,1,37-10.649a4.781,4.781,0,0,1,3.647,1.377,5.447,5.447,0,0,1,1.3,3.9A5.776,5.776,0,0,1,40.5-1.245,5.064,5.064,0,0,1,36.636.293Zm.234-8.364q-2.124,0-2.124,2.974,0,2.813,2.065,2.813t2.08-2.93a3.475,3.475,0,0,0-.557-2.109A1.741,1.741,0,0,0,36.87-8.071Z" transform="translate(1057.3 6850)"/>
    <text id="Other" transform="translate(1375.05 6732)" font-size="18" font-family="Bely-Regular, Bely"><tspan x="0" y="0">Other</tspan></text>
    <rect id="Rectangle_764" data-name="Rectangle 764" width="36" height="8" transform="translate(1375.05 6705)" fill="#909c9c"/>
    <text id="CMO_VP_-_Marketing" data-name="CMO / VP - Marketing" transform="translate(1373 6854)" font-size="18" font-family="Bely-Regular, Bely"><tspan x="0" y="0">CMO / VP - Marketing</tspan></text>
    <rect id="Rectangle_763" data-name="Rectangle 763" width="36" height="8" transform="translate(1373 6827)" fill="#7cacd3"/>
    <text id="CRO_VP_-_Sales" data-name="CRO / VP - Sales" transform="translate(1373 6793)" font-size="18" font-family="Bely-Regular, Bely"><tspan x="0" y="0">CRO / VP - Sales</tspan></text>
    <rect id="Rectangle_761" data-name="Rectangle 761" width="36" height="8" transform="translate(1373 6766)" fill="#2fce7b"/>
    <path id="_4_" data-name="4%" d="M13.945-21.006V-7.764h2.52v3.457h-2.52V0H9.727V-4.307H.571V-7.925q1.216-1.362,2.52-2.981t2.52-3.333q1.216-1.714,2.263-3.45a34.581,34.581,0,0,0,1.78-3.318ZM4.717-7.764h5.01V-15.1q-.513.952-1.113,1.926t-1.26,1.919q-.659.945-1.333,1.831T4.717-7.764Zm18.838-2.593a4.786,4.786,0,0,1-3.611-1.421,5.277,5.277,0,0,1-1.37-3.823,5.8,5.8,0,0,1,1.458-4.16A5.106,5.106,0,0,1,23.921-21.3a4.759,4.759,0,0,1,3.64,1.392A5.482,5.482,0,0,1,28.872-16a5.723,5.723,0,0,1-1.45,4.116A5.089,5.089,0,0,1,23.555-10.356Zm.278-8.364q-2.139,0-2.139,2.974,0,2.813,2.036,2.813,2.08,0,2.08-2.93Q25.811-18.721,23.833-18.721Zm15.059-2.285L25.21,0H21.636L35.288-21.006ZM36.636.293a4.786,4.786,0,0,1-3.611-1.421,5.277,5.277,0,0,1-1.37-3.823,5.8,5.8,0,0,1,1.458-4.16A5.106,5.106,0,0,1,37-10.649a4.781,4.781,0,0,1,3.647,1.377,5.447,5.447,0,0,1,1.3,3.9A5.776,5.776,0,0,1,40.5-1.245,5.064,5.064,0,0,1,36.636.293Zm.234-8.364q-2.124,0-2.124,2.974,0,2.813,2.065,2.813t2.08-2.93a3.475,3.475,0,0,0-.557-2.109A1.741,1.741,0,0,0,36.87-8.071Z" transform="translate(1313.2 6789)"/>
    <path id="_3_" data-name="3%" d="M1.714-.688V-4.717A8.131,8.131,0,0,0,6.636-3.179,4.431,4.431,0,0,0,9.4-3.94a2.529,2.529,0,0,0,.989-2.124A2.414,2.414,0,0,0,9.163-8.232,6.337,6.337,0,0,0,5.8-8.994H3.853v-3.545h1.8q4.1,0,4.1-2.725,0-2.563-3.149-2.563a7.18,7.18,0,0,0-4.1,1.362v-3.779a11.328,11.328,0,0,1,5.156-1.113,7.781,7.781,0,0,1,5.017,1.45,4.615,4.615,0,0,1,1.794,3.765q0,4.116-4.175,5.156v.073a5.676,5.676,0,0,1,3.516,1.619A4.564,4.564,0,0,1,15.1-6.006a5.636,5.636,0,0,1-2.153,4.658A9.31,9.31,0,0,1,7,.366,11.494,11.494,0,0,1,1.714-.688Zm21.841-9.668a4.786,4.786,0,0,1-3.611-1.421,5.277,5.277,0,0,1-1.37-3.823,5.8,5.8,0,0,1,1.458-4.16A5.106,5.106,0,0,1,23.921-21.3a4.759,4.759,0,0,1,3.64,1.392A5.482,5.482,0,0,1,28.872-16a5.723,5.723,0,0,1-1.45,4.116A5.089,5.089,0,0,1,23.555-10.356Zm.278-8.364q-2.139,0-2.139,2.974,0,2.813,2.036,2.813,2.08,0,2.08-2.93Q25.811-18.721,23.833-18.721Zm15.059-2.285L25.21,0H21.636L35.288-21.006ZM36.636.293a4.786,4.786,0,0,1-3.611-1.421,5.277,5.277,0,0,1-1.37-3.823,5.8,5.8,0,0,1,1.458-4.16A5.106,5.106,0,0,1,37-10.649a4.781,4.781,0,0,1,3.647,1.377,5.447,5.447,0,0,1,1.3,3.9A5.776,5.776,0,0,1,40.5-1.245,5.064,5.064,0,0,1,36.636.293Zm.234-8.364q-2.124,0-2.124,2.974,0,2.813,2.065,2.813t2.08-2.93a3.475,3.475,0,0,0-.557-2.109A1.741,1.741,0,0,0,36.87-8.071Z" transform="translate(1312.05 6850)"/>
    <path id="_6_" data-name="6%" d="M16.26-6.987a7.7,7.7,0,0,1-.542,2.9A7.08,7.08,0,0,1,14.209-1.75,6.981,6.981,0,0,1,11.909-.2,7.405,7.405,0,0,1,8.994.366,7.353,7.353,0,0,1,5.823-.293,6.4,6.4,0,0,1,3.457-2.2,8.938,8.938,0,0,1,1.978-5.273,15.166,15.166,0,0,1,1.465-9.39,16.947,16.947,0,0,1,2.131-14.3a11.283,11.283,0,0,1,1.9-3.772,8.554,8.554,0,0,1,3-2.424,8.908,8.908,0,0,1,3.955-.857,9.976,9.976,0,0,1,3.779.571v3.867a6.93,6.93,0,0,0-3.486-.908,4.872,4.872,0,0,0-2.124.454,4.7,4.7,0,0,0-1.633,1.289A6.233,6.233,0,0,0,6.453-14.07a8.964,8.964,0,0,0-.417,2.629h.088a5.1,5.1,0,0,1,4.409-2.065,5.745,5.745,0,0,1,2.358.469,5.116,5.116,0,0,1,1.8,1.326A6.081,6.081,0,0,1,15.85-9.653,8.211,8.211,0,0,1,16.26-6.987Zm-4.526.293q0-3.384-2.769-3.384a2.716,2.716,0,0,0-1.143.234,2.542,2.542,0,0,0-.879.659,3.007,3.007,0,0,0-.564,1,3.944,3.944,0,0,0-.2,1.282,4.957,4.957,0,0,0,.205,1.45A3.851,3.851,0,0,0,6.965-4.27a2.865,2.865,0,0,0,.886.8,2.262,2.262,0,0,0,1.143.293,2.474,2.474,0,0,0,1.135-.256,2.542,2.542,0,0,0,.864-.718,3.3,3.3,0,0,0,.549-1.113A5.078,5.078,0,0,0,11.733-6.694Zm11.821-3.662a4.786,4.786,0,0,1-3.611-1.421,5.277,5.277,0,0,1-1.37-3.823,5.8,5.8,0,0,1,1.458-4.16A5.106,5.106,0,0,1,23.921-21.3a4.759,4.759,0,0,1,3.64,1.392A5.482,5.482,0,0,1,28.872-16a5.723,5.723,0,0,1-1.45,4.116A5.089,5.089,0,0,1,23.555-10.356Zm.278-8.364q-2.139,0-2.139,2.974,0,2.813,2.036,2.813,2.08,0,2.08-2.93Q25.811-18.721,23.833-18.721Zm15.059-2.285L25.21,0H21.636L35.288-21.006ZM36.636.293a4.786,4.786,0,0,1-3.611-1.421,5.277,5.277,0,0,1-1.37-3.823,5.8,5.8,0,0,1,1.458-4.16A5.106,5.106,0,0,1,37-10.649a4.781,4.781,0,0,1,3.647,1.377,5.447,5.447,0,0,1,1.3,3.9A5.776,5.776,0,0,1,40.5-1.245,5.064,5.064,0,0,1,36.636.293Zm.234-8.364q-2.124,0-2.124,2.974,0,2.813,2.065,2.813t2.08-2.93a3.475,3.475,0,0,0-.557-2.109A1.741,1.741,0,0,0,36.87-8.071Z" transform="translate(1313.2 6728)"/>
  </g>
</svg>
