<svg xmlns="http://www.w3.org/2000/svg" xmlns:xlink="http://www.w3.org/1999/xlink" width="708" height="338" viewBox="0 0 708 338">
  <defs>
    <clipPath id="clip-path">
      <rect id="Rectangle_1040" data-name="Rectangle 1040" width="611" height="175" fill="none"/>
    </clipPath>
  </defs>
  <g id="chart-ev" transform="translate(-804 -7901)">
    <g id="Repeat_Grid_17" data-name="Repeat Grid 17" transform="translate(901 7913)" clip-path="url(#clip-path)">
      <g id="Group_490" data-name="Group 490" transform="translate(-891 -7245)">
        <rect id="Rectangle_826" data-name="Rectangle 826" width="610" height="1" transform="translate(891 7245)"/>
      </g>
      <g id="Group_491" data-name="Group 491" transform="translate(-891 -7218)">
        <rect id="Rectangle_826-2" data-name="Rectangle 826" width="610" height="1" transform="translate(891 7245)"/>
      </g>
      <g id="Group_492" data-name="Group 492" transform="translate(-891 -7191)">
        <rect id="Rectangle_826-3" data-name="Rectangle 826" width="610" height="1" transform="translate(891 7245)"/>
      </g>
      <g id="Group_493" data-name="Group 493" transform="translate(-891 -7164)">
        <rect id="Rectangle_826-4" data-name="Rectangle 826" width="610" height="1" transform="translate(891 7245)"/>
      </g>
      <g id="Group_494" data-name="Group 494" transform="translate(-891 -7137)">
        <rect id="Rectangle_826-5" data-name="Rectangle 826" width="610" height="1" transform="translate(891 7245)"/>
      </g>
      <g id="Group_495" data-name="Group 495" transform="translate(-891 -7110)">
        <rect id="Rectangle_826-6" data-name="Rectangle 826" width="610" height="1" transform="translate(891 7245)"/>
      </g>
      <g id="Group_496" data-name="Group 496" transform="translate(-891 -7083)">
        <rect id="Rectangle_826-7" data-name="Rectangle 826" width="610" height="1" transform="translate(891 7245)"/>
      </g>
    </g>
    <path id="Path_16351" data-name="Path 16351" d="M-18337.7-13613l92.254-16.714,90.418-16.383,97.139,19.988,82.09,7.758,183.75-3.027" transform="translate(19286 21689)" fill="none" stroke="#06347b" stroke-width="4"/>
    <path id="Path_16352" data-name="Path 16352" d="M-18338.6-13625.2l96.064,3.749h184.447l83.994-6.116,91.789-12.209h90.873" transform="translate(19286 21689)" fill="none" stroke="#2fce7b" stroke-width="4"/>
    <path id="Path_16353" data-name="Path 16353" d="M-18338.6-13629.6h277.73l88.652-5.693,89.594-12.082,92.754,3.228" transform="translate(19286 21689)" fill="none" stroke="#ff9e15" stroke-width="4"/>
    <path id="Path_16354" data-name="Path 16354" d="M-18338.6-13639.8l96.457,8.547,92.57-8.547,87.863,1.552,89.324-10.816,92.123-46.449,89.5,19.054" transform="translate(19286 21689)" fill="none" stroke="#7cacd3" stroke-width="4"/>
    <g id="Group_354" data-name="Group 354" transform="translate(10 684)">
      <g id="Group_360" data-name="Group 360">
        <text id="_6.0x_9.1x_5.5x_3.6x_0.0x" data-name="6.0x 9.1x 5.5x 3.6x 0.0x" transform="translate(918 7455)" font-size="16" font-family="Bely-Regular, Bely"><tspan x="0" y="0">6.0x</tspan><tspan x="0" y="24">9.1x</tspan><tspan x="0" y="48">5.5x</tspan><tspan x="0" y="72">3.6x</tspan><tspan x="0" y="96">0.0x</tspan></text>
        <text id="_2015" data-name="2015" transform="translate(918 7430)" font-size="16" font-family="SegoeUI-Bold, Segoe UI" font-weight="700"><tspan x="0" y="0">2015</tspan></text>
      </g>
      <g id="Group_359" data-name="Group 359" transform="translate(27.999)">
        <text id="_7.4x_6.6x_5.2x_2.1x_5.7x" data-name="7.4x 6.6x 5.2x 2.1x 5.7x" transform="translate(980 7455)" font-size="16" font-family="Bely-Regular, Bely"><tspan x="0" y="0">7.4x</tspan><tspan x="0" y="24">6.6x</tspan><tspan x="0" y="48">5.2x</tspan><tspan x="0" y="72">2.1x</tspan><tspan x="0" y="96">5.7x</tspan></text>
        <text id="_2016" data-name="2016" transform="translate(980 7430)" font-size="16" font-family="SegoeUI-Bold, Segoe UI" font-weight="700"><tspan x="0" y="0">2016</tspan></text>
      </g>
      <g id="Group_357" data-name="Group 357" transform="translate(80)">
        <text id="_12.8x_9.4x_6.2x_2.6x_4.6x" data-name="12.8x 9.4x 6.2x 2.6x 4.6x" transform="translate(1109 7455)" font-size="16" font-family="Bely-Regular, Bely"><tspan x="0" y="0">12.8x</tspan><tspan x="0" y="24">9.4x</tspan><tspan x="0" y="48">6.2x</tspan><tspan x="0" y="72">2.6x</tspan><tspan x="0" y="96">4.6x</tspan></text>
        <text id="_2018" data-name="2018" transform="translate(1109 7430)" font-size="16" font-family="SegoeUI-Bold, Segoe UI" font-weight="700"><tspan x="0" y="0">2018</tspan></text>
      </g>
      <g id="Group_355" data-name="Group 355" transform="translate(124.001)">
        <text id="_50.2x_30.1x_12.5x_9.3x_2.3x" data-name="50.2x 30.1x 12.5x 9.3x 2.3x" transform="translate(1245 7455)" font-size="16" font-family="Bely-Regular, Bely"><tspan x="0" y="0">50.2x</tspan><tspan x="0" y="24">30.1x</tspan><tspan x="0" y="48">12.5x</tspan><tspan x="0" y="72">9.3x</tspan><tspan x="0" y="96">2.3x</tspan></text>
        <text id="_2020" data-name="2020" transform="translate(1245 7430)" font-size="16" font-family="SegoeUI-Bold, Segoe UI" font-weight="700"><tspan x="0" y="0">2020</tspan></text>
      </g>
      <g id="Group_358" data-name="Group 358" transform="translate(51.001)">
        <text id="_9.3x_9.4x_5.8x_2.4x_11.7x" data-name="9.3x 9.4x 5.8x 2.4x 11.7x" transform="translate(1048 7455)" font-size="16" font-family="Bely-Regular, Bely"><tspan x="0" y="0">9.3x</tspan><tspan x="0" y="24">9.4x</tspan><tspan x="0" y="48">5.8x</tspan><tspan x="0" y="72">2.4x</tspan><tspan x="0" y="96">11.7x</tspan></text>
        <text id="_2017" data-name="2017" transform="translate(1048 7430)" font-size="16" font-family="SegoeUI-Bold, Segoe UI" font-weight="700"><tspan x="0" y="0">2017</tspan></text>
      </g>
      <g id="Group_356" data-name="Group 356" transform="translate(100.999)">
        <text id="_16.8x_12.9x_8.2x_5.0x_1.6x" data-name="16.8x 12.9x 8.2x 5.0x 1.6x" transform="translate(1177 7455)" font-size="16" font-family="Bely-Regular, Bely"><tspan x="0" y="0">16.8x</tspan><tspan x="0" y="24">12.9x</tspan><tspan x="0" y="48">8.2x</tspan><tspan x="0" y="72">5.0x</tspan><tspan x="0" y="96">1.6x</tspan></text>
        <text id="_2019" data-name="2019" transform="translate(1177 7430)" font-size="16" font-family="SegoeUI-Bold, Segoe UI" font-weight="700"><tspan x="0" y="0">2019</tspan></text>
      </g>
      <g id="Group_361" data-name="Group 361">
        <text id="_45.3x_22.8x_11.1x_9.5x_2.7x" data-name="45.3x 22.8x 11.1x 9.5x 2.7x" transform="translate(1463 7455)" font-size="16" font-family="Bely-Regular, Bely"><tspan x="0" y="0">45.3x</tspan><tspan x="0" y="24">22.8x</tspan><tspan x="0" y="48">11.1x</tspan><tspan x="0" y="72">9.5x</tspan><tspan x="0" y="96">2.7x</tspan></text>
        <text id="_2021" data-name="2021" transform="translate(1463 7430)" font-size="16" font-family="SegoeUI-Bold, Segoe UI" font-weight="700"><tspan x="0" y="0">2021</tspan></text>
      </g>
    </g>
    <path id="Path_16355" data-name="Path 16355" d="M-17789.9-13735.5l-90.687-14.17-92.656,90.521-186.34,20.448-80.213,4.645-98.17,4.624" transform="translate(19286 21689)" fill="none" stroke="#ac4bb4" stroke-width="4"/>
    <g id="Group_362" data-name="Group 362" transform="translate(10 653)">
      <text id="_50_30_-50_10_-30_0_-10_Negative" data-name="50%+ 30%-50% 10%-30% 0%-10% Negative" transform="translate(835 7458)" font-size="16" font-family="Bely-Regular, Bely"><tspan x="0" y="0">50%+</tspan><tspan x="0" y="20">30%–50%</tspan><tspan x="0" y="40">10%–30%</tspan><tspan x="0" y="60">0%–10%</tspan><tspan x="0" y="80">Negative</tspan></text>
      <rect id="Rectangle_829" data-name="Rectangle 829" width="36" height="4" transform="translate(794 7453)" fill="#ac4bb4"/>
      <rect id="Rectangle_830" data-name="Rectangle 830" width="36" height="4" transform="translate(794 7512)" fill="#01ce7b"/>
      <rect id="Rectangle_831" data-name="Rectangle 831" width="36" height="4" transform="translate(794 7473)" fill="#7cacd3"/>
      <rect id="Rectangle_832" data-name="Rectangle 832" width="36" height="4" transform="translate(794 7531)" fill="#004888"/>
      <rect id="Rectangle_833" data-name="Rectangle 833" width="36" height="4" transform="translate(794 7492)" fill="#ff9e15"/>
    </g>
    <g id="Group">
      <text id="_60x" data-name="60x" transform="translate(864.28 7916)" font-size="16" font-family="Bely-Regular, Bely"><tspan x="0" y="0">60x</tspan></text>
      <text id="_50x" data-name="50x" transform="translate(865.16 7943)" font-size="16" font-family="Bely-Regular, Bely"><tspan x="0" y="0">50x</tspan></text>
      <text id="_40x" data-name="40x" transform="translate(863.944 7970)" font-size="16" font-family="Bely-Regular, Bely"><tspan x="0" y="0">40x</tspan></text>
      <text id="_30x" data-name="30x" transform="translate(865.192 7997)" font-size="16" font-family="Bely-Regular, Bely"><tspan x="0" y="0">30x</tspan></text>
      <text id="_20x" data-name="20x" transform="translate(865.224 8024)" font-size="16" font-family="Bely-Regular, Bely"><tspan x="0" y="0">20x</tspan></text>
      <text id="_10x" data-name="10x" transform="translate(865.512 8051)" font-size="16" font-family="Bely-Regular, Bely"><tspan x="0" y="0">10x</tspan></text>
      <text id="_0x" data-name="0x" transform="translate(872.184 8078)" font-size="16" font-family="Bely-Regular, Bely"><tspan x="0" y="0">0x</tspan></text>
    </g>
  </g>
</svg>
