<svg xmlns="http://www.w3.org/2000/svg" width="691" height="365" viewBox="0 0 691 365">
  <g id="cart-roiic-revenue" transform="translate(-817 -14519)">
    <text id="_70x_60x_50x_40x_30x_20x_10x_0x" data-name="70x
60x
50x
40x
30x
20x
10x
0x" transform="translate(888 14550)" font-size="18" font-family="Bely-Regular, Bely"><tspan x="-26.784" y="0">70x</tspan><tspan x="-27.81" y="39">60x</tspan><tspan x="-26.82" y="78">50x</tspan><tspan x="-28.188" y="117">40x</tspan><tspan x="-26.784" y="156">30x</tspan><tspan x="-26.748" y="195">20x</tspan><tspan x="-26.424" y="234">10x</tspan><tspan x="-18.918" y="273">0x</tspan></text>
    <rect id="Rectangle_904" data-name="Rectangle 904" width="595" height="1" transform="translate(897 14547)"/>
    <rect id="Rectangle_909" data-name="Rectangle 909" width="595" height="1" transform="translate(897 14664)"/>
    <rect id="Rectangle_912" data-name="Rectangle 912" width="595" height="1" transform="translate(897 14781)"/>
    <rect id="Rectangle_905" data-name="Rectangle 905" width="595" height="1" transform="translate(897 14586)"/>
    <rect id="Rectangle_908" data-name="Rectangle 908" width="595" height="1" transform="translate(897 14703)"/>
    <rect id="Rectangle_911" data-name="Rectangle 911" width="595" height="1" transform="translate(897 14820)"/>
    <rect id="Rectangle_906" data-name="Rectangle 906" width="595" height="1" transform="translate(897 14625)"/>
    <rect id="Rectangle_907" data-name="Rectangle 907" width="595" height="1" transform="translate(897 14742)"/>
    <rect id="Rectangle_913" data-name="Rectangle 913" width="1" height="287" transform="translate(897 14547)"/>
    <rect id="Rectangle_918" data-name="Rectangle 918" width="1" height="287" transform="translate(1095 14547)"/>
    <rect id="Rectangle_921" data-name="Rectangle 921" width="1" height="287" transform="translate(1293 14547)"/>
    <rect id="Rectangle_924" data-name="Rectangle 924" width="1" height="287" transform="translate(1491 14547)"/>
    <rect id="Rectangle_914" data-name="Rectangle 914" width="1" height="287" transform="translate(963 14547)"/>
    <rect id="Rectangle_917" data-name="Rectangle 917" width="1" height="287" transform="translate(1161 14547)"/>
    <rect id="Rectangle_920" data-name="Rectangle 920" width="1" height="287" transform="translate(1359 14547)"/>
    <rect id="Rectangle_915" data-name="Rectangle 915" width="1" height="287" transform="translate(1029 14547)"/>
    <rect id="Rectangle_916" data-name="Rectangle 916" width="1" height="287" transform="translate(1227 14547)"/>
    <rect id="Rectangle_919" data-name="Rectangle 919" width="1" height="287" transform="translate(1425 14547)"/>
    <text id="_0x" data-name="0x" transform="translate(892 14849)" font-size="18" font-family="Bely-Regular, Bely"><tspan x="0" y="0">0x</tspan></text>
    <text id="_.5x" data-name=".5x" transform="translate(955 14849)" font-size="18" font-family="Bely-Regular, Bely"><tspan x="0" y="0">.5x</tspan></text>
    <text id="_1x" data-name="1x" transform="translate(1021 14849)" font-size="18" font-family="Bely-Regular, Bely"><tspan x="0" y="0">1x</tspan></text>
    <text id="_1.5x" data-name="1.5x" transform="translate(1082 14849)" font-size="18" font-family="Bely-Regular, Bely"><tspan x="0" y="0">1.5x</tspan></text>
    <text id="_2x" data-name="2x" transform="translate(1153 14849)" font-size="18" font-family="Bely-Regular, Bely"><tspan x="0" y="0">2x</tspan></text>
    <text id="_2.5" data-name="2.5" transform="translate(1218 14849)" font-size="18" font-family="Bely-Regular, Bely"><tspan x="0" y="0">2.5</tspan></text>
    <text id="_3.0x" data-name="3.0x" transform="translate(1280 14849)" font-size="18" font-family="Bely-Regular, Bely"><tspan x="0" y="0">3.0x</tspan></text>
    <text id="_3.5x" data-name="3.5x" transform="translate(1346 14849)" font-size="18" font-family="Bely-Regular, Bely"><tspan x="0" y="0">3.5x</tspan></text>
    <text id="_4.0" data-name="4.0" transform="translate(1415 14849)" font-size="18" font-family="Bely-Regular, Bely"><tspan x="0" y="0">4.0</tspan></text>
    <text id="_4.5x" data-name="4.5x" transform="translate(1478 14849)" font-size="18" font-family="Bely-Regular, Bely"><tspan x="0" y="0">4.5x</tspan></text>
    <g id="Ellipse_1340" data-name="Ellipse 1340" transform="translate(907 14812)" stroke="#fff" stroke-width="1">
      <circle cx="5.5" cy="5.5" r="5.5" stroke="none"/>
      <circle cx="5.5" cy="5.5" r="5" fill="none"/>
    </g>
    <g id="Ellipse_1341" data-name="Ellipse 1341" transform="translate(922 14807)" stroke="#fff" stroke-width="1">
      <circle cx="5.5" cy="5.5" r="5.5" stroke="none"/>
      <circle cx="5.5" cy="5.5" r="5" fill="none"/>
    </g>
    <g id="Ellipse_1342" data-name="Ellipse 1342" transform="translate(929 14778)" stroke="#fff" stroke-width="1">
      <circle cx="5.5" cy="5.5" r="5.5" stroke="none"/>
      <circle cx="5.5" cy="5.5" r="5" fill="none"/>
    </g>
    <g id="Ellipse_1343" data-name="Ellipse 1343" transform="translate(955 14805)" stroke="#fff" stroke-width="1">
      <circle cx="5.5" cy="5.5" r="5.5" stroke="none"/>
      <circle cx="5.5" cy="5.5" r="5" fill="none"/>
    </g>
    <g id="Ellipse_1344" data-name="Ellipse 1344" transform="translate(968 14802)" stroke="#fff" stroke-width="1">
      <circle cx="5.5" cy="5.5" r="5.5" stroke="none"/>
      <circle cx="5.5" cy="5.5" r="5" fill="none"/>
    </g>
    <g id="Ellipse_1345" data-name="Ellipse 1345" transform="translate(972 14801)" stroke="#fff" stroke-width="1">
      <circle cx="5.5" cy="5.5" r="5.5" stroke="none"/>
      <circle cx="5.5" cy="5.5" r="5" fill="none"/>
    </g>
    <g id="Ellipse_1346" data-name="Ellipse 1346" transform="translate(958 14784)" stroke="#fff" stroke-width="1">
      <circle cx="5.5" cy="5.5" r="5.5" stroke="none"/>
      <circle cx="5.5" cy="5.5" r="5" fill="none"/>
    </g>
    <g id="Ellipse_1347" data-name="Ellipse 1347" transform="translate(970 14769)" stroke="#fff" stroke-width="1">
      <circle cx="5.5" cy="5.5" r="5.5" stroke="none"/>
      <circle cx="5.5" cy="5.5" r="5" fill="none"/>
    </g>
    <g id="Ellipse_1348" data-name="Ellipse 1348" transform="translate(975 14779)" stroke="#fff" stroke-width="1">
      <circle cx="5.5" cy="5.5" r="5.5" stroke="none"/>
      <circle cx="5.5" cy="5.5" r="5" fill="none"/>
    </g>
    <g id="Ellipse_1349" data-name="Ellipse 1349" transform="translate(983 14794)" stroke="#fff" stroke-width="1">
      <circle cx="5.5" cy="5.5" r="5.5" stroke="none"/>
      <circle cx="5.5" cy="5.5" r="5" fill="none"/>
    </g>
    <g id="Ellipse_1350" data-name="Ellipse 1350" transform="translate(989 14801)" stroke="#fff" stroke-width="1">
      <circle cx="5.5" cy="5.5" r="5.5" stroke="none"/>
      <circle cx="5.5" cy="5.5" r="5" fill="none"/>
    </g>
    <g id="Ellipse_1351" data-name="Ellipse 1351" transform="translate(992 14795)" stroke="#fff" stroke-width="1">
      <circle cx="5.5" cy="5.5" r="5.5" stroke="none"/>
      <circle cx="5.5" cy="5.5" r="5" fill="none"/>
    </g>
    <g id="Ellipse_1352" data-name="Ellipse 1352" transform="translate(1005 14797)" stroke="#fff" stroke-width="1">
      <circle cx="5.5" cy="5.5" r="5.5" stroke="none"/>
      <circle cx="5.5" cy="5.5" r="5" fill="none"/>
    </g>
    <g id="Ellipse_1353" data-name="Ellipse 1353" transform="translate(1005 14792)" stroke="#fff" stroke-width="1">
      <circle cx="5.5" cy="5.5" r="5.5" stroke="none"/>
      <circle cx="5.5" cy="5.5" r="5" fill="none"/>
    </g>
    <g id="Ellipse_1354" data-name="Ellipse 1354" transform="translate(996 14781)" stroke="#fff" stroke-width="1">
      <circle cx="5.5" cy="5.5" r="5.5" stroke="none"/>
      <circle cx="5.5" cy="5.5" r="5" fill="none"/>
    </g>
    <g id="Ellipse_1355" data-name="Ellipse 1355" transform="translate(1002 14777)" stroke="#fff" stroke-width="1">
      <circle cx="5.5" cy="5.5" r="5.5" stroke="none"/>
      <circle cx="5.5" cy="5.5" r="5" fill="none"/>
    </g>
    <g id="Ellipse_1356" data-name="Ellipse 1356" transform="translate(1007 14768)" stroke="#fff" stroke-width="1">
      <circle cx="5.5" cy="5.5" r="5.5" stroke="none"/>
      <circle cx="5.5" cy="5.5" r="5" fill="none"/>
    </g>
    <g id="Ellipse_1357" data-name="Ellipse 1357" transform="translate(1016 14763)" stroke="#fff" stroke-width="1">
      <circle cx="5.5" cy="5.5" r="5.5" stroke="none"/>
      <circle cx="5.5" cy="5.5" r="5" fill="none"/>
    </g>
    <g id="Ellipse_1358" data-name="Ellipse 1358" transform="translate(1018 14775)" stroke="#fff" stroke-width="1">
      <circle cx="5.5" cy="5.5" r="5.5" stroke="none"/>
      <circle cx="5.5" cy="5.5" r="5" fill="none"/>
    </g>
    <g id="Ellipse_1359" data-name="Ellipse 1359" transform="translate(990 14764)" stroke="#fff" stroke-width="1">
      <circle cx="5.5" cy="5.5" r="5.5" stroke="none"/>
      <circle cx="5.5" cy="5.5" r="5" fill="none"/>
    </g>
    <g id="Ellipse_1360" data-name="Ellipse 1360" transform="translate(1012 14746)" stroke="#fff" stroke-width="1">
      <circle cx="5.5" cy="5.5" r="5.5" stroke="none"/>
      <circle cx="5.5" cy="5.5" r="5" fill="none"/>
    </g>
    <g id="Ellipse_1361" data-name="Ellipse 1361" transform="translate(1016 14738)" stroke="#fff" stroke-width="1">
      <circle cx="5.5" cy="5.5" r="5.5" stroke="none"/>
      <circle cx="5.5" cy="5.5" r="5" fill="none"/>
    </g>
    <g id="Ellipse_1362" data-name="Ellipse 1362" transform="translate(1030 14730)" stroke="#fff" stroke-width="1">
      <circle cx="5.5" cy="5.5" r="5.5" stroke="none"/>
      <circle cx="5.5" cy="5.5" r="5" fill="none"/>
    </g>
    <g id="Ellipse_1363" data-name="Ellipse 1363" transform="translate(1035 14725)" stroke="#fff" stroke-width="1">
      <circle cx="5.5" cy="5.5" r="5.5" stroke="none"/>
      <circle cx="5.5" cy="5.5" r="5" fill="none"/>
    </g>
    <g id="Ellipse_1364" data-name="Ellipse 1364" transform="translate(1023 14724)" stroke="#fff" stroke-width="1">
      <circle cx="5.5" cy="5.5" r="5.5" stroke="none"/>
      <circle cx="5.5" cy="5.5" r="5" fill="none"/>
    </g>
    <g id="Ellipse_1365" data-name="Ellipse 1365" transform="translate(998 14696)" stroke="#fff" stroke-width="1">
      <circle cx="5.5" cy="5.5" r="5.5" stroke="none"/>
      <circle cx="5.5" cy="5.5" r="5" fill="none"/>
    </g>
    <g id="Ellipse_1366" data-name="Ellipse 1366" transform="translate(1008 14665)" stroke="#fff" stroke-width="1">
      <circle cx="5.5" cy="5.5" r="5.5" stroke="none"/>
      <circle cx="5.5" cy="5.5" r="5" fill="none"/>
    </g>
    <g id="Ellipse_1367" data-name="Ellipse 1367" transform="translate(1043 14686)" stroke="#fff" stroke-width="1">
      <circle cx="5.5" cy="5.5" r="5.5" stroke="none"/>
      <circle cx="5.5" cy="5.5" r="5" fill="none"/>
    </g>
    <g id="Ellipse_1368" data-name="Ellipse 1368" transform="translate(1051 14719)" stroke="#fff" stroke-width="1">
      <circle cx="5.5" cy="5.5" r="5.5" stroke="none"/>
      <circle cx="5.5" cy="5.5" r="5" fill="none"/>
    </g>
    <g id="Ellipse_1369" data-name="Ellipse 1369" transform="translate(1062 14727)" stroke="#fff" stroke-width="1">
      <circle cx="5.5" cy="5.5" r="5.5" stroke="none"/>
      <circle cx="5.5" cy="5.5" r="5" fill="none"/>
    </g>
    <g id="Ellipse_1370" data-name="Ellipse 1370" transform="translate(1068 14722)" stroke="#fff" stroke-width="1">
      <circle cx="5.5" cy="5.5" r="5.5" stroke="none"/>
      <circle cx="5.5" cy="5.5" r="5" fill="none"/>
    </g>
    <g id="Ellipse_1371" data-name="Ellipse 1371" transform="translate(1080 14719)" stroke="#fff" stroke-width="1">
      <circle cx="5.5" cy="5.5" r="5.5" stroke="none"/>
      <circle cx="5.5" cy="5.5" r="5" fill="none"/>
    </g>
    <g id="Ellipse_1384" data-name="Ellipse 1384" transform="translate(1094 14707)" stroke="#fff" stroke-width="1">
      <circle cx="5.5" cy="5.5" r="5.5" stroke="none"/>
      <circle cx="5.5" cy="5.5" r="5" fill="none"/>
    </g>
    <g id="Ellipse_1385" data-name="Ellipse 1385" transform="translate(1091 14693)" stroke="#fff" stroke-width="1">
      <circle cx="5.5" cy="5.5" r="5.5" stroke="none"/>
      <circle cx="5.5" cy="5.5" r="5" fill="none"/>
    </g>
    <g id="Ellipse_1386" data-name="Ellipse 1386" transform="translate(1109 14691)" stroke="#fff" stroke-width="1">
      <circle cx="5.5" cy="5.5" r="5.5" stroke="none"/>
      <circle cx="5.5" cy="5.5" r="5" fill="none"/>
    </g>
    <g id="Ellipse_1387" data-name="Ellipse 1387" transform="translate(1094 14736)" stroke="#fff" stroke-width="1">
      <circle cx="5.5" cy="5.5" r="5.5" stroke="none"/>
      <circle cx="5.5" cy="5.5" r="5" fill="none"/>
    </g>
    <g id="Ellipse_1388" data-name="Ellipse 1388" transform="translate(1093 14752)" stroke="#fff" stroke-width="1">
      <circle cx="5.5" cy="5.5" r="5.5" stroke="none"/>
      <circle cx="5.5" cy="5.5" r="5" fill="none"/>
    </g>
    <g id="Ellipse_1389" data-name="Ellipse 1389" transform="translate(1124 14764)" stroke="#fff" stroke-width="1">
      <circle cx="5.5" cy="5.5" r="5.5" stroke="none"/>
      <circle cx="5.5" cy="5.5" r="5" fill="none"/>
    </g>
    <g id="Ellipse_1390" data-name="Ellipse 1390" transform="translate(1136 14746)" stroke="#fff" stroke-width="1">
      <circle cx="5.5" cy="5.5" r="5.5" stroke="none"/>
      <circle cx="5.5" cy="5.5" r="5" fill="none"/>
    </g>
    <g id="Ellipse_1391" data-name="Ellipse 1391" transform="translate(1154 14739)" stroke="#fff" stroke-width="1">
      <circle cx="5.5" cy="5.5" r="5.5" stroke="none"/>
      <circle cx="5.5" cy="5.5" r="5" fill="none"/>
    </g>
    <g id="Ellipse_1392" data-name="Ellipse 1392" transform="translate(1151 14784)" stroke="#fff" stroke-width="1">
      <circle cx="5.5" cy="5.5" r="5.5" stroke="none"/>
      <circle cx="5.5" cy="5.5" r="5" fill="none"/>
    </g>
    <g id="Ellipse_1393" data-name="Ellipse 1393" transform="translate(1081 14661)" stroke="#fff" stroke-width="1">
      <circle cx="5.5" cy="5.5" r="5.5" stroke="none"/>
      <circle cx="5.5" cy="5.5" r="5" fill="none"/>
    </g>
    <g id="Ellipse_1394" data-name="Ellipse 1394" transform="translate(1093 14652)" stroke="#fff" stroke-width="1">
      <circle cx="5.5" cy="5.5" r="5.5" stroke="none"/>
      <circle cx="5.5" cy="5.5" r="5" fill="none"/>
    </g>
    <g id="Ellipse_1395" data-name="Ellipse 1395" transform="translate(1072 14614)" stroke="#fff" stroke-width="1">
      <circle cx="5.5" cy="5.5" r="5.5" stroke="none"/>
      <circle cx="5.5" cy="5.5" r="5" fill="none"/>
    </g>
    <g id="Ellipse_1396" data-name="Ellipse 1396" transform="translate(1101 14590)" stroke="#fff" stroke-width="1">
      <circle cx="5.5" cy="5.5" r="5.5" stroke="none"/>
      <circle cx="5.5" cy="5.5" r="5" fill="none"/>
    </g>
    <g id="Ellipse_1397" data-name="Ellipse 1397" transform="translate(1123 14576)" stroke="#fff" stroke-width="1">
      <circle cx="5.5" cy="5.5" r="5.5" stroke="none"/>
      <circle cx="5.5" cy="5.5" r="5" fill="none"/>
    </g>
    <g id="Ellipse_1398" data-name="Ellipse 1398" transform="translate(1134 14621)" stroke="#fff" stroke-width="1">
      <circle cx="5.5" cy="5.5" r="5.5" stroke="none"/>
      <circle cx="5.5" cy="5.5" r="5" fill="none"/>
    </g>
    <g id="Ellipse_1399" data-name="Ellipse 1399" transform="translate(1137 14678)" stroke="#fff" stroke-width="1">
      <circle cx="5.5" cy="5.5" r="5.5" stroke="none"/>
      <circle cx="5.5" cy="5.5" r="5" fill="none"/>
    </g>
    <g id="Ellipse_1400" data-name="Ellipse 1400" transform="translate(1153 14692)" stroke="#fff" stroke-width="1">
      <circle cx="5.5" cy="5.5" r="5.5" stroke="none"/>
      <circle cx="5.5" cy="5.5" r="5" fill="none"/>
    </g>
    <g id="Ellipse_1401" data-name="Ellipse 1401" transform="translate(1192 14685)" stroke="#fff" stroke-width="1">
      <circle cx="5.5" cy="5.5" r="5.5" stroke="none"/>
      <circle cx="5.5" cy="5.5" r="5" fill="none"/>
    </g>
    <g id="Ellipse_1402" data-name="Ellipse 1402" transform="translate(1205 14675)" stroke="#fff" stroke-width="1">
      <circle cx="5.5" cy="5.5" r="5.5" stroke="none"/>
      <circle cx="5.5" cy="5.5" r="5" fill="none"/>
    </g>
    <g id="Ellipse_1403" data-name="Ellipse 1403" transform="translate(1214 14687)" stroke="#fff" stroke-width="1">
      <circle cx="5.5" cy="5.5" r="5.5" stroke="none"/>
      <circle cx="5.5" cy="5.5" r="5" fill="none"/>
    </g>
    <g id="Ellipse_1404" data-name="Ellipse 1404" transform="translate(1212 14704)" stroke="#fff" stroke-width="1">
      <circle cx="5.5" cy="5.5" r="5.5" stroke="none"/>
      <circle cx="5.5" cy="5.5" r="5" fill="none"/>
    </g>
    <g id="Ellipse_1405" data-name="Ellipse 1405" transform="translate(1193 14706)" stroke="#fff" stroke-width="1">
      <circle cx="5.5" cy="5.5" r="5.5" stroke="none"/>
      <circle cx="5.5" cy="5.5" r="5" fill="none"/>
    </g>
    <g id="Ellipse_1406" data-name="Ellipse 1406" transform="translate(1203 14604)" stroke="#fff" stroke-width="1">
      <circle cx="5.5" cy="5.5" r="5.5" stroke="none"/>
      <circle cx="5.5" cy="5.5" r="5" fill="none"/>
    </g>
    <g id="Ellipse_1407" data-name="Ellipse 1407" transform="translate(1231 14607)" stroke="#fff" stroke-width="1">
      <circle cx="5.5" cy="5.5" r="5.5" stroke="none"/>
      <circle cx="5.5" cy="5.5" r="5" fill="none"/>
    </g>
    <g id="Ellipse_1408" data-name="Ellipse 1408" transform="translate(1230 14582)" stroke="#fff" stroke-width="1">
      <circle cx="5.5" cy="5.5" r="5.5" stroke="none"/>
      <circle cx="5.5" cy="5.5" r="5" fill="none"/>
    </g>
    <g id="Ellipse_1409" data-name="Ellipse 1409" transform="translate(1397 14607)" stroke="#fff" stroke-width="1">
      <circle cx="5.5" cy="5.5" r="5.5" stroke="none"/>
      <circle cx="5.5" cy="5.5" r="5" fill="none"/>
    </g>
    <g id="Ellipse_1410" data-name="Ellipse 1410" transform="translate(1422 14637)" stroke="#fff" stroke-width="1">
      <circle cx="5.5" cy="5.5" r="5.5" stroke="none"/>
      <circle cx="5.5" cy="5.5" r="5" fill="none"/>
    </g>
    <g id="Ellipse_1372" data-name="Ellipse 1372" transform="translate(1077 14731)" stroke="#fff" stroke-width="1">
      <circle cx="5.5" cy="5.5" r="5.5" stroke="none"/>
      <circle cx="5.5" cy="5.5" r="5" fill="none"/>
    </g>
    <g id="Ellipse_1373" data-name="Ellipse 1373" transform="translate(1056 14740)" stroke="#fff" stroke-width="1">
      <circle cx="5.5" cy="5.5" r="5.5" stroke="none"/>
      <circle cx="5.5" cy="5.5" r="5" fill="none"/>
    </g>
    <g id="Ellipse_1374" data-name="Ellipse 1374" transform="translate(1052 14747)" stroke="#fff" stroke-width="1">
      <circle cx="5.5" cy="5.5" r="5.5" stroke="none"/>
      <circle cx="5.5" cy="5.5" r="5" fill="none"/>
    </g>
    <g id="Ellipse_1375" data-name="Ellipse 1375" transform="translate(1052 14755)" stroke="#fff" stroke-width="1">
      <circle cx="5.5" cy="5.5" r="5.5" stroke="none"/>
      <circle cx="5.5" cy="5.5" r="5" fill="none"/>
    </g>
    <g id="Ellipse_1376" data-name="Ellipse 1376" transform="translate(1040 14755)" stroke="#fff" stroke-width="1">
      <circle cx="5.5" cy="5.5" r="5.5" stroke="none"/>
      <circle cx="5.5" cy="5.5" r="5" fill="none"/>
    </g>
    <g id="Ellipse_1377" data-name="Ellipse 1377" transform="translate(1039 14768)" stroke="#fff" stroke-width="1">
      <circle cx="5.5" cy="5.5" r="5.5" stroke="none"/>
      <circle cx="5.5" cy="5.5" r="5" fill="none"/>
    </g>
    <g id="Ellipse_1378" data-name="Ellipse 1378" transform="translate(1034 14785)" stroke="#fff" stroke-width="1">
      <circle cx="5.5" cy="5.5" r="5.5" stroke="none"/>
      <circle cx="5.5" cy="5.5" r="5" fill="none"/>
    </g>
    <g id="Ellipse_1379" data-name="Ellipse 1379" transform="translate(1032 14792)" stroke="#fff" stroke-width="1">
      <circle cx="5.5" cy="5.5" r="5.5" stroke="none"/>
      <circle cx="5.5" cy="5.5" r="5" fill="none"/>
    </g>
    <g id="Ellipse_1380" data-name="Ellipse 1380" transform="translate(1065 14802)" stroke="#fff" stroke-width="1">
      <circle cx="5.5" cy="5.5" r="5.5" stroke="none"/>
      <circle cx="5.5" cy="5.5" r="5" fill="none"/>
    </g>
    <g id="Ellipse_1381" data-name="Ellipse 1381" transform="translate(1063 14769)" stroke="#fff" stroke-width="1">
      <circle cx="5.5" cy="5.5" r="5.5" stroke="none"/>
      <circle cx="5.5" cy="5.5" r="5" fill="none"/>
    </g>
    <g id="Ellipse_1382" data-name="Ellipse 1382" transform="translate(1065 14757)" stroke="#fff" stroke-width="1">
      <circle cx="5.5" cy="5.5" r="5.5" stroke="none"/>
      <circle cx="5.5" cy="5.5" r="5" fill="none"/>
    </g>
    <g id="Ellipse_1383" data-name="Ellipse 1383" transform="translate(1068 14746)" stroke="#fff" stroke-width="1">
      <circle cx="5.5" cy="5.5" r="5.5" stroke="none"/>
      <circle cx="5.5" cy="5.5" r="5" fill="none"/>
    </g>
    <text id="R2_0.4939" data-name="R2 = 0.4939" transform="translate(1428 14532)" font-size="16" font-family="OV"><tspan x="-45.795" y="0">R</tspan><tspan y="0" font-size="9.333" baseline-shift="5.33279994943018">2</tspan><tspan y="0" xml:space="preserve"> = 0.4939</tspan></text>
    <text id="_19-_20_ROIIC_Change_in_20_GM_over_19_S_M_19_R_D_Spend_" data-name="’19-’20 ROIIC (Change in ’20 GM over ’19 S&amp;M + ’19 R&amp;D Spend)" transform="translate(1195 14879)" font-size="16" font-family="OV-Bold, OV" font-weight="700"><tspan x="-278.928" y="0">’19-’20 ROIIC (Change in ’20 GM over ’19 S&amp;M + ’19 R&amp;D Spend)</tspan></text>
    <text id="_20_EV_Revenue" data-name="’20 EV/Revenue" transform="translate(831 14687) rotate(-90)" font-size="16" font-family="OV-Bold, OV" font-weight="700"><tspan x="-69.512" y="0">’20 EV/Revenue</tspan></text>
    <path id="Path_16404" data-name="Path 16404" d="M-18333.928-12431l503.141-231.185" transform="translate(19249 27239)" fill="none" stroke="#000" stroke-linecap="round" stroke-width="2" stroke-dasharray="0 6"/>
  </g>
</svg>
