<svg xmlns="http://www.w3.org/2000/svg" width="719" height="394" viewBox="0 0 719 394">
  <g id="chart-fcf" transform="translate(-800 -9449)">
    <text id="_80x_70x_60x_50x_40x_30x_20x_10x_0x" data-name="80x
70x
60x
50x
40x
30x
20x
10x
0x" transform="translate(1110 9466)" font-size="18" font-family="Bely-Regular, Bely"><tspan x="-27.864" y="0">80x</tspan><tspan x="-26.784" y="39">70x</tspan><tspan x="-27.81" y="78">60x</tspan><tspan x="-26.82" y="117">50x</tspan><tspan x="-28.188" y="156">40x</tspan><tspan x="-26.784" y="195">30x</tspan><tspan x="-26.748" y="234">20x</tspan><tspan x="-26.424" y="273">10x</tspan><tspan x="-18.918" y="312">0x</tspan></text>
    <text id="_-20_" data-name="-20%" transform="translate(828 9804)" font-size="18" font-family="Bely-Regular, Bely"><tspan x="-17.01" y="0">-20%</tspan></text>
    <text id="TTM_Revenue_Multiple" data-name="TTM Revenue Multiple" transform="translate(814 9611) rotate(-90)" font-size="16" font-family="OV-Bold, OV" font-weight="700"><tspan x="-94.336" y="0">TTM Revenue Multiple</tspan></text>
    <text id="TTM_FCF_Margin" data-name="TTM FCF Margin" transform="translate(1160 9838)" font-size="16" font-family="OV-Bold, OV" font-weight="700"><tspan x="-67.272" y="0">TTM FCF Margin</tspan></text>
    <text id="R2_9E-06" data-name="R2 = 9E-06" transform="translate(1385 9526)" font-size="16" font-family="OV"><tspan x="0" y="0">R</tspan><tspan y="0" font-size="9.333" baseline-shift="5.33279994943018">2</tspan><tspan y="0" xml:space="preserve"> = 9E-06</tspan></text>
    <text id="_-30_" data-name="-30%" transform="translate(907.999 9804)" font-size="18" font-family="Bely-Regular, Bely"><tspan x="-17.028" y="0">-30%</tspan></text>
    <text id="_-20_2" data-name="-20%" transform="translate(989.001 9804)" font-size="18" font-family="Bely-Regular, Bely"><tspan x="-17.01" y="0">-20%</tspan></text>
    <text id="_-10_" data-name="-10%" transform="translate(1068 9804)" font-size="18" font-family="Bely-Regular, Bely"><tspan x="-16.848" y="0">-10%</tspan></text>
    <text id="_0_" data-name="0%" transform="translate(1138.999 9804)" font-size="18" font-family="Bely-Regular, Bely"><tspan x="-10.17" y="0">0%</tspan></text>
    <text id="_10_" data-name="10%" transform="translate(1208.001 9804)" font-size="18" font-family="Bely-Regular, Bely"><tspan x="-13.923" y="0">10%</tspan></text>
    <text id="_20_" data-name="20%" transform="translate(1281 9804)" font-size="18" font-family="Bely-Regular, Bely"><tspan x="-14.085" y="0">20%</tspan></text>
    <text id="_30_" data-name="30%" transform="translate(1354.999 9804)" font-size="18" font-family="Bely-Regular, Bely"><tspan x="-14.103" y="0">30%</tspan></text>
    <text id="_50_" data-name="50%" transform="translate(1504 9804)" font-size="18" font-family="Bely-Regular, Bely"><tspan x="-14.121" y="0">50%</tspan></text>
    <text id="_40_" data-name="40%" transform="translate(1430.001 9804)" font-size="18" font-family="Bely-Regular, Bely"><tspan x="-14.805" y="0">40%</tspan></text>
    <rect id="Rectangle_848" data-name="Rectangle 848" width="672" height="1" transform="translate(827 9773)"/>
    <rect id="Rectangle_849" data-name="Rectangle 849" width="1" height="314" transform="translate(1128 9459)"/>
    <path id="Path_16361" data-name="Path 16361" d="M-18333.928-12431h532.4" transform="translate(19251.738 22133)" fill="none" stroke="#000" stroke-linecap="round" stroke-width="2" stroke-dasharray="0 6"/>
    <g id="Group_377" data-name="Group 377" transform="translate(0 583)">
      <g id="Ellipse_1260" data-name="Ellipse 1260" transform="translate(914 9158)" stroke="#fff" stroke-width="1">
        <circle cx="5.5" cy="5.5" r="5.5" stroke="none"/>
        <circle cx="5.5" cy="5.5" r="5" fill="none"/>
      </g>
      <g id="Ellipse_1261" data-name="Ellipse 1261" transform="translate(962 9153)" stroke="#fff" stroke-width="1">
        <circle cx="5.5" cy="5.5" r="5.5" stroke="none"/>
        <circle cx="5.5" cy="5.5" r="5" fill="none"/>
      </g>
      <g id="Ellipse_1263" data-name="Ellipse 1263" transform="translate(1005 9128)" stroke="#fff" stroke-width="1">
        <circle cx="5.5" cy="5.5" r="5.5" stroke="none"/>
        <circle cx="5.5" cy="5.5" r="5" fill="none"/>
      </g>
      <g id="Ellipse_1264" data-name="Ellipse 1264" transform="translate(1039 9160)" stroke="#fff" stroke-width="1">
        <circle cx="5.5" cy="5.5" r="5.5" stroke="none"/>
        <circle cx="5.5" cy="5.5" r="5" fill="none"/>
      </g>
      <g id="Ellipse_1265" data-name="Ellipse 1265" transform="translate(1065 9137)" stroke="#fff" stroke-width="1">
        <circle cx="5.5" cy="5.5" r="5.5" stroke="none"/>
        <circle cx="5.5" cy="5.5" r="5" fill="none"/>
      </g>
      <g id="Ellipse_1266" data-name="Ellipse 1266" transform="translate(1054 9147)" stroke="#fff" stroke-width="1">
        <circle cx="5.5" cy="5.5" r="5.5" stroke="none"/>
        <circle cx="5.5" cy="5.5" r="5" fill="none"/>
      </g>
      <g id="Ellipse_1267" data-name="Ellipse 1267" transform="translate(1069 9181)" stroke="#fff" stroke-width="1">
        <circle cx="5.5" cy="5.5" r="5.5" stroke="none"/>
        <circle cx="5.5" cy="5.5" r="5" fill="none"/>
      </g>
      <g id="Ellipse_1268" data-name="Ellipse 1268" transform="translate(1092 9174)" stroke="#fff" stroke-width="1">
        <circle cx="5.5" cy="5.5" r="5.5" stroke="none"/>
        <circle cx="5.5" cy="5.5" r="5" fill="none"/>
      </g>
      <g id="Ellipse_1269" data-name="Ellipse 1269" transform="translate(1090 9164)" stroke="#fff" stroke-width="1">
        <circle cx="5.5" cy="5.5" r="5.5" stroke="none"/>
        <circle cx="5.5" cy="5.5" r="5" fill="none"/>
      </g>
      <g id="Ellipse_1270" data-name="Ellipse 1270" transform="translate(1123 9164)" stroke="#fff" stroke-width="1">
        <circle cx="5.5" cy="5.5" r="5.5" stroke="none"/>
        <circle cx="5.5" cy="5.5" r="5" fill="none"/>
      </g>
      <g id="Ellipse_1271" data-name="Ellipse 1271" transform="translate(1110 9160)" stroke="#fff" stroke-width="1">
        <circle cx="5.5" cy="5.5" r="5.5" stroke="none"/>
        <circle cx="5.5" cy="5.5" r="5" fill="none"/>
      </g>
      <g id="Ellipse_1272" data-name="Ellipse 1272" transform="translate(1082 9145)" stroke="#fff" stroke-width="1">
        <circle cx="5.5" cy="5.5" r="5.5" stroke="none"/>
        <circle cx="5.5" cy="5.5" r="5" fill="none"/>
      </g>
      <g id="Ellipse_1273" data-name="Ellipse 1273" transform="translate(1105 9132)" stroke="#fff" stroke-width="1">
        <circle cx="5.5" cy="5.5" r="5.5" stroke="none"/>
        <circle cx="5.5" cy="5.5" r="5" fill="none"/>
      </g>
      <g id="Ellipse_1274" data-name="Ellipse 1274" transform="translate(1096 9120)" stroke="#fff" stroke-width="1">
        <circle cx="5.5" cy="5.5" r="5.5" stroke="none"/>
        <circle cx="5.5" cy="5.5" r="5" fill="none"/>
      </g>
      <g id="Ellipse_1275" data-name="Ellipse 1275" transform="translate(1103 9108)" stroke="#fff" stroke-width="1">
        <circle cx="5.5" cy="5.5" r="5.5" stroke="none"/>
        <circle cx="5.5" cy="5.5" r="5" fill="none"/>
      </g>
      <g id="Ellipse_1276" data-name="Ellipse 1276" transform="translate(1075 9117)" stroke="#fff" stroke-width="1">
        <circle cx="5.5" cy="5.5" r="5.5" stroke="none"/>
        <circle cx="5.5" cy="5.5" r="5" fill="none"/>
      </g>
      <g id="Ellipse_1277" data-name="Ellipse 1277" transform="translate(1056 9106)" stroke="#fff" stroke-width="1">
        <circle cx="5.5" cy="5.5" r="5.5" stroke="none"/>
        <circle cx="5.5" cy="5.5" r="5" fill="none"/>
      </g>
      <g id="Ellipse_1279" data-name="Ellipse 1279" transform="translate(1058 9053)" stroke="#fff" stroke-width="1">
        <circle cx="5.5" cy="5.5" r="5.5" stroke="none"/>
        <circle cx="5.5" cy="5.5" r="5" fill="none"/>
      </g>
      <g id="Ellipse_1303" data-name="Ellipse 1303" transform="translate(1012 8917)" stroke="#fff" stroke-width="1">
        <circle cx="5.5" cy="5.5" r="5.5" stroke="none"/>
        <circle cx="5.5" cy="5.5" r="5" fill="none"/>
      </g>
      <g id="Ellipse_1304" data-name="Ellipse 1304" transform="translate(947 8984)" stroke="#fff" stroke-width="1">
        <circle cx="5.5" cy="5.5" r="5.5" stroke="none"/>
        <circle cx="5.5" cy="5.5" r="5" fill="none"/>
      </g>
      <g id="Ellipse_1280" data-name="Ellipse 1280" transform="translate(1067 9045)" stroke="#fff" stroke-width="1">
        <circle cx="5.5" cy="5.5" r="5.5" stroke="none"/>
        <circle cx="5.5" cy="5.5" r="5" fill="none"/>
      </g>
      <g id="Ellipse_1281" data-name="Ellipse 1281" transform="translate(1107 9051)" stroke="#fff" stroke-width="1">
        <circle cx="5.5" cy="5.5" r="5.5" stroke="none"/>
        <circle cx="5.5" cy="5.5" r="5" fill="none"/>
      </g>
      <g id="Ellipse_1305" data-name="Ellipse 1305" transform="translate(1138 9094)" stroke="#fff" stroke-width="1">
        <circle cx="5.5" cy="5.5" r="5.5" stroke="none"/>
        <circle cx="5.5" cy="5.5" r="5" fill="none"/>
      </g>
      <g id="Ellipse_1306" data-name="Ellipse 1306" transform="translate(1142 9100)" stroke="#fff" stroke-width="1">
        <circle cx="5.5" cy="5.5" r="5.5" stroke="none"/>
        <circle cx="5.5" cy="5.5" r="5" fill="none"/>
      </g>
      <g id="Ellipse_1307" data-name="Ellipse 1307" transform="translate(1134 9081)" stroke="#fff" stroke-width="1">
        <circle cx="5.5" cy="5.5" r="5.5" stroke="none"/>
        <circle cx="5.5" cy="5.5" r="5" fill="none"/>
      </g>
      <g id="Ellipse_1308" data-name="Ellipse 1308" transform="translate(1158 9077)" stroke="#fff" stroke-width="1">
        <circle cx="5.5" cy="5.5" r="5.5" stroke="none"/>
        <circle cx="5.5" cy="5.5" r="5" fill="none"/>
      </g>
      <g id="Ellipse_1309" data-name="Ellipse 1309" transform="translate(1165 9080)" stroke="#fff" stroke-width="1">
        <circle cx="5.5" cy="5.5" r="5.5" stroke="none"/>
        <circle cx="5.5" cy="5.5" r="5" fill="none"/>
      </g>
      <g id="Ellipse_1310" data-name="Ellipse 1310" transform="translate(1160 9097)" stroke="#fff" stroke-width="1">
        <circle cx="5.5" cy="5.5" r="5.5" stroke="none"/>
        <circle cx="5.5" cy="5.5" r="5" fill="none"/>
      </g>
      <g id="Ellipse_1311" data-name="Ellipse 1311" transform="translate(1170 9096)" stroke="#fff" stroke-width="1">
        <circle cx="5.5" cy="5.5" r="5.5" stroke="none"/>
        <circle cx="5.5" cy="5.5" r="5" fill="none"/>
      </g>
      <g id="Ellipse_1312" data-name="Ellipse 1312" transform="translate(1179 9102)" stroke="#fff" stroke-width="1">
        <circle cx="5.5" cy="5.5" r="5.5" stroke="none"/>
        <circle cx="5.5" cy="5.5" r="5" fill="none"/>
      </g>
      <g id="Ellipse_1313" data-name="Ellipse 1313" transform="translate(1193 9105)" stroke="#fff" stroke-width="1">
        <circle cx="5.5" cy="5.5" r="5.5" stroke="none"/>
        <circle cx="5.5" cy="5.5" r="5" fill="none"/>
      </g>
      <g id="Ellipse_1319" data-name="Ellipse 1319" transform="translate(1264 9139)" stroke="#fff" stroke-width="1">
        <circle cx="5.5" cy="5.5" r="5.5" stroke="none"/>
        <circle cx="5.5" cy="5.5" r="5" fill="none"/>
      </g>
      <g id="Ellipse_1320" data-name="Ellipse 1320" transform="translate(1275 9136)" stroke="#fff" stroke-width="1">
        <circle cx="5.5" cy="5.5" r="5.5" stroke="none"/>
        <circle cx="5.5" cy="5.5" r="5" fill="none"/>
      </g>
      <g id="Ellipse_1321" data-name="Ellipse 1321" transform="translate(1293 9161)" stroke="#fff" stroke-width="1">
        <circle cx="5.5" cy="5.5" r="5.5" stroke="none"/>
        <circle cx="5.5" cy="5.5" r="5" fill="none"/>
      </g>
      <g id="Ellipse_1322" data-name="Ellipse 1322" transform="translate(1256 9123)" stroke="#fff" stroke-width="1">
        <circle cx="5.5" cy="5.5" r="5.5" stroke="none"/>
        <circle cx="5.5" cy="5.5" r="5" fill="none"/>
      </g>
      <g id="Ellipse_1323" data-name="Ellipse 1323" transform="translate(1224 9078)" stroke="#fff" stroke-width="1">
        <circle cx="5.5" cy="5.5" r="5.5" stroke="none"/>
        <circle cx="5.5" cy="5.5" r="5" fill="none"/>
      </g>
      <g id="Ellipse_1324" data-name="Ellipse 1324" transform="translate(1219 9072)" stroke="#fff" stroke-width="1">
        <circle cx="5.5" cy="5.5" r="5.5" stroke="none"/>
        <circle cx="5.5" cy="5.5" r="5" fill="none"/>
      </g>
      <g id="Ellipse_1330" data-name="Ellipse 1330" transform="translate(1299 9098)" stroke="#fff" stroke-width="1">
        <circle cx="5.5" cy="5.5" r="5.5" stroke="none"/>
        <circle cx="5.5" cy="5.5" r="5" fill="none"/>
      </g>
      <g id="Ellipse_1331" data-name="Ellipse 1331" transform="translate(1307 9100)" stroke="#fff" stroke-width="1">
        <circle cx="5.5" cy="5.5" r="5.5" stroke="none"/>
        <circle cx="5.5" cy="5.5" r="5" fill="none"/>
      </g>
      <g id="Ellipse_1332" data-name="Ellipse 1332" transform="translate(1356 9113)" stroke="#fff" stroke-width="1">
        <circle cx="5.5" cy="5.5" r="5.5" stroke="none"/>
        <circle cx="5.5" cy="5.5" r="5" fill="none"/>
      </g>
      <g id="Ellipse_1333" data-name="Ellipse 1333" transform="translate(1399 9145)" stroke="#fff" stroke-width="1">
        <circle cx="5.5" cy="5.5" r="5.5" stroke="none"/>
        <circle cx="5.5" cy="5.5" r="5" fill="none"/>
      </g>
      <g id="Ellipse_1334" data-name="Ellipse 1334" transform="translate(1446 9169)" stroke="#fff" stroke-width="1">
        <circle cx="5.5" cy="5.5" r="5.5" stroke="none"/>
        <circle cx="5.5" cy="5.5" r="5" fill="none"/>
      </g>
      <g id="Ellipse_1335" data-name="Ellipse 1335" transform="translate(1384 9075)" stroke="#fff" stroke-width="1">
        <circle cx="5.5" cy="5.5" r="5.5" stroke="none"/>
        <circle cx="5.5" cy="5.5" r="5" fill="none"/>
      </g>
      <g id="Ellipse_1336" data-name="Ellipse 1336" transform="translate(1347 9073)" stroke="#fff" stroke-width="1">
        <circle cx="5.5" cy="5.5" r="5.5" stroke="none"/>
        <circle cx="5.5" cy="5.5" r="5" fill="none"/>
      </g>
      <g id="Ellipse_1337" data-name="Ellipse 1337" transform="translate(1325 9029)" stroke="#fff" stroke-width="1">
        <circle cx="5.5" cy="5.5" r="5.5" stroke="none"/>
        <circle cx="5.5" cy="5.5" r="5" fill="none"/>
      </g>
      <g id="Ellipse_1338" data-name="Ellipse 1338" transform="translate(1310 9028)" stroke="#fff" stroke-width="1">
        <circle cx="5.5" cy="5.5" r="5.5" stroke="none"/>
        <circle cx="5.5" cy="5.5" r="5" fill="none"/>
      </g>
      <g id="Ellipse_1339" data-name="Ellipse 1339" transform="translate(1278 8986)" stroke="#fff" stroke-width="1">
        <circle cx="5.5" cy="5.5" r="5.5" stroke="none"/>
        <circle cx="5.5" cy="5.5" r="5" fill="none"/>
      </g>
      <g id="Ellipse_1325" data-name="Ellipse 1325" transform="translate(1202 9056)" stroke="#fff" stroke-width="1">
        <circle cx="5.5" cy="5.5" r="5.5" stroke="none"/>
        <circle cx="5.5" cy="5.5" r="5" fill="none"/>
      </g>
      <g id="Ellipse_1326" data-name="Ellipse 1326" transform="translate(1191 9042)" stroke="#fff" stroke-width="1">
        <circle cx="5.5" cy="5.5" r="5.5" stroke="none"/>
        <circle cx="5.5" cy="5.5" r="5" fill="none"/>
      </g>
      <g id="Ellipse_1327" data-name="Ellipse 1327" transform="translate(1181 9015)" stroke="#fff" stroke-width="1">
        <circle cx="5.5" cy="5.5" r="5.5" stroke="none"/>
        <circle cx="5.5" cy="5.5" r="5" fill="none"/>
      </g>
      <g id="Ellipse_1328" data-name="Ellipse 1328" transform="translate(1192 8988)" stroke="#fff" stroke-width="1">
        <circle cx="5.5" cy="5.5" r="5.5" stroke="none"/>
        <circle cx="5.5" cy="5.5" r="5" fill="none"/>
      </g>
      <g id="Ellipse_1329" data-name="Ellipse 1329" transform="translate(1153 8977)" stroke="#fff" stroke-width="1">
        <circle cx="5.5" cy="5.5" r="5.5" stroke="none"/>
        <circle cx="5.5" cy="5.5" r="5" fill="none"/>
      </g>
      <g id="Ellipse_1314" data-name="Ellipse 1314" transform="translate(1176 9121)" stroke="#fff" stroke-width="1">
        <circle cx="5.5" cy="5.5" r="5.5" stroke="none"/>
        <circle cx="5.5" cy="5.5" r="5" fill="none"/>
      </g>
      <g id="Ellipse_1315" data-name="Ellipse 1315" transform="translate(1197 9125)" stroke="#fff" stroke-width="1">
        <circle cx="5.5" cy="5.5" r="5.5" stroke="none"/>
        <circle cx="5.5" cy="5.5" r="5" fill="none"/>
      </g>
      <g id="Ellipse_1316" data-name="Ellipse 1316" transform="translate(1218 9126)" stroke="#fff" stroke-width="1">
        <circle cx="5.5" cy="5.5" r="5.5" stroke="none"/>
        <circle cx="5.5" cy="5.5" r="5" fill="none"/>
      </g>
      <g id="Ellipse_1317" data-name="Ellipse 1317" transform="translate(1233 9137)" stroke="#fff" stroke-width="1">
        <circle cx="5.5" cy="5.5" r="5.5" stroke="none"/>
        <circle cx="5.5" cy="5.5" r="5" fill="none"/>
      </g>
      <g id="Ellipse_1318" data-name="Ellipse 1318" transform="translate(1241 9144)" stroke="#fff" stroke-width="1">
        <circle cx="5.5" cy="5.5" r="5.5" stroke="none"/>
        <circle cx="5.5" cy="5.5" r="5" fill="none"/>
      </g>
      <g id="Ellipse_1282" data-name="Ellipse 1282" transform="translate(1118 9092)" stroke="#fff" stroke-width="1">
        <circle cx="5.5" cy="5.5" r="5.5" stroke="none"/>
        <circle cx="5.5" cy="5.5" r="5" fill="none"/>
      </g>
      <g id="Ellipse_1283" data-name="Ellipse 1283" transform="translate(1121 9120)" stroke="#fff" stroke-width="1">
        <circle cx="5.5" cy="5.5" r="5.5" stroke="none"/>
        <circle cx="5.5" cy="5.5" r="5" fill="none"/>
      </g>
      <g id="Ellipse_1284" data-name="Ellipse 1284" transform="translate(1127 9117)" stroke="#fff" stroke-width="1">
        <circle cx="5.5" cy="5.5" r="5.5" stroke="none"/>
        <circle cx="5.5" cy="5.5" r="5" fill="none"/>
      </g>
      <g id="Ellipse_1285" data-name="Ellipse 1285" transform="translate(1125 9138)" stroke="#fff" stroke-width="1">
        <circle cx="5.5" cy="5.5" r="5.5" stroke="none"/>
        <circle cx="5.5" cy="5.5" r="5" fill="none"/>
      </g>
      <g id="Ellipse_1286" data-name="Ellipse 1286" transform="translate(1134 9136)" stroke="#fff" stroke-width="1">
        <circle cx="5.5" cy="5.5" r="5.5" stroke="none"/>
        <circle cx="5.5" cy="5.5" r="5" fill="none"/>
      </g>
      <g id="Ellipse_1287" data-name="Ellipse 1287" transform="translate(1147 9155)" stroke="#fff" stroke-width="1">
        <circle cx="5.5" cy="5.5" r="5.5" stroke="none"/>
        <circle cx="5.5" cy="5.5" r="5" fill="none"/>
      </g>
      <g id="Ellipse_1288" data-name="Ellipse 1288" transform="translate(1145 9161)" stroke="#fff" stroke-width="1">
        <circle cx="5.5" cy="5.5" r="5.5" stroke="none"/>
        <circle cx="5.5" cy="5.5" r="5" fill="none"/>
      </g>
      <g id="Ellipse_1289" data-name="Ellipse 1289" transform="translate(1138 9176)" stroke="#fff" stroke-width="1">
        <circle cx="5.5" cy="5.5" r="5.5" stroke="none"/>
        <circle cx="5.5" cy="5.5" r="5" fill="none"/>
      </g>
      <g id="Ellipse_1290" data-name="Ellipse 1290" transform="translate(1155 9177)" stroke="#fff" stroke-width="1">
        <circle cx="5.5" cy="5.5" r="5.5" stroke="none"/>
        <circle cx="5.5" cy="5.5" r="5" fill="none"/>
      </g>
      <g id="Ellipse_1291" data-name="Ellipse 1291" transform="translate(1184 9163)" stroke="#fff" stroke-width="1">
        <circle cx="5.5" cy="5.5" r="5.5" stroke="none"/>
        <circle cx="5.5" cy="5.5" r="5" fill="none"/>
      </g>
      <g id="Ellipse_1292" data-name="Ellipse 1292" transform="translate(1184 9153)" stroke="#fff" stroke-width="1">
        <circle cx="5.5" cy="5.5" r="5.5" stroke="none"/>
        <circle cx="5.5" cy="5.5" r="5" fill="none"/>
      </g>
      <g id="Ellipse_1293" data-name="Ellipse 1293" transform="translate(1191 9152)" stroke="#fff" stroke-width="1">
        <circle cx="5.5" cy="5.5" r="5.5" stroke="none"/>
        <circle cx="5.5" cy="5.5" r="5" fill="none"/>
      </g>
      <g id="Ellipse_1294" data-name="Ellipse 1294" transform="translate(1197 9148)" stroke="#fff" stroke-width="1">
        <circle cx="5.5" cy="5.5" r="5.5" stroke="none"/>
        <circle cx="5.5" cy="5.5" r="5" fill="none"/>
      </g>
      <g id="Ellipse_1295" data-name="Ellipse 1295" transform="translate(1186 9142)" stroke="#fff" stroke-width="1">
        <circle cx="5.5" cy="5.5" r="5.5" stroke="none"/>
        <circle cx="5.5" cy="5.5" r="5" fill="none"/>
      </g>
      <g id="Ellipse_1296" data-name="Ellipse 1296" transform="translate(1204 9159)" stroke="#fff" stroke-width="1">
        <circle cx="5.5" cy="5.5" r="5.5" stroke="none"/>
        <circle cx="5.5" cy="5.5" r="5" fill="none"/>
      </g>
      <g id="Ellipse_1297" data-name="Ellipse 1297" transform="translate(1215 9164)" stroke="#fff" stroke-width="1">
        <circle cx="5.5" cy="5.5" r="5.5" stroke="none"/>
        <circle cx="5.5" cy="5.5" r="5" fill="none"/>
      </g>
      <g id="Ellipse_1298" data-name="Ellipse 1298" transform="translate(1235 9169)" stroke="#fff" stroke-width="1">
        <circle cx="5.5" cy="5.5" r="5.5" stroke="none"/>
        <circle cx="5.5" cy="5.5" r="5" fill="none"/>
      </g>
      <g id="Ellipse_1299" data-name="Ellipse 1299" transform="translate(1243 9165)" stroke="#fff" stroke-width="1">
        <circle cx="5.5" cy="5.5" r="5.5" stroke="none"/>
        <circle cx="5.5" cy="5.5" r="5" fill="none"/>
      </g>
      <g id="Ellipse_1300" data-name="Ellipse 1300" transform="translate(1232 9160)" stroke="#fff" stroke-width="1">
        <circle cx="5.5" cy="5.5" r="5.5" stroke="none"/>
        <circle cx="5.5" cy="5.5" r="5" fill="none"/>
      </g>
      <g id="Ellipse_1301" data-name="Ellipse 1301" transform="translate(1224 9152)" stroke="#fff" stroke-width="1">
        <circle cx="5.5" cy="5.5" r="5.5" stroke="none"/>
        <circle cx="5.5" cy="5.5" r="5" fill="none"/>
      </g>
      <g id="Ellipse_1302" data-name="Ellipse 1302" transform="translate(1256 9171)" stroke="#fff" stroke-width="1">
        <circle cx="5.5" cy="5.5" r="5.5" stroke="none"/>
        <circle cx="5.5" cy="5.5" r="5" fill="none"/>
      </g>
      <g id="Ellipse_1278" data-name="Ellipse 1278" transform="translate(1023 9106)" stroke="#fff" stroke-width="1">
        <circle cx="5.5" cy="5.5" r="5.5" stroke="none"/>
        <circle cx="5.5" cy="5.5" r="5" fill="none"/>
      </g>
      <g id="Ellipse_1262" data-name="Ellipse 1262" transform="translate(997 9171)" stroke="#fff" stroke-width="1">
        <circle cx="5.5" cy="5.5" r="5.5" stroke="none"/>
        <circle cx="5.5" cy="5.5" r="5" fill="none"/>
      </g>
    </g>
  </g>
</svg>
