<svg xmlns="http://www.w3.org/2000/svg" width="4541.193" height="2913.401" viewBox="0 0 4541.193 2913.401">
  <g id="pattern-1" transform="translate(20233.961 5865.887)">
    <circle id="Ellipse_250" data-name="Ellipse 250" cx="68.946" cy="68.946" r="68.946" transform="translate(-18681.852 -3500.214)" fill="none" stroke="#f2f2f2" stroke-width="1"/>
    <circle id="Ellipse_219" data-name="Ellipse 219" cx="68.946" cy="68.946" r="68.946" transform="translate(-17389.205 -4454.229)" fill="none" stroke="#f2f2f2" stroke-width="1"/>
    <circle id="Ellipse_246" data-name="Ellipse 246" cx="68.946" cy="68.946" r="68.946" transform="translate(-18069.133 -4147.53)" fill="none" stroke="#f2f2f2" stroke-width="1"/>
    <circle id="Ellipse_253" data-name="Ellipse 253" cx="68.946" cy="68.946" r="68.946" transform="translate(-17415.924 -4674.454)" fill="none" stroke="#f2f2f2" stroke-width="1"/>
    <circle id="Ellipse_252" data-name="Ellipse 252" cx="68.946" cy="68.946" r="68.946" transform="translate(-17431.648 -4230.695)" fill="none" stroke="#f2f2f2" stroke-width="1"/>
    <circle id="Ellipse_199" data-name="Ellipse 199" cx="68.946" cy="68.946" r="68.946" transform="translate(-20233.961 -3483.077)" fill="#fcfcfc"/>
    <circle id="Ellipse_200" data-name="Ellipse 200" cx="68.946" cy="68.946" r="68.946" transform="translate(-19527.1 -3929.223)" fill="#fcfcfc"/>
    <circle id="Ellipse_202" data-name="Ellipse 202" cx="68.946" cy="68.946" r="68.946" transform="translate(-18274.199 -4596.332)" fill="#fcfcfc"/>
    <circle id="Ellipse_203" data-name="Ellipse 203" cx="68.946" cy="68.946" r="68.946" transform="translate(-19002.309 -3269.184)" fill="#fcfcfc"/>
    <circle id="Ellipse_204" data-name="Ellipse 204" cx="68.946" cy="68.946" r="68.946" transform="translate(-18598.418 -3474.011)" fill="#fcfcfc"/>
    <circle id="Ellipse_1177" data-name="Ellipse 1177" cx="68.946" cy="68.946" r="68.946" transform="translate(-18853.172 -3575.011)" fill="#fcfcfc"/>
    <circle id="Ellipse_205" data-name="Ellipse 205" cx="68.946" cy="68.946" r="68.946" transform="translate(-16942.521 -4109.291)" fill="#fcfcfc"/>
    <circle id="Ellipse_210" data-name="Ellipse 210" cx="68.946" cy="68.946" r="68.946" transform="translate(-18967.857 -4097.292)" fill="#fcfcfc"/>
    <circle id="Ellipse_211" data-name="Ellipse 211" cx="68.946" cy="68.946" r="68.946" transform="translate(-19213.725 -3768.608)" fill="#fcfcfc"/>
    <circle id="Ellipse_212" data-name="Ellipse 212" cx="68.946" cy="68.946" r="68.946" transform="translate(-18028.605 -4412.066)" fill="#fcfcfc"/>
    <circle id="Ellipse_213" data-name="Ellipse 213" cx="68.946" cy="68.946" r="68.946" transform="translate(-18816.338 -3781.588)" fill="#fcfcfc"/>
    <circle id="Ellipse_214" data-name="Ellipse 214" cx="68.946" cy="68.946" r="68.946" transform="translate(-17980.27 -4128.263)" fill="#fcfcfc"/>
    <circle id="Ellipse_215" data-name="Ellipse 215" cx="68.946" cy="68.946" r="68.946" transform="translate(-16196.795 -5724.281)" fill="#fcfcfc"/>
    <circle id="Ellipse_217" data-name="Ellipse 217" cx="68.946" cy="68.946" r="68.946" transform="translate(-17039.055 -4989.087)" fill="#fcfcfc"/>
    <circle id="Ellipse_218" data-name="Ellipse 218" cx="68.946" cy="68.946" r="68.946" transform="translate(-17583.385 -4164.171)" fill="#fcfcfc"/>
    <circle id="Ellipse_219-2" data-name="Ellipse 219" cx="68.946" cy="68.946" r="68.946" transform="translate(-17185.932 -5292.573)" fill="#fcfcfc"/>
    <circle id="Ellipse_220" data-name="Ellipse 220" cx="68.946" cy="68.946" r="68.946" transform="translate(-18049.617 -4761.786)" fill="#fcfcfc"/>
    <circle id="Ellipse_221" data-name="Ellipse 221" cx="68.946" cy="68.946" r="68.946" transform="translate(-16755.992 -5730.433)" fill="#fcfcfc"/>
    <circle id="Ellipse_231" data-name="Ellipse 231" cx="68.946" cy="68.946" r="68.946" transform="translate(-19767.924 -4625.688)" fill="#fcfcfc"/>
    <circle id="Ellipse_232" data-name="Ellipse 232" cx="68.946" cy="68.946" r="68.946" transform="translate(-19023.814 -4513.41)" fill="#fcfcfc"/>
    <circle id="Ellipse_233" data-name="Ellipse 233" cx="68.946" cy="68.946" r="68.946" transform="translate(-18644.035 -4201.456)" fill="#fcfcfc"/>
    <circle id="Ellipse_234" data-name="Ellipse 234" cx="68.946" cy="68.946" r="68.946" transform="translate(-18249.842 -3673.004)" fill="#fcfcfc"/>
    <circle id="Ellipse_235" data-name="Ellipse 235" cx="68.946" cy="68.946" r="68.946" transform="translate(-18543.959 -4072.168)" fill="#fcfcfc"/>
    <circle id="Ellipse_242" data-name="Ellipse 242" cx="68.946" cy="68.946" r="68.946" transform="translate(-16689.826 -3928.831)" fill="#fcfcfc"/>
    <circle id="Ellipse_243" data-name="Ellipse 243" cx="68.946" cy="68.946" r="68.946" transform="translate(-16907.424 -3840.751)" fill="#fcfcfc"/>
    <circle id="Ellipse_244" data-name="Ellipse 244" cx="68.946" cy="68.946" r="68.946" transform="translate(-17787.916 -4482.424)" fill="#fcfcfc"/>
    <circle id="Ellipse_249" data-name="Ellipse 249" cx="68.946" cy="68.946" r="68.946" transform="translate(-17495.09 -4748.558)" fill="#fcfcfc"/>
    <circle id="Ellipse_250-2" data-name="Ellipse 250" cx="68.946" cy="68.946" r="68.946" transform="translate(-17399.512 -4416.559)" fill="#fcfcfc"/>
    <circle id="Ellipse_251" data-name="Ellipse 251" cx="68.946" cy="68.946" r="68.946" transform="translate(-17382.705 -4202.667)" fill="#fcfcfc"/>
    <circle id="Ellipse_261" data-name="Ellipse 261" cx="68.946" cy="68.946" r="68.946" transform="translate(-16999.127 -5652.391)" fill="#fcfcfc"/>
    <circle id="Ellipse_262" data-name="Ellipse 262" cx="68.946" cy="68.946" r="68.946" transform="translate(-16521.17 -5865.887)" fill="#fcfcfc"/>
    <circle id="Ellipse_263" data-name="Ellipse 263" cx="68.946" cy="68.946" r="68.946" transform="translate(-16645.766 -5420.825)" fill="#fcfcfc"/>
    <circle id="Ellipse_264" data-name="Ellipse 264" cx="68.946" cy="68.946" r="68.946" transform="translate(-16162.844 -5454.276)" fill="#fcfcfc"/>
    <circle id="Ellipse_265" data-name="Ellipse 265" cx="68.946" cy="68.946" r="68.946" transform="translate(-16242.019 -5153.588)" fill="#fcfcfc"/>
    <circle id="Ellipse_266" data-name="Ellipse 266" cx="68.946" cy="68.946" r="68.946" transform="translate(-15830.66 -4854.115)" fill="#fcfcfc"/>
    <circle id="Ellipse_267" data-name="Ellipse 267" cx="68.946" cy="68.946" r="68.946" transform="translate(-16617.539 -4804.704)" fill="#fcfcfc"/>
    <circle id="Ellipse_268" data-name="Ellipse 268" cx="68.946" cy="68.946" r="68.946" transform="translate(-16507.254 -4910.69)" fill="#fcfcfc"/>
    <circle id="Ellipse_269" data-name="Ellipse 269" cx="68.946" cy="68.946" r="68.946" transform="translate(-16000.42 -5283.461)" fill="#fcfcfc"/>
    <circle id="Ellipse_270" data-name="Ellipse 270" cx="68.946" cy="68.946" r="68.946" transform="translate(-16877.736 -4506.904)" fill="#fcfcfc"/>
    <circle id="Ellipse_271" data-name="Ellipse 271" cx="68.946" cy="68.946" r="68.946" transform="translate(-16504.791 -4528.481)" fill="#fcfcfc"/>
    <circle id="Ellipse_272" data-name="Ellipse 272" cx="68.946" cy="68.946" r="68.946" transform="translate(-16215.407 -4717.654)" fill="#fcfcfc"/>
    <circle id="Ellipse_273" data-name="Ellipse 273" cx="68.946" cy="68.946" r="68.946" transform="translate(-16113.533 -5017.083)" fill="#fcfcfc"/>
    <circle id="Ellipse_278" data-name="Ellipse 278" cx="68.946" cy="68.946" r="68.946" transform="translate(-15996.179 -5586.592)" fill="#fcfcfc"/>
    <circle id="Ellipse_200-2" data-name="Ellipse 200" cx="68.946" cy="68.946" r="68.946" transform="translate(-19730.373 -3090.878)" fill="none" stroke="#f2f2f2" stroke-width="1"/>
    <circle id="Ellipse_202-2" data-name="Ellipse 202" cx="68.946" cy="68.946" r="68.946" transform="translate(-18529.473 -3926.987)" fill="none" stroke="#f2f2f2" stroke-width="1"/>
    <circle id="Ellipse_212-2" data-name="Ellipse 212" cx="68.946" cy="68.946" r="68.946" transform="translate(-18922.117 -3421.719)" fill="none" stroke="#f2f2f2" stroke-width="1"/>
    <circle id="Ellipse_215-2" data-name="Ellipse 215" cx="68.946" cy="68.946" r="68.946" transform="translate(-16400.068 -4885.937)" fill="none" stroke="#f2f2f2" stroke-width="1"/>
    <circle id="Ellipse_217-2" data-name="Ellipse 217" cx="68.946" cy="68.946" r="68.946" transform="translate(-17242.328 -4150.743)" fill="none" stroke="#f2f2f2" stroke-width="1"/>
    <circle id="Ellipse_220-2" data-name="Ellipse 220" cx="68.946" cy="68.946" r="68.946" transform="translate(-18252.891 -3923.441)" fill="none" stroke="#f2f2f2" stroke-width="1"/>
    <circle id="Ellipse_221-2" data-name="Ellipse 221" cx="68.946" cy="68.946" r="68.946" transform="translate(-16959.266 -4892.088)" fill="none" stroke="#f2f2f2" stroke-width="1"/>
    <circle id="Ellipse_222" data-name="Ellipse 222" cx="68.946" cy="68.946" r="68.946" transform="translate(-17625.727 -4641.158)" fill="none" stroke="#f2f2f2" stroke-width="1"/>
    <circle id="Ellipse_223" data-name="Ellipse 223" cx="68.946" cy="68.946" r="68.946" transform="translate(-18970.004 -3953.413)" fill="none" stroke="#f2f2f2" stroke-width="1"/>
    <circle id="Ellipse_225" data-name="Ellipse 225" cx="68.946" cy="68.946" r="68.946" transform="translate(-18475.637 -4480.603)" fill="none" stroke="#f2f2f2" stroke-width="1"/>
    <circle id="Ellipse_226" data-name="Ellipse 226" cx="68.946" cy="68.946" r="68.946" transform="translate(-19433.102 -4292.6)" fill="none" stroke="#f2f2f2" stroke-width="1"/>
    <circle id="Ellipse_227" data-name="Ellipse 227" cx="68.946" cy="68.946" r="68.946" transform="translate(-19124.986 -4216.357)" fill="none" stroke="#f2f2f2" stroke-width="1"/>
    <circle id="Ellipse_228" data-name="Ellipse 228" cx="68.946" cy="68.946" r="68.946" transform="translate(-19990.078 -4101.281)" fill="none" stroke="#f2f2f2" stroke-width="1"/>
    <circle id="Ellipse_229" data-name="Ellipse 229" cx="68.946" cy="68.946" r="68.946" transform="translate(-20120.24 -3998.789)" fill="none" stroke="#f2f2f2" stroke-width="1"/>
    <circle id="Ellipse_230" data-name="Ellipse 230" cx="68.946" cy="68.946" r="68.946" transform="translate(-19382.107 -3974.776)" fill="none" stroke="#f2f2f2" stroke-width="1"/>
    <circle id="Ellipse_231-2" data-name="Ellipse 231" cx="68.946" cy="68.946" r="68.946" transform="translate(-19971.199 -3787.343)" fill="none" stroke="#f2f2f2" stroke-width="1"/>
    <circle id="Ellipse_232-2" data-name="Ellipse 232" cx="68.946" cy="68.946" r="68.946" transform="translate(-19227.09 -3675.065)" fill="none" stroke="#f2f2f2" stroke-width="1"/>
    <circle id="Ellipse_244-2" data-name="Ellipse 244" cx="68.946" cy="68.946" r="68.946" transform="translate(-17991.191 -3644.08)" fill="none" stroke="#f2f2f2" stroke-width="1"/>
    <circle id="Ellipse_245" data-name="Ellipse 245" cx="68.946" cy="68.946" r="68.946" transform="translate(-17893.873 -3997.99)" fill="none" stroke="#f2f2f2" stroke-width="1"/>
    <circle id="Ellipse_247" data-name="Ellipse 247" cx="68.946" cy="68.946" r="68.946" transform="translate(-17853.512 -4314.533)" fill="none" stroke="#f2f2f2" stroke-width="1"/>
    <circle id="Ellipse_248" data-name="Ellipse 248" cx="68.946" cy="68.946" r="68.946" transform="translate(-17637.514 -4846.64)" fill="none" stroke="#f2f2f2" stroke-width="1"/>
    <circle id="Ellipse_249-2" data-name="Ellipse 249" cx="68.946" cy="68.946" r="68.946" transform="translate(-17698.365 -3910.213)" fill="none" stroke="#f2f2f2" stroke-width="1"/>
    <circle id="Ellipse_261-2" data-name="Ellipse 261" cx="68.946" cy="68.946" r="68.946" transform="translate(-17202.4 -4814.046)" fill="none" stroke="#f2f2f2" stroke-width="1"/>
    <circle id="Ellipse_263-2" data-name="Ellipse 263" cx="68.946" cy="68.946" r="68.946" transform="translate(-16849.039 -4582.48)" fill="none" stroke="#f2f2f2" stroke-width="1"/>
    <circle id="Ellipse_264-2" data-name="Ellipse 264" cx="68.946" cy="68.946" r="68.946" transform="translate(-16366.118 -4615.931)" fill="none" stroke="#f2f2f2" stroke-width="1"/>
    <circle id="Ellipse_265-2" data-name="Ellipse 265" cx="68.946" cy="68.946" r="68.946" transform="translate(-16445.293 -4315.244)" fill="none" stroke="#f2f2f2" stroke-width="1"/>
    <circle id="Ellipse_266-2" data-name="Ellipse 266" cx="68.946" cy="68.946" r="68.946" transform="translate(-16033.934 -4015.77)" fill="none" stroke="#f2f2f2" stroke-width="1"/>
    <circle id="Ellipse_267-2" data-name="Ellipse 267" cx="68.946" cy="68.946" r="68.946" transform="translate(-16820.814 -3966.36)" fill="none" stroke="#f2f2f2" stroke-width="1"/>
    <circle id="Ellipse_268-2" data-name="Ellipse 268" cx="68.946" cy="68.946" r="68.946" transform="translate(-16710.527 -4072.345)" fill="none" stroke="#f2f2f2" stroke-width="1"/>
    <circle id="Ellipse_269-2" data-name="Ellipse 269" cx="68.946" cy="68.946" r="68.946" transform="translate(-16203.693 -4445.117)" fill="none" stroke="#f2f2f2" stroke-width="1"/>
    <circle id="Ellipse_270-2" data-name="Ellipse 270" cx="68.946" cy="68.946" r="68.946" transform="translate(-17081.012 -3668.559)" fill="none" stroke="#f2f2f2" stroke-width="1"/>
    <circle id="Ellipse_271-2" data-name="Ellipse 271" cx="68.946" cy="68.946" r="68.946" transform="translate(-16708.066 -3690.136)" fill="none" stroke="#f2f2f2" stroke-width="1"/>
    <circle id="Ellipse_272-2" data-name="Ellipse 272" cx="68.946" cy="68.946" r="68.946" transform="translate(-16418.682 -3879.309)" fill="none" stroke="#f2f2f2" stroke-width="1"/>
    <circle id="Ellipse_273-2" data-name="Ellipse 273" cx="68.946" cy="68.946" r="68.946" transform="translate(-16316.808 -4178.738)" fill="none" stroke="#f2f2f2" stroke-width="1"/>
    <circle id="Ellipse_278-2" data-name="Ellipse 278" cx="68.946" cy="68.946" r="68.946" transform="translate(-16199.452 -4748.247)" fill="none" stroke="#f2f2f2" stroke-width="1"/>
    <circle id="Ellipse_209" data-name="Ellipse 209" cx="68.946" cy="68.946" r="68.946" transform="translate(-18991.064 -3896.523)" fill="#fcfcfc"/>
  </g>
</svg>
